M48
; DRILL file {KiCad 8.0.6} date 2025-10-13T20:33:38-0700
; FORMAT={-:-/ absolute / inch / decimal}
; #@! TF.CreationDate,2025-10-13T20:33:38-07:00
; #@! TF.GenerationSoftware,Kicad,Pcbnew,8.0.6
; #@! TF.FileFunction,Plated,1,2,PTH
FMAT,2
INCH
; #@! TA.AperFunction,Plated,PTH,ViaDrill
T1C0.0118
; #@! TA.AperFunction,Plated,PTH,ComponentDrill
T2C0.0118
; #@! TA.AperFunction,Plated,PTH,ComponentDrill
T3C0.0315
; #@! TA.AperFunction,Plated,PTH,ComponentDrill
T4C0.0600
; #@! TA.AperFunction,Plated,PTH,ComponentDrill
T5C0.1200
%
G90
G05
T1
X9.1333Y-1.6058
X9.1459Y-1.4853
X9.1829Y-1.3014
X9.197Y-1.7959
X9.2065Y-1.3888
X9.2435Y-2.0244
X9.4801Y-1.3392
X9.5191Y-2.0241
X9.5913Y-1.3508
X9.6419Y-1.4467
X9.6571Y-1.6815
X9.7049Y-1.4739
X9.7051Y-1.5211
X9.7199Y-1.6199
X9.7297Y-1.4483
X9.7317Y-1.4955
X9.7557Y-1.3384
X9.9801Y-1.4176
X10.2478Y-3.5244
X10.2576Y-1.5191
X10.2583Y-1.4483
X10.2888Y-1.5113
T2
X8.3429Y-1.3807
X8.3429Y-1.5658
X8.3626Y-1.3807
X8.3626Y-1.5658
X8.3823Y-1.361
X8.3823Y-1.3807
X8.3823Y-1.5658
X8.3823Y-1.5855
T3
X9.1785Y-0.9483
X9.2573Y-0.9483
X9.336Y-0.9483
X9.4148Y-0.9483
T4
X1.125Y-1.0687
X1.125Y-3.3188
X1.2188Y-1.8187
X1.375Y-0.9688
X1.375Y-3.2188
X1.4062Y-2.5688
X1.4688Y-1.7188
X1.6562Y-2.4688
X1.875Y-1.0687
X1.875Y-3.3188
X1.9688Y-3.3188
X2.0625Y-1.8187
X2.125Y-0.9688
X2.125Y-3.2188
X2.2188Y-3.2188
X2.3125Y-1.7188
X2.4375Y-2.5688
X2.625Y-1.0687
X2.625Y-3.3188
X2.6875Y-2.4688
X2.8125Y-1.8187
X2.8125Y-3.3188
X2.875Y-0.9688
X2.875Y-3.2188
X3.0625Y-1.7188
X3.0625Y-3.2188
X3.1875Y-2.5688
X3.375Y-1.0687
X3.4375Y-2.4688
X3.5625Y-1.8187
X3.625Y-0.9688
X3.8125Y-1.7188
X3.9375Y-2.5688
X4.125Y-1.0687
X4.1875Y-2.4688
X4.2188Y-3.3188
X4.3125Y-1.8187
X4.3125Y-3.3188
X4.375Y-0.9688
X4.4688Y-3.2188
X4.5625Y-1.7188
X4.5625Y-3.2188
X4.6875Y-2.5688
X4.875Y-1.0687
X4.9375Y-2.4688
X5.0625Y-1.8187
X5.125Y-0.9688
X5.3125Y-1.7188
X5.3438Y-3.3188
X5.4375Y-2.5688
X5.5938Y-3.2188
X5.625Y-1.0687
X5.6875Y-2.4688
X5.8125Y-1.8187
X5.875Y-0.9688
X6.0625Y-1.7188
X6.0938Y-3.3188
X6.1875Y-2.5688
X6.3438Y-3.2188
X6.375Y-1.0687
X6.4375Y-2.4688
X6.5625Y-1.8187
X6.5625Y-3.3188
X6.625Y-0.9688
X6.8125Y-1.7188
X6.8125Y-3.2188
X6.9375Y-2.5688
X7.125Y-1.0687
X7.1875Y-2.4688
X7.3125Y-1.8187
X7.3125Y-3.3188
X7.375Y-0.9688
X7.5625Y-1.7188
X7.5625Y-3.2188
X7.6875Y-2.5688
X7.875Y-1.0687
X7.9375Y-2.4688
X8.0625Y-1.8187
X8.125Y-0.9688
X8.3125Y-1.7188
X8.4375Y-2.5688
X8.4375Y-3.3188
X8.625Y-1.0687
X8.6875Y-2.4688
X8.6875Y-3.2188
X8.8125Y-1.8187
X8.875Y-0.9688
X9.0625Y-1.7188
X9.1875Y-2.5688
X9.1875Y-3.3188
X9.4375Y-2.4688
X9.4375Y-3.2188
X9.6562Y-1.0687
X9.75Y-1.8187
X9.9062Y-0.9688
X9.9375Y-2.5688
X9.9375Y-3.3188
X10.0Y-1.7188
X10.1875Y-2.4688
X10.1875Y-3.2188
T5
X3.525Y-3.6938
X3.7125Y-3.6938
X3.9Y-3.6938
X4.8375Y-3.6938
X5.2125Y-3.6938
X5.775Y-3.6938
X5.9625Y-3.6938
X6.7125Y-3.6938
X7.4625Y-3.6938
X7.4625Y-3.6938
M30
