%TF.GenerationSoftware,KiCad,Pcbnew,8.0.6*%
%TF.CreationDate,2025-10-13T20:33:28-07:00*%
%TF.ProjectId,mb44v2_stm32,6d623434-7632-45f7-9374-6d33322e6b69,rev?*%
%TF.SameCoordinates,Original*%
%TF.FileFunction,Legend,Top*%
%TF.FilePolarity,Positive*%
%FSLAX46Y46*%
G04 Gerber Fmt 4.6, Leading zero omitted, Abs format (unit mm)*
G04 Created by KiCad (PCBNEW 8.0.6) date 2025-10-13 20:33:28*
%MOMM*%
%LPD*%
G01*
G04 APERTURE LIST*
%ADD10C,0.150000*%
%ADD11C,0.120000*%
G04 APERTURE END LIST*
D10*
X240649819Y-24419583D02*
X241364104Y-24419583D01*
X241364104Y-24419583D02*
X241506961Y-24467202D01*
X241506961Y-24467202D02*
X241602200Y-24562440D01*
X241602200Y-24562440D02*
X241649819Y-24705297D01*
X241649819Y-24705297D02*
X241649819Y-24800535D01*
X240745057Y-23991011D02*
X240697438Y-23943392D01*
X240697438Y-23943392D02*
X240649819Y-23848154D01*
X240649819Y-23848154D02*
X240649819Y-23610059D01*
X240649819Y-23610059D02*
X240697438Y-23514821D01*
X240697438Y-23514821D02*
X240745057Y-23467202D01*
X240745057Y-23467202D02*
X240840295Y-23419583D01*
X240840295Y-23419583D02*
X240935533Y-23419583D01*
X240935533Y-23419583D02*
X241078390Y-23467202D01*
X241078390Y-23467202D02*
X241649819Y-24038630D01*
X241649819Y-24038630D02*
X241649819Y-23419583D01*
D11*
%TO.C,J2*%
X232075000Y-23026250D02*
X232075000Y-25146250D01*
X238135000Y-23026250D02*
X232075000Y-23026250D01*
X238135000Y-23026250D02*
X238135000Y-25146250D01*
X238135000Y-25146250D02*
X232075000Y-25146250D01*
X239135000Y-23026250D02*
X240195000Y-23026250D01*
X240195000Y-23026250D02*
X240195000Y-24086250D01*
%TD*%
M02*
