%TF.GenerationSoftware,KiCad,Pcbnew,8.0.6*%
%TF.CreationDate,2025-10-13T20:33:28-07:00*%
%TF.ProjectId,mb44v2_stm32,6d623434-7632-45f7-9374-6d33322e6b69,rev?*%
%TF.SameCoordinates,Original*%
%TF.FileFunction,Paste,Bot*%
%TF.FilePolarity,Positive*%
%FSLAX46Y46*%
G04 Gerber Fmt 4.6, Leading zero omitted, Abs format (unit mm)*
G04 Created by KiCad (PCBNEW 8.0.6) date 2025-10-13 20:33:28*
%MOMM*%
%LPD*%
G01*
G04 APERTURE LIST*
G04 Aperture macros list*
%AMRoundRect*
0 Rectangle with rounded corners*
0 $1 Rounding radius*
0 $2 $3 $4 $5 $6 $7 $8 $9 X,Y pos of 4 corners*
0 Add a 4 corners polygon primitive as box body*
4,1,4,$2,$3,$4,$5,$6,$7,$8,$9,$2,$3,0*
0 Add four circle primitives for the rounded corners*
1,1,$1+$1,$2,$3*
1,1,$1+$1,$4,$5*
1,1,$1+$1,$6,$7*
1,1,$1+$1,$8,$9*
0 Add four rect primitives between the rounded corners*
20,1,$1+$1,$2,$3,$4,$5,0*
20,1,$1+$1,$4,$5,$6,$7,0*
20,1,$1+$1,$6,$7,$8,$9,0*
20,1,$1+$1,$8,$9,$2,$3,0*%
G04 Aperture macros list end*
%ADD10RoundRect,0.150000X-0.200000X0.150000X-0.200000X-0.150000X0.200000X-0.150000X0.200000X0.150000X0*%
%ADD11RoundRect,0.140000X-0.170000X0.140000X-0.170000X-0.140000X0.170000X-0.140000X0.170000X0.140000X0*%
%ADD12RoundRect,0.275000X-0.275000X0.625000X-0.275000X-0.625000X0.275000X-0.625000X0.275000X0.625000X0*%
%ADD13RoundRect,0.140000X0.170000X-0.140000X0.170000X0.140000X-0.170000X0.140000X-0.170000X-0.140000X0*%
%ADD14RoundRect,0.150000X0.512500X0.150000X-0.512500X0.150000X-0.512500X-0.150000X0.512500X-0.150000X0*%
%ADD15RoundRect,0.135000X0.185000X-0.135000X0.185000X0.135000X-0.185000X0.135000X-0.185000X-0.135000X0*%
%ADD16RoundRect,0.140000X0.140000X0.170000X-0.140000X0.170000X-0.140000X-0.170000X0.140000X-0.170000X0*%
%ADD17RoundRect,0.140000X-0.140000X-0.170000X0.140000X-0.170000X0.140000X0.170000X-0.140000X0.170000X0*%
%ADD18RoundRect,0.075000X0.662500X0.075000X-0.662500X0.075000X-0.662500X-0.075000X0.662500X-0.075000X0*%
%ADD19RoundRect,0.075000X0.075000X0.662500X-0.075000X0.662500X-0.075000X-0.662500X0.075000X-0.662500X0*%
%ADD20RoundRect,0.150000X0.275000X-0.150000X0.275000X0.150000X-0.275000X0.150000X-0.275000X-0.150000X0*%
%ADD21RoundRect,0.175000X0.225000X-0.175000X0.225000X0.175000X-0.225000X0.175000X-0.225000X-0.175000X0*%
G04 APERTURE END LIST*
D10*
%TO.C,D32*%
X183197500Y-70470625D03*
X183197500Y-69070625D03*
%TD*%
%TO.C,D28*%
X106997500Y-70470625D03*
X106997500Y-69070625D03*
%TD*%
%TO.C,D34*%
X221297500Y-70470625D03*
X221297500Y-69070625D03*
%TD*%
%TO.C,D17*%
X116522500Y-51420625D03*
X116522500Y-50020625D03*
%TD*%
%TO.C,D21*%
X192722500Y-51420625D03*
X192722500Y-50020625D03*
%TD*%
%TO.C,D42*%
X240347500Y-89520625D03*
X240347500Y-88120625D03*
%TD*%
%TO.C,D29*%
X126047500Y-70470625D03*
X126047500Y-69070625D03*
%TD*%
%TO.C,D27*%
X87947500Y-70470625D03*
X87947500Y-69070625D03*
%TD*%
%TO.C,D33*%
X202247500Y-70470625D03*
X202247500Y-69070625D03*
%TD*%
%TO.C,D18*%
X135572500Y-51420625D03*
X135572500Y-50020625D03*
%TD*%
D11*
%TO.C,C6*%
X220289375Y-39986250D03*
X220289375Y-40946250D03*
%TD*%
D12*
%TO.C,SW1*%
X255595000Y-34316250D03*
X255595000Y-40516250D03*
X259295000Y-34316250D03*
X259295000Y-40516250D03*
%TD*%
D10*
%TO.C,D23*%
X230822500Y-51420625D03*
X230822500Y-50020625D03*
%TD*%
%TO.C,D8*%
X168910000Y-32370625D03*
X168910000Y-30970625D03*
%TD*%
%TO.C,D20*%
X173672500Y-51420625D03*
X173672500Y-50020625D03*
%TD*%
%TO.C,D40*%
X142716250Y-89520625D03*
X142716250Y-88120625D03*
%TD*%
%TO.C,D30*%
X145097500Y-70470625D03*
X145097500Y-69070625D03*
%TD*%
%TO.C,D24*%
X254635000Y-51420625D03*
X254635000Y-50020625D03*
%TD*%
%TO.C,D41*%
X221297500Y-89520625D03*
X221297500Y-88120625D03*
%TD*%
%TO.C,D6*%
X130810000Y-32370625D03*
X130810000Y-30970625D03*
%TD*%
%TO.C,D35*%
X240347500Y-70470625D03*
X240347500Y-69070625D03*
%TD*%
D11*
%TO.C,C9*%
X248195000Y-40286250D03*
X248195000Y-41246250D03*
%TD*%
D10*
%TO.C,D48*%
X192722500Y-89520625D03*
X192722500Y-88120625D03*
%TD*%
%TO.C,D31*%
X164147500Y-70470625D03*
X164147500Y-69070625D03*
%TD*%
%TO.C,D15*%
X78422500Y-51420625D03*
X78422500Y-50020625D03*
%TD*%
%TO.C,D13*%
X37941250Y-51420625D03*
X37941250Y-50020625D03*
%TD*%
%TO.C,D12*%
X252253750Y-32370625D03*
X252253750Y-30970625D03*
%TD*%
%TO.C,D25*%
X42703750Y-70470625D03*
X42703750Y-69070625D03*
%TD*%
%TO.C,D19*%
X154622500Y-51420625D03*
X154622500Y-50020625D03*
%TD*%
%TO.C,D16*%
X97472500Y-51420625D03*
X97472500Y-50020625D03*
%TD*%
D13*
%TO.C,C7*%
X226242500Y-40780000D03*
X226242500Y-39820000D03*
%TD*%
D14*
%TO.C,U2*%
X224205000Y-39036250D03*
X224205000Y-40936250D03*
X221930000Y-39986250D03*
%TD*%
D10*
%TO.C,D2*%
X54610000Y-32370625D03*
X54610000Y-30970625D03*
%TD*%
%TO.C,D7*%
X149860000Y-32370625D03*
X149860000Y-30970625D03*
%TD*%
D15*
%TO.C,R1*%
X260875000Y-34606250D03*
X260875000Y-33586250D03*
%TD*%
D10*
%TO.C,D43*%
X259397500Y-89520625D03*
X259397500Y-88120625D03*
%TD*%
%TO.C,D47*%
X161766250Y-89520625D03*
X161766250Y-88120625D03*
%TD*%
D16*
%TO.C,C1*%
X233845000Y-36083750D03*
X232885000Y-36083750D03*
%TD*%
D17*
%TO.C,C3*%
X243865000Y-41266250D03*
X244825000Y-41266250D03*
%TD*%
D10*
%TO.C,D9*%
X187960000Y-32370625D03*
X187960000Y-30970625D03*
%TD*%
%TO.C,D11*%
X226060000Y-32370625D03*
X226060000Y-30970625D03*
%TD*%
D16*
%TO.C,C4*%
X234455000Y-44156250D03*
X233495000Y-44156250D03*
%TD*%
D10*
%TO.C,D38*%
X60563125Y-89520625D03*
X60563125Y-88120625D03*
%TD*%
%TO.C,D36*%
X259397500Y-70470625D03*
X259397500Y-69070625D03*
%TD*%
%TO.C,D39*%
X78422500Y-89520625D03*
X78422500Y-88120625D03*
%TD*%
%TO.C,D3*%
X73660000Y-32370625D03*
X73660000Y-30970625D03*
%TD*%
%TO.C,D26*%
X68897500Y-70470625D03*
X68897500Y-69070625D03*
%TD*%
D17*
%TO.C,C8*%
X243356250Y-36076250D03*
X244316250Y-36076250D03*
%TD*%
D10*
%TO.C,D4*%
X92710000Y-32370625D03*
X92710000Y-30970625D03*
%TD*%
%TO.C,D1*%
X35560000Y-32370625D03*
X35560000Y-30970625D03*
%TD*%
D18*
%TO.C,U1*%
X242325000Y-37046250D03*
X242325000Y-37546250D03*
X242325000Y-38046250D03*
X242325000Y-38546250D03*
X242325000Y-39046250D03*
X242325000Y-39546250D03*
X242325000Y-40046250D03*
X242325000Y-40546250D03*
X242325000Y-41046250D03*
X242325000Y-41546250D03*
X242325000Y-42046250D03*
X242325000Y-42546250D03*
D19*
X240912500Y-43958750D03*
X240412500Y-43958750D03*
X239912500Y-43958750D03*
X239412500Y-43958750D03*
X238912500Y-43958750D03*
X238412500Y-43958750D03*
X237912500Y-43958750D03*
X237412500Y-43958750D03*
X236912500Y-43958750D03*
X236412500Y-43958750D03*
X235912500Y-43958750D03*
X235412500Y-43958750D03*
D18*
X234000000Y-42546250D03*
X234000000Y-42046250D03*
X234000000Y-41546250D03*
X234000000Y-41046250D03*
X234000000Y-40546250D03*
X234000000Y-40046250D03*
X234000000Y-39546250D03*
X234000000Y-39046250D03*
X234000000Y-38546250D03*
X234000000Y-38046250D03*
X234000000Y-37546250D03*
X234000000Y-37046250D03*
D19*
X235412500Y-35633750D03*
X235912500Y-35633750D03*
X236412500Y-35633750D03*
X236912500Y-35633750D03*
X237412500Y-35633750D03*
X237912500Y-35633750D03*
X238412500Y-35633750D03*
X238912500Y-35633750D03*
X239412500Y-35633750D03*
X239912500Y-35633750D03*
X240412500Y-35633750D03*
X240912500Y-35633750D03*
%TD*%
D20*
%TO.C,J1*%
X216035000Y-39220625D03*
X216035000Y-38020625D03*
X216035000Y-36820625D03*
X216035000Y-35620625D03*
D21*
X212260000Y-40370625D03*
X212260000Y-34470625D03*
%TD*%
D10*
%TO.C,D37*%
X35560000Y-89520625D03*
X35560000Y-88120625D03*
%TD*%
D13*
%TO.C,C5*%
X231285000Y-40786250D03*
X231285000Y-39826250D03*
%TD*%
D10*
%TO.C,D22*%
X211772500Y-51420625D03*
X211772500Y-50020625D03*
%TD*%
%TO.C,D46*%
X120094375Y-89520625D03*
X120094375Y-88120625D03*
%TD*%
%TO.C,D5*%
X111760000Y-32370625D03*
X111760000Y-30970625D03*
%TD*%
D13*
%TO.C,C2*%
X241875000Y-35513750D03*
X241875000Y-34553750D03*
%TD*%
D10*
%TO.C,D10*%
X207010000Y-32370625D03*
X207010000Y-30970625D03*
%TD*%
D12*
%TO.C,SW2*%
X249785000Y-34316250D03*
X249785000Y-40516250D03*
X253485000Y-34316250D03*
X253485000Y-40516250D03*
%TD*%
D10*
%TO.C,D14*%
X59372500Y-51420625D03*
X59372500Y-50020625D03*
%TD*%
M02*
