%TF.GenerationSoftware,KiCad,Pcbnew,8.0.6*%
%TF.CreationDate,2025-10-13T20:33:28-07:00*%
%TF.ProjectId,mb44v2_stm32,6d623434-7632-45f7-9374-6d33322e6b69,rev?*%
%TF.SameCoordinates,Original*%
%TF.FileFunction,Soldermask,Top*%
%TF.FilePolarity,Negative*%
%FSLAX46Y46*%
G04 Gerber Fmt 4.6, Leading zero omitted, Abs format (unit mm)*
G04 Created by KiCad (PCBNEW 8.0.6) date 2025-10-13 20:33:28*
%MOMM*%
%LPD*%
G01*
G04 APERTURE LIST*
%ADD10C,1.750000*%
%ADD11C,3.987800*%
%ADD12R,1.350000X1.350000*%
%ADD13O,1.350000X1.350000*%
G04 APERTURE END LIST*
D10*
%TO.C,MX27*%
X79692500Y-67786250D03*
D11*
X84772500Y-67786250D03*
D10*
X89852500Y-67786250D03*
%TD*%
%TO.C,MX4*%
X84455000Y-29686250D03*
D11*
X89535000Y-29686250D03*
D10*
X94615000Y-29686250D03*
%TD*%
%TO.C,MX12*%
X243998750Y-29686250D03*
D11*
X249078750Y-29686250D03*
D10*
X254158750Y-29686250D03*
%TD*%
%TO.C,MX10*%
X198755000Y-29686250D03*
D11*
X203835000Y-29686250D03*
D10*
X208915000Y-29686250D03*
%TD*%
%TO.C,MX44*%
X48736250Y-86836250D03*
D11*
X53816250Y-86836250D03*
D10*
X58896250Y-86836250D03*
%TD*%
D11*
%TO.C,S49*%
X132397500Y-78581250D03*
X94297500Y-78581250D03*
%TD*%
D10*
%TO.C,MX43*%
X251142500Y-86836250D03*
D11*
X256222500Y-86836250D03*
D10*
X261302500Y-86836250D03*
%TD*%
%TO.C,MX38*%
X46355000Y-86836250D03*
D11*
X51435000Y-86836250D03*
D10*
X56515000Y-86836250D03*
%TD*%
%TO.C,MX29*%
X117792500Y-67786250D03*
D11*
X122872500Y-67786250D03*
D10*
X127952500Y-67786250D03*
%TD*%
%TO.C,MX32*%
X174942500Y-67786250D03*
D11*
X180022500Y-67786250D03*
D10*
X185102500Y-67786250D03*
%TD*%
%TO.C,MX17*%
X108267500Y-48736250D03*
D11*
X113347500Y-48736250D03*
D10*
X118427500Y-48736250D03*
%TD*%
%TO.C,MX6*%
X122555000Y-29686250D03*
D11*
X127635000Y-29686250D03*
D10*
X132715000Y-29686250D03*
%TD*%
%TO.C,MX14*%
X51117500Y-48736250D03*
D11*
X56197500Y-48736250D03*
D10*
X61277500Y-48736250D03*
%TD*%
%TO.C,MX49*%
X108267500Y-86836250D03*
D11*
X113347500Y-86836250D03*
D10*
X118427500Y-86836250D03*
%TD*%
%TO.C,MX9*%
X179705000Y-29686250D03*
D11*
X184785000Y-29686250D03*
D10*
X189865000Y-29686250D03*
%TD*%
%TO.C,MX16*%
X89217500Y-48736250D03*
D11*
X94297500Y-48736250D03*
D10*
X99377500Y-48736250D03*
%TD*%
%TO.C,MX37*%
X27305000Y-86836250D03*
D11*
X32385000Y-86836250D03*
D10*
X37465000Y-86836250D03*
%TD*%
%TO.C,MX39*%
X65405000Y-86836250D03*
D11*
X70485000Y-86836250D03*
D10*
X75565000Y-86836250D03*
%TD*%
%TO.C,MX34*%
X213042500Y-67786250D03*
D11*
X218122500Y-67786250D03*
D10*
X223202500Y-67786250D03*
%TD*%
%TO.C,MX22*%
X203517500Y-48736250D03*
D11*
X208597500Y-48736250D03*
D10*
X213677500Y-48736250D03*
%TD*%
%TO.C,MX11*%
X217805000Y-29686250D03*
D11*
X222885000Y-29686250D03*
D10*
X227965000Y-29686250D03*
%TD*%
%TO.C,MX20*%
X165417500Y-48736250D03*
D11*
X170497500Y-48736250D03*
D10*
X175577500Y-48736250D03*
%TD*%
%TO.C,MX15*%
X70167500Y-48736250D03*
D11*
X75247500Y-48736250D03*
D10*
X80327500Y-48736250D03*
%TD*%
%TO.C,MX13*%
X29686250Y-48736250D03*
D11*
X34766250Y-48736250D03*
D10*
X39846250Y-48736250D03*
%TD*%
D11*
%TO.C,S50*%
X189547500Y-78581250D03*
X151447500Y-78581250D03*
%TD*%
%TO.C,S47*%
X170497500Y-78581250D03*
X146685000Y-78581250D03*
%TD*%
D10*
%TO.C,MX35*%
X232092500Y-67786250D03*
D11*
X237172500Y-67786250D03*
D10*
X242252500Y-67786250D03*
%TD*%
%TO.C,MX21*%
X184467500Y-48736250D03*
D11*
X189547500Y-48736250D03*
D10*
X194627500Y-48736250D03*
%TD*%
%TO.C,MX30*%
X136842500Y-67786250D03*
D11*
X141922500Y-67786250D03*
D10*
X147002500Y-67786250D03*
%TD*%
%TO.C,MX47*%
X153511250Y-86836250D03*
D11*
X158591250Y-86836250D03*
D10*
X163671250Y-86836250D03*
%TD*%
%TO.C,MX24*%
X246380000Y-48736250D03*
D11*
X251460000Y-48736250D03*
D10*
X256540000Y-48736250D03*
%TD*%
%TO.C,MX7*%
X141605000Y-29686250D03*
D11*
X146685000Y-29686250D03*
D10*
X151765000Y-29686250D03*
%TD*%
%TO.C,MX2*%
X46355000Y-29686250D03*
D11*
X51435000Y-29686250D03*
D10*
X56515000Y-29686250D03*
%TD*%
%TO.C,MX42*%
X232092500Y-86836250D03*
D11*
X237172500Y-86836250D03*
D10*
X242252500Y-86836250D03*
%TD*%
%TO.C,MX19*%
X146367500Y-48736250D03*
D11*
X151447500Y-48736250D03*
D10*
X156527500Y-48736250D03*
%TD*%
%TO.C,MX31*%
X155892500Y-67786250D03*
D11*
X160972500Y-67786250D03*
D10*
X166052500Y-67786250D03*
%TD*%
%TO.C,MX25*%
X34448750Y-67786250D03*
D11*
X39528750Y-67786250D03*
D10*
X44608750Y-67786250D03*
%TD*%
%TO.C,MX41*%
X213042500Y-86836250D03*
D11*
X218122500Y-86836250D03*
D10*
X223202500Y-86836250D03*
%TD*%
D12*
%TO.C,J2*%
X239135000Y-24086250D03*
D13*
X237135000Y-24086250D03*
X235135000Y-24086250D03*
X233135000Y-24086250D03*
%TD*%
D10*
%TO.C,MX48*%
X184467500Y-86836250D03*
D11*
X189547500Y-86836250D03*
D10*
X194627500Y-86836250D03*
%TD*%
%TO.C,MX26*%
X60642500Y-67786250D03*
D11*
X65722500Y-67786250D03*
D10*
X70802500Y-67786250D03*
%TD*%
%TO.C,MX40*%
X134461250Y-86836250D03*
D11*
X139541250Y-86836250D03*
D10*
X144621250Y-86836250D03*
%TD*%
%TO.C,MX28*%
X98742500Y-67786250D03*
D11*
X103822500Y-67786250D03*
D10*
X108902500Y-67786250D03*
%TD*%
%TO.C,MX8*%
X160655000Y-29686250D03*
D11*
X165735000Y-29686250D03*
D10*
X170815000Y-29686250D03*
%TD*%
%TO.C,MX23*%
X222567500Y-48736250D03*
D11*
X227647500Y-48736250D03*
D10*
X232727500Y-48736250D03*
%TD*%
%TO.C,MX3*%
X65405000Y-29686250D03*
D11*
X70485000Y-29686250D03*
D10*
X75565000Y-29686250D03*
%TD*%
%TO.C,MX46*%
X105886250Y-86836250D03*
D11*
X110966250Y-86836250D03*
D10*
X116046250Y-86836250D03*
%TD*%
%TO.C,MX50*%
X165417500Y-86836250D03*
D11*
X170497500Y-86836250D03*
D10*
X175577500Y-86836250D03*
%TD*%
%TO.C,MX18*%
X127317500Y-48736250D03*
D11*
X132397500Y-48736250D03*
D10*
X137477500Y-48736250D03*
%TD*%
%TO.C,MX1*%
X27305000Y-29686250D03*
D11*
X32385000Y-29686250D03*
D10*
X37465000Y-29686250D03*
%TD*%
D11*
%TO.C,S46*%
X122872500Y-78581250D03*
X99060000Y-78581250D03*
%TD*%
D10*
%TO.C,MX45*%
X70167500Y-86836250D03*
D11*
X75247500Y-86836250D03*
D10*
X80327500Y-86836250D03*
%TD*%
%TO.C,MX5*%
X103505000Y-29686250D03*
D11*
X108585000Y-29686250D03*
D10*
X113665000Y-29686250D03*
%TD*%
%TO.C,MX36*%
X251142500Y-67786250D03*
D11*
X256222500Y-67786250D03*
D10*
X261302500Y-67786250D03*
%TD*%
%TO.C,MX33*%
X193992500Y-67786250D03*
D11*
X199072500Y-67786250D03*
D10*
X204152500Y-67786250D03*
%TD*%
D11*
%TO.C,S40*%
X189547500Y-78581250D03*
X89535000Y-78581250D03*
%TD*%
M02*
