M48
; DRILL file {KiCad 8.0.6} date 2025-10-13T20:33:38-0700
; FORMAT={-:-/ absolute / inch / decimal}
; #@! TF.CreationDate,2025-10-13T20:33:38-07:00
; #@! TF.GenerationSoftware,Kicad,Pcbnew,8.0.6
; #@! TF.FileFunction,NonPlated,1,2,NPTH
FMAT,2
INCH
; #@! TA.AperFunction,NonPlated,NPTH,ComponentDrill
T1C0.0689
; #@! TA.AperFunction,NonPlated,NPTH,ComponentDrill
T2C0.1570
%
G90
G05
T1
X1.075Y-1.1687
X1.075Y-3.4187
X1.1687Y-1.9187
X1.3562Y-2.6687
X1.475Y-1.1687
X1.475Y-3.4187
X1.5687Y-1.9187
X1.7562Y-2.6687
X1.825Y-1.1687
X1.825Y-3.4187
X1.9187Y-3.4187
X2.0125Y-1.9187
X2.225Y-1.1687
X2.225Y-3.4187
X2.3188Y-3.4187
X2.3875Y-2.6687
X2.4125Y-1.9187
X2.575Y-1.1687
X2.575Y-3.4187
X2.7625Y-1.9187
X2.7625Y-3.4187
X2.7875Y-2.6687
X2.975Y-1.1687
X2.975Y-3.4187
X3.1375Y-2.6687
X3.1625Y-1.9187
X3.1625Y-3.4187
X3.325Y-1.1687
X3.5125Y-1.9187
X3.5375Y-2.6687
X3.725Y-1.1687
X3.8875Y-2.6687
X3.9125Y-1.9187
X4.075Y-1.1687
X4.1688Y-3.4187
X4.2625Y-1.9187
X4.2625Y-3.4187
X4.2875Y-2.6687
X4.475Y-1.1687
X4.5687Y-3.4187
X4.6375Y-2.6687
X4.6625Y-1.9187
X4.6625Y-3.4187
X4.825Y-1.1687
X5.0125Y-1.9187
X5.0375Y-2.6687
X5.225Y-1.1687
X5.2938Y-3.4187
X5.3875Y-2.6687
X5.4125Y-1.9187
X5.575Y-1.1687
X5.6937Y-3.4187
X5.7625Y-1.9187
X5.7875Y-2.6687
X5.975Y-1.1687
X6.0438Y-3.4187
X6.1375Y-2.6687
X6.1625Y-1.9187
X6.325Y-1.1687
X6.4437Y-3.4187
X6.5125Y-1.9187
X6.5125Y-3.4187
X6.5375Y-2.6687
X6.725Y-1.1687
X6.8875Y-2.6687
X6.9125Y-1.9187
X6.9125Y-3.4187
X7.075Y-1.1687
X7.2625Y-1.9187
X7.2625Y-3.4187
X7.2875Y-2.6687
X7.475Y-1.1687
X7.6375Y-2.6687
X7.6625Y-1.9187
X7.6625Y-3.4187
X7.825Y-1.1687
X8.0125Y-1.9187
X8.0375Y-2.6687
X8.225Y-1.1687
X8.3875Y-2.6687
X8.3875Y-3.4187
X8.4125Y-1.9187
X8.575Y-1.1687
X8.7625Y-1.9187
X8.7875Y-2.6687
X8.7875Y-3.4187
X8.975Y-1.1687
X9.1375Y-2.6687
X9.1375Y-3.4187
X9.1625Y-1.9187
X9.5375Y-2.6687
X9.5375Y-3.4187
X9.6062Y-1.1687
X9.7Y-1.9187
X9.8875Y-2.6687
X9.8875Y-3.4187
X10.0062Y-1.1687
X10.1Y-1.9187
X10.2875Y-2.6687
X10.2875Y-3.4187
T2
X1.275Y-1.1687
X1.275Y-3.4187
X1.3687Y-1.9187
X1.5562Y-2.6687
X2.025Y-1.1687
X2.025Y-3.4187
X2.1187Y-3.4187
X2.2125Y-1.9187
X2.5875Y-2.6687
X2.775Y-1.1687
X2.775Y-3.4187
X2.9625Y-1.9187
X2.9625Y-3.4187
X3.3375Y-2.6687
X3.525Y-1.1687
X3.525Y-3.0938
X3.7125Y-1.9187
X3.7125Y-3.0938
X3.9Y-3.0938
X4.0875Y-2.6687
X4.275Y-1.1687
X4.3687Y-3.4187
X4.4625Y-1.9187
X4.4625Y-3.4187
X4.8375Y-2.6687
X4.8375Y-3.0938
X5.025Y-1.1687
X5.2125Y-1.9187
X5.2125Y-3.0938
X5.4937Y-3.4187
X5.5875Y-2.6687
X5.775Y-1.1687
X5.775Y-3.0938
X5.9625Y-1.9187
X5.9625Y-3.0938
X6.2437Y-3.4187
X6.3375Y-2.6687
X6.525Y-1.1687
X6.7125Y-1.9187
X6.7125Y-3.0938
X6.7125Y-3.4187
X7.0875Y-2.6687
X7.275Y-1.1687
X7.4625Y-1.9187
X7.4625Y-3.0938
X7.4625Y-3.0938
X7.4625Y-3.4187
X7.8375Y-2.6687
X8.025Y-1.1687
X8.2125Y-1.9187
X8.5875Y-2.6687
X8.5875Y-3.4187
X8.775Y-1.1687
X8.9625Y-1.9187
X9.3375Y-2.6687
X9.3375Y-3.4187
X9.8063Y-1.1687
X9.9Y-1.9187
X10.0875Y-2.6687
X10.0875Y-3.4187
M30
