%TF.GenerationSoftware,KiCad,Pcbnew,8.0.6*%
%TF.CreationDate,2025-10-13T20:33:28-07:00*%
%TF.ProjectId,mb44v2_stm32,6d623434-7632-45f7-9374-6d33322e6b69,rev?*%
%TF.SameCoordinates,Original*%
%TF.FileFunction,Legend,Bot*%
%TF.FilePolarity,Positive*%
%FSLAX46Y46*%
G04 Gerber Fmt 4.6, Leading zero omitted, Abs format (unit mm)*
G04 Created by KiCad (PCBNEW 8.0.6) date 2025-10-13 20:33:28*
%MOMM*%
%LPD*%
G01*
G04 APERTURE LIST*
%ADD10C,0.200000*%
%ADD11C,0.125000*%
%ADD12C,0.150000*%
%ADD13C,0.120000*%
G04 APERTURE END LIST*
D10*
X112799719Y-90186101D02*
X112799719Y-90805148D01*
X112799719Y-90805148D02*
X113180671Y-90471815D01*
X113180671Y-90471815D02*
X113180671Y-90614672D01*
X113180671Y-90614672D02*
X113228290Y-90709910D01*
X113228290Y-90709910D02*
X113275909Y-90757529D01*
X113275909Y-90757529D02*
X113371147Y-90805148D01*
X113371147Y-90805148D02*
X113609242Y-90805148D01*
X113609242Y-90805148D02*
X113704480Y-90757529D01*
X113704480Y-90757529D02*
X113752100Y-90709910D01*
X113752100Y-90709910D02*
X113799719Y-90614672D01*
X113799719Y-90614672D02*
X113799719Y-90328958D01*
X113799719Y-90328958D02*
X113752100Y-90233720D01*
X113752100Y-90233720D02*
X113704480Y-90186101D01*
X112799719Y-91424196D02*
X112799719Y-91519434D01*
X112799719Y-91519434D02*
X112847338Y-91614672D01*
X112847338Y-91614672D02*
X112894957Y-91662291D01*
X112894957Y-91662291D02*
X112990195Y-91709910D01*
X112990195Y-91709910D02*
X113180671Y-91757529D01*
X113180671Y-91757529D02*
X113418766Y-91757529D01*
X113418766Y-91757529D02*
X113609242Y-91709910D01*
X113609242Y-91709910D02*
X113704480Y-91662291D01*
X113704480Y-91662291D02*
X113752100Y-91614672D01*
X113752100Y-91614672D02*
X113799719Y-91519434D01*
X113799719Y-91519434D02*
X113799719Y-91424196D01*
X113799719Y-91424196D02*
X113752100Y-91328958D01*
X113752100Y-91328958D02*
X113704480Y-91281339D01*
X113704480Y-91281339D02*
X113609242Y-91233720D01*
X113609242Y-91233720D02*
X113418766Y-91186101D01*
X113418766Y-91186101D02*
X113180671Y-91186101D01*
X113180671Y-91186101D02*
X112990195Y-91233720D01*
X112990195Y-91233720D02*
X112894957Y-91281339D01*
X112894957Y-91281339D02*
X112847338Y-91328958D01*
X112847338Y-91328958D02*
X112799719Y-91424196D01*
X112799719Y-92376577D02*
X112799719Y-92471815D01*
X112799719Y-92471815D02*
X112847338Y-92567053D01*
X112847338Y-92567053D02*
X112894957Y-92614672D01*
X112894957Y-92614672D02*
X112990195Y-92662291D01*
X112990195Y-92662291D02*
X113180671Y-92709910D01*
X113180671Y-92709910D02*
X113418766Y-92709910D01*
X113418766Y-92709910D02*
X113609242Y-92662291D01*
X113609242Y-92662291D02*
X113704480Y-92614672D01*
X113704480Y-92614672D02*
X113752100Y-92567053D01*
X113752100Y-92567053D02*
X113799719Y-92471815D01*
X113799719Y-92471815D02*
X113799719Y-92376577D01*
X113799719Y-92376577D02*
X113752100Y-92281339D01*
X113752100Y-92281339D02*
X113704480Y-92233720D01*
X113704480Y-92233720D02*
X113609242Y-92186101D01*
X113609242Y-92186101D02*
X113418766Y-92138482D01*
X113418766Y-92138482D02*
X113180671Y-92138482D01*
X113180671Y-92138482D02*
X112990195Y-92186101D01*
X112990195Y-92186101D02*
X112894957Y-92233720D01*
X112894957Y-92233720D02*
X112847338Y-92281339D01*
X112847338Y-92281339D02*
X112799719Y-92376577D01*
X112799719Y-93138482D02*
X113609242Y-93138482D01*
X113609242Y-93138482D02*
X113704480Y-93186101D01*
X113704480Y-93186101D02*
X113752100Y-93233720D01*
X113752100Y-93233720D02*
X113799719Y-93328958D01*
X113799719Y-93328958D02*
X113799719Y-93519434D01*
X113799719Y-93519434D02*
X113752100Y-93614672D01*
X113752100Y-93614672D02*
X113704480Y-93662291D01*
X113704480Y-93662291D02*
X113609242Y-93709910D01*
X113609242Y-93709910D02*
X112799719Y-93709910D01*
X148346904Y-74908707D02*
X148299285Y-74861088D01*
X148299285Y-74861088D02*
X148204047Y-74813469D01*
X148204047Y-74813469D02*
X147965952Y-74813469D01*
X147965952Y-74813469D02*
X147870714Y-74861088D01*
X147870714Y-74861088D02*
X147823095Y-74908707D01*
X147823095Y-74908707D02*
X147775476Y-75003945D01*
X147775476Y-75003945D02*
X147775476Y-75099183D01*
X147775476Y-75099183D02*
X147823095Y-75242040D01*
X147823095Y-75242040D02*
X148394523Y-75813469D01*
X148394523Y-75813469D02*
X147775476Y-75813469D01*
X147394523Y-74908707D02*
X147346904Y-74861088D01*
X147346904Y-74861088D02*
X147251666Y-74813469D01*
X147251666Y-74813469D02*
X147013571Y-74813469D01*
X147013571Y-74813469D02*
X146918333Y-74861088D01*
X146918333Y-74861088D02*
X146870714Y-74908707D01*
X146870714Y-74908707D02*
X146823095Y-75003945D01*
X146823095Y-75003945D02*
X146823095Y-75099183D01*
X146823095Y-75099183D02*
X146870714Y-75242040D01*
X146870714Y-75242040D02*
X147442142Y-75813469D01*
X147442142Y-75813469D02*
X146823095Y-75813469D01*
X145918333Y-74813469D02*
X146394523Y-74813469D01*
X146394523Y-74813469D02*
X146442142Y-75289659D01*
X146442142Y-75289659D02*
X146394523Y-75242040D01*
X146394523Y-75242040D02*
X146299285Y-75194421D01*
X146299285Y-75194421D02*
X146061190Y-75194421D01*
X146061190Y-75194421D02*
X145965952Y-75242040D01*
X145965952Y-75242040D02*
X145918333Y-75289659D01*
X145918333Y-75289659D02*
X145870714Y-75384897D01*
X145870714Y-75384897D02*
X145870714Y-75622992D01*
X145870714Y-75622992D02*
X145918333Y-75718230D01*
X145918333Y-75718230D02*
X145965952Y-75765850D01*
X145965952Y-75765850D02*
X146061190Y-75813469D01*
X146061190Y-75813469D02*
X146299285Y-75813469D01*
X146299285Y-75813469D02*
X146394523Y-75765850D01*
X146394523Y-75765850D02*
X146442142Y-75718230D01*
X145442142Y-74813469D02*
X145442142Y-75622992D01*
X145442142Y-75622992D02*
X145394523Y-75718230D01*
X145394523Y-75718230D02*
X145346904Y-75765850D01*
X145346904Y-75765850D02*
X145251666Y-75813469D01*
X145251666Y-75813469D02*
X145061190Y-75813469D01*
X145061190Y-75813469D02*
X144965952Y-75765850D01*
X144965952Y-75765850D02*
X144918333Y-75718230D01*
X144918333Y-75718230D02*
X144870714Y-75622992D01*
X144870714Y-75622992D02*
X144870714Y-74813469D01*
D11*
X245670621Y-24542369D02*
X245545621Y-23542369D01*
X245545621Y-23542369D02*
X245307525Y-23542369D01*
X245307525Y-23542369D02*
X245170621Y-23589988D01*
X245170621Y-23589988D02*
X245087287Y-23685226D01*
X245087287Y-23685226D02*
X245051573Y-23780464D01*
X245051573Y-23780464D02*
X245027764Y-23970940D01*
X245027764Y-23970940D02*
X245045621Y-24113797D01*
X245045621Y-24113797D02*
X245117049Y-24304273D01*
X245117049Y-24304273D02*
X245176573Y-24399511D01*
X245176573Y-24399511D02*
X245283716Y-24494750D01*
X245283716Y-24494750D02*
X245432525Y-24542369D01*
X245432525Y-24542369D02*
X245670621Y-24542369D01*
X244605144Y-24018559D02*
X244271811Y-24018559D01*
X244194430Y-24542369D02*
X244670621Y-24542369D01*
X244670621Y-24542369D02*
X244545621Y-23542369D01*
X244545621Y-23542369D02*
X244069430Y-23542369D01*
X243367049Y-24018559D02*
X243230144Y-24066178D01*
X243230144Y-24066178D02*
X243188478Y-24113797D01*
X243188478Y-24113797D02*
X243152763Y-24209035D01*
X243152763Y-24209035D02*
X243170621Y-24351892D01*
X243170621Y-24351892D02*
X243230144Y-24447130D01*
X243230144Y-24447130D02*
X243283716Y-24494750D01*
X243283716Y-24494750D02*
X243384906Y-24542369D01*
X243384906Y-24542369D02*
X243765859Y-24542369D01*
X243765859Y-24542369D02*
X243640859Y-23542369D01*
X243640859Y-23542369D02*
X243307525Y-23542369D01*
X243307525Y-23542369D02*
X243218240Y-23589988D01*
X243218240Y-23589988D02*
X243176573Y-23637607D01*
X243176573Y-23637607D02*
X243140859Y-23732845D01*
X243140859Y-23732845D02*
X243152763Y-23828083D01*
X243152763Y-23828083D02*
X243212287Y-23923321D01*
X243212287Y-23923321D02*
X243265859Y-23970940D01*
X243265859Y-23970940D02*
X243367049Y-24018559D01*
X243367049Y-24018559D02*
X243700382Y-24018559D01*
X242640859Y-23542369D02*
X242742049Y-24351892D01*
X242742049Y-24351892D02*
X242706335Y-24447130D01*
X242706335Y-24447130D02*
X242664668Y-24494750D01*
X242664668Y-24494750D02*
X242575382Y-24542369D01*
X242575382Y-24542369D02*
X242384906Y-24542369D01*
X242384906Y-24542369D02*
X242283716Y-24494750D01*
X242283716Y-24494750D02*
X242230144Y-24447130D01*
X242230144Y-24447130D02*
X242170621Y-24351892D01*
X242170621Y-24351892D02*
X242069430Y-23542369D01*
X241075383Y-23589988D02*
X241164668Y-23542369D01*
X241164668Y-23542369D02*
X241307525Y-23542369D01*
X241307525Y-23542369D02*
X241456335Y-23589988D01*
X241456335Y-23589988D02*
X241563478Y-23685226D01*
X241563478Y-23685226D02*
X241623002Y-23780464D01*
X241623002Y-23780464D02*
X241694430Y-23970940D01*
X241694430Y-23970940D02*
X241712287Y-24113797D01*
X241712287Y-24113797D02*
X241688478Y-24304273D01*
X241688478Y-24304273D02*
X241652763Y-24399511D01*
X241652763Y-24399511D02*
X241569430Y-24494750D01*
X241569430Y-24494750D02*
X241432525Y-24542369D01*
X241432525Y-24542369D02*
X241337287Y-24542369D01*
X241337287Y-24542369D02*
X241188478Y-24494750D01*
X241188478Y-24494750D02*
X241134906Y-24447130D01*
X241134906Y-24447130D02*
X241093240Y-24113797D01*
X241093240Y-24113797D02*
X241283716Y-24113797D01*
D10*
X124502945Y-74908707D02*
X124455326Y-74861088D01*
X124455326Y-74861088D02*
X124360088Y-74813469D01*
X124360088Y-74813469D02*
X124121993Y-74813469D01*
X124121993Y-74813469D02*
X124026755Y-74861088D01*
X124026755Y-74861088D02*
X123979136Y-74908707D01*
X123979136Y-74908707D02*
X123931517Y-75003945D01*
X123931517Y-75003945D02*
X123931517Y-75099183D01*
X123931517Y-75099183D02*
X123979136Y-75242040D01*
X123979136Y-75242040D02*
X124550564Y-75813469D01*
X124550564Y-75813469D02*
X123931517Y-75813469D01*
X123598183Y-74813469D02*
X122931517Y-74813469D01*
X122931517Y-74813469D02*
X123360088Y-75813469D01*
X122074374Y-74813469D02*
X122550564Y-74813469D01*
X122550564Y-74813469D02*
X122598183Y-75289659D01*
X122598183Y-75289659D02*
X122550564Y-75242040D01*
X122550564Y-75242040D02*
X122455326Y-75194421D01*
X122455326Y-75194421D02*
X122217231Y-75194421D01*
X122217231Y-75194421D02*
X122121993Y-75242040D01*
X122121993Y-75242040D02*
X122074374Y-75289659D01*
X122074374Y-75289659D02*
X122026755Y-75384897D01*
X122026755Y-75384897D02*
X122026755Y-75622992D01*
X122026755Y-75622992D02*
X122074374Y-75718230D01*
X122074374Y-75718230D02*
X122121993Y-75765850D01*
X122121993Y-75765850D02*
X122217231Y-75813469D01*
X122217231Y-75813469D02*
X122455326Y-75813469D01*
X122455326Y-75813469D02*
X122550564Y-75765850D01*
X122550564Y-75765850D02*
X122598183Y-75718230D01*
X121598183Y-74813469D02*
X121598183Y-75622992D01*
X121598183Y-75622992D02*
X121550564Y-75718230D01*
X121550564Y-75718230D02*
X121502945Y-75765850D01*
X121502945Y-75765850D02*
X121407707Y-75813469D01*
X121407707Y-75813469D02*
X121217231Y-75813469D01*
X121217231Y-75813469D02*
X121121993Y-75765850D01*
X121121993Y-75765850D02*
X121074374Y-75718230D01*
X121074374Y-75718230D02*
X121026755Y-75622992D01*
X121026755Y-75622992D02*
X121026755Y-74813469D01*
X138993469Y-91106785D02*
X138993469Y-90916309D01*
X138993469Y-90916309D02*
X139041088Y-90821071D01*
X139041088Y-90821071D02*
X139088707Y-90773452D01*
X139088707Y-90773452D02*
X139231564Y-90678214D01*
X139231564Y-90678214D02*
X139422040Y-90630595D01*
X139422040Y-90630595D02*
X139802992Y-90630595D01*
X139802992Y-90630595D02*
X139898230Y-90678214D01*
X139898230Y-90678214D02*
X139945850Y-90725833D01*
X139945850Y-90725833D02*
X139993469Y-90821071D01*
X139993469Y-90821071D02*
X139993469Y-91011547D01*
X139993469Y-91011547D02*
X139945850Y-91106785D01*
X139945850Y-91106785D02*
X139898230Y-91154404D01*
X139898230Y-91154404D02*
X139802992Y-91202023D01*
X139802992Y-91202023D02*
X139564897Y-91202023D01*
X139564897Y-91202023D02*
X139469659Y-91154404D01*
X139469659Y-91154404D02*
X139422040Y-91106785D01*
X139422040Y-91106785D02*
X139374421Y-91011547D01*
X139374421Y-91011547D02*
X139374421Y-90821071D01*
X139374421Y-90821071D02*
X139422040Y-90725833D01*
X139422040Y-90725833D02*
X139469659Y-90678214D01*
X139469659Y-90678214D02*
X139564897Y-90630595D01*
X139088707Y-91582976D02*
X139041088Y-91630595D01*
X139041088Y-91630595D02*
X138993469Y-91725833D01*
X138993469Y-91725833D02*
X138993469Y-91963928D01*
X138993469Y-91963928D02*
X139041088Y-92059166D01*
X139041088Y-92059166D02*
X139088707Y-92106785D01*
X139088707Y-92106785D02*
X139183945Y-92154404D01*
X139183945Y-92154404D02*
X139279183Y-92154404D01*
X139279183Y-92154404D02*
X139422040Y-92106785D01*
X139422040Y-92106785D02*
X139993469Y-91535357D01*
X139993469Y-91535357D02*
X139993469Y-92154404D01*
X138993469Y-93059166D02*
X138993469Y-92582976D01*
X138993469Y-92582976D02*
X139469659Y-92535357D01*
X139469659Y-92535357D02*
X139422040Y-92582976D01*
X139422040Y-92582976D02*
X139374421Y-92678214D01*
X139374421Y-92678214D02*
X139374421Y-92916309D01*
X139374421Y-92916309D02*
X139422040Y-93011547D01*
X139422040Y-93011547D02*
X139469659Y-93059166D01*
X139469659Y-93059166D02*
X139564897Y-93106785D01*
X139564897Y-93106785D02*
X139802992Y-93106785D01*
X139802992Y-93106785D02*
X139898230Y-93059166D01*
X139898230Y-93059166D02*
X139945850Y-93011547D01*
X139945850Y-93011547D02*
X139993469Y-92916309D01*
X139993469Y-92916309D02*
X139993469Y-92678214D01*
X139993469Y-92678214D02*
X139945850Y-92582976D01*
X139945850Y-92582976D02*
X139898230Y-92535357D01*
X138993469Y-93535357D02*
X139802992Y-93535357D01*
X139802992Y-93535357D02*
X139898230Y-93582976D01*
X139898230Y-93582976D02*
X139945850Y-93630595D01*
X139945850Y-93630595D02*
X139993469Y-93725833D01*
X139993469Y-93725833D02*
X139993469Y-93916309D01*
X139993469Y-93916309D02*
X139945850Y-94011547D01*
X139945850Y-94011547D02*
X139898230Y-94059166D01*
X139898230Y-94059166D02*
X139802992Y-94106785D01*
X139802992Y-94106785D02*
X138993469Y-94106785D01*
X172062945Y-74898707D02*
X172015326Y-74851088D01*
X172015326Y-74851088D02*
X171920088Y-74803469D01*
X171920088Y-74803469D02*
X171681993Y-74803469D01*
X171681993Y-74803469D02*
X171586755Y-74851088D01*
X171586755Y-74851088D02*
X171539136Y-74898707D01*
X171539136Y-74898707D02*
X171491517Y-74993945D01*
X171491517Y-74993945D02*
X171491517Y-75089183D01*
X171491517Y-75089183D02*
X171539136Y-75232040D01*
X171539136Y-75232040D02*
X172110564Y-75803469D01*
X172110564Y-75803469D02*
X171491517Y-75803469D01*
X171110564Y-74898707D02*
X171062945Y-74851088D01*
X171062945Y-74851088D02*
X170967707Y-74803469D01*
X170967707Y-74803469D02*
X170729612Y-74803469D01*
X170729612Y-74803469D02*
X170634374Y-74851088D01*
X170634374Y-74851088D02*
X170586755Y-74898707D01*
X170586755Y-74898707D02*
X170539136Y-74993945D01*
X170539136Y-74993945D02*
X170539136Y-75089183D01*
X170539136Y-75089183D02*
X170586755Y-75232040D01*
X170586755Y-75232040D02*
X171158183Y-75803469D01*
X171158183Y-75803469D02*
X170539136Y-75803469D01*
X169634374Y-74803469D02*
X170110564Y-74803469D01*
X170110564Y-74803469D02*
X170158183Y-75279659D01*
X170158183Y-75279659D02*
X170110564Y-75232040D01*
X170110564Y-75232040D02*
X170015326Y-75184421D01*
X170015326Y-75184421D02*
X169777231Y-75184421D01*
X169777231Y-75184421D02*
X169681993Y-75232040D01*
X169681993Y-75232040D02*
X169634374Y-75279659D01*
X169634374Y-75279659D02*
X169586755Y-75374897D01*
X169586755Y-75374897D02*
X169586755Y-75612992D01*
X169586755Y-75612992D02*
X169634374Y-75708230D01*
X169634374Y-75708230D02*
X169681993Y-75755850D01*
X169681993Y-75755850D02*
X169777231Y-75803469D01*
X169777231Y-75803469D02*
X170015326Y-75803469D01*
X170015326Y-75803469D02*
X170110564Y-75755850D01*
X170110564Y-75755850D02*
X170158183Y-75708230D01*
X169158183Y-74803469D02*
X169158183Y-75612992D01*
X169158183Y-75612992D02*
X169110564Y-75708230D01*
X169110564Y-75708230D02*
X169062945Y-75755850D01*
X169062945Y-75755850D02*
X168967707Y-75803469D01*
X168967707Y-75803469D02*
X168777231Y-75803469D01*
X168777231Y-75803469D02*
X168681993Y-75755850D01*
X168681993Y-75755850D02*
X168634374Y-75708230D01*
X168634374Y-75708230D02*
X168586755Y-75612992D01*
X168586755Y-75612992D02*
X168586755Y-74803469D01*
X251333898Y-43053469D02*
X251667231Y-42577278D01*
X251905326Y-43053469D02*
X251905326Y-42053469D01*
X251905326Y-42053469D02*
X251524374Y-42053469D01*
X251524374Y-42053469D02*
X251429136Y-42101088D01*
X251429136Y-42101088D02*
X251381517Y-42148707D01*
X251381517Y-42148707D02*
X251333898Y-42243945D01*
X251333898Y-42243945D02*
X251333898Y-42386802D01*
X251333898Y-42386802D02*
X251381517Y-42482040D01*
X251381517Y-42482040D02*
X251429136Y-42529659D01*
X251429136Y-42529659D02*
X251524374Y-42577278D01*
X251524374Y-42577278D02*
X251905326Y-42577278D01*
X250905326Y-42529659D02*
X250571993Y-42529659D01*
X250429136Y-43053469D02*
X250905326Y-43053469D01*
X250905326Y-43053469D02*
X250905326Y-42053469D01*
X250905326Y-42053469D02*
X250429136Y-42053469D01*
X250048183Y-43005850D02*
X249905326Y-43053469D01*
X249905326Y-43053469D02*
X249667231Y-43053469D01*
X249667231Y-43053469D02*
X249571993Y-43005850D01*
X249571993Y-43005850D02*
X249524374Y-42958230D01*
X249524374Y-42958230D02*
X249476755Y-42862992D01*
X249476755Y-42862992D02*
X249476755Y-42767754D01*
X249476755Y-42767754D02*
X249524374Y-42672516D01*
X249524374Y-42672516D02*
X249571993Y-42624897D01*
X249571993Y-42624897D02*
X249667231Y-42577278D01*
X249667231Y-42577278D02*
X249857707Y-42529659D01*
X249857707Y-42529659D02*
X249952945Y-42482040D01*
X249952945Y-42482040D02*
X250000564Y-42434421D01*
X250000564Y-42434421D02*
X250048183Y-42339183D01*
X250048183Y-42339183D02*
X250048183Y-42243945D01*
X250048183Y-42243945D02*
X250000564Y-42148707D01*
X250000564Y-42148707D02*
X249952945Y-42101088D01*
X249952945Y-42101088D02*
X249857707Y-42053469D01*
X249857707Y-42053469D02*
X249619612Y-42053469D01*
X249619612Y-42053469D02*
X249476755Y-42101088D01*
X249048183Y-42529659D02*
X248714850Y-42529659D01*
X248571993Y-43053469D02*
X249048183Y-43053469D01*
X249048183Y-43053469D02*
X249048183Y-42053469D01*
X249048183Y-42053469D02*
X248571993Y-42053469D01*
X248286278Y-42053469D02*
X247714850Y-42053469D01*
X248000564Y-43053469D02*
X248000564Y-42053469D01*
X96114523Y-74813469D02*
X95495476Y-74813469D01*
X95495476Y-74813469D02*
X95828809Y-75194421D01*
X95828809Y-75194421D02*
X95685952Y-75194421D01*
X95685952Y-75194421D02*
X95590714Y-75242040D01*
X95590714Y-75242040D02*
X95543095Y-75289659D01*
X95543095Y-75289659D02*
X95495476Y-75384897D01*
X95495476Y-75384897D02*
X95495476Y-75622992D01*
X95495476Y-75622992D02*
X95543095Y-75718230D01*
X95543095Y-75718230D02*
X95590714Y-75765850D01*
X95590714Y-75765850D02*
X95685952Y-75813469D01*
X95685952Y-75813469D02*
X95971666Y-75813469D01*
X95971666Y-75813469D02*
X96066904Y-75765850D01*
X96066904Y-75765850D02*
X96114523Y-75718230D01*
X94876428Y-74813469D02*
X94781190Y-74813469D01*
X94781190Y-74813469D02*
X94685952Y-74861088D01*
X94685952Y-74861088D02*
X94638333Y-74908707D01*
X94638333Y-74908707D02*
X94590714Y-75003945D01*
X94590714Y-75003945D02*
X94543095Y-75194421D01*
X94543095Y-75194421D02*
X94543095Y-75432516D01*
X94543095Y-75432516D02*
X94590714Y-75622992D01*
X94590714Y-75622992D02*
X94638333Y-75718230D01*
X94638333Y-75718230D02*
X94685952Y-75765850D01*
X94685952Y-75765850D02*
X94781190Y-75813469D01*
X94781190Y-75813469D02*
X94876428Y-75813469D01*
X94876428Y-75813469D02*
X94971666Y-75765850D01*
X94971666Y-75765850D02*
X95019285Y-75718230D01*
X95019285Y-75718230D02*
X95066904Y-75622992D01*
X95066904Y-75622992D02*
X95114523Y-75432516D01*
X95114523Y-75432516D02*
X95114523Y-75194421D01*
X95114523Y-75194421D02*
X95066904Y-75003945D01*
X95066904Y-75003945D02*
X95019285Y-74908707D01*
X95019285Y-74908707D02*
X94971666Y-74861088D01*
X94971666Y-74861088D02*
X94876428Y-74813469D01*
X93924047Y-74813469D02*
X93828809Y-74813469D01*
X93828809Y-74813469D02*
X93733571Y-74861088D01*
X93733571Y-74861088D02*
X93685952Y-74908707D01*
X93685952Y-74908707D02*
X93638333Y-75003945D01*
X93638333Y-75003945D02*
X93590714Y-75194421D01*
X93590714Y-75194421D02*
X93590714Y-75432516D01*
X93590714Y-75432516D02*
X93638333Y-75622992D01*
X93638333Y-75622992D02*
X93685952Y-75718230D01*
X93685952Y-75718230D02*
X93733571Y-75765850D01*
X93733571Y-75765850D02*
X93828809Y-75813469D01*
X93828809Y-75813469D02*
X93924047Y-75813469D01*
X93924047Y-75813469D02*
X94019285Y-75765850D01*
X94019285Y-75765850D02*
X94066904Y-75718230D01*
X94066904Y-75718230D02*
X94114523Y-75622992D01*
X94114523Y-75622992D02*
X94162142Y-75432516D01*
X94162142Y-75432516D02*
X94162142Y-75194421D01*
X94162142Y-75194421D02*
X94114523Y-75003945D01*
X94114523Y-75003945D02*
X94066904Y-74908707D01*
X94066904Y-74908707D02*
X94019285Y-74861088D01*
X94019285Y-74861088D02*
X93924047Y-74813469D01*
X93162142Y-74813469D02*
X93162142Y-75622992D01*
X93162142Y-75622992D02*
X93114523Y-75718230D01*
X93114523Y-75718230D02*
X93066904Y-75765850D01*
X93066904Y-75765850D02*
X92971666Y-75813469D01*
X92971666Y-75813469D02*
X92781190Y-75813469D01*
X92781190Y-75813469D02*
X92685952Y-75765850D01*
X92685952Y-75765850D02*
X92638333Y-75718230D01*
X92638333Y-75718230D02*
X92590714Y-75622992D01*
X92590714Y-75622992D02*
X92590714Y-74813469D01*
X259651993Y-42579659D02*
X259509136Y-42627278D01*
X259509136Y-42627278D02*
X259461517Y-42674897D01*
X259461517Y-42674897D02*
X259413898Y-42770135D01*
X259413898Y-42770135D02*
X259413898Y-42912992D01*
X259413898Y-42912992D02*
X259461517Y-43008230D01*
X259461517Y-43008230D02*
X259509136Y-43055850D01*
X259509136Y-43055850D02*
X259604374Y-43103469D01*
X259604374Y-43103469D02*
X259985326Y-43103469D01*
X259985326Y-43103469D02*
X259985326Y-42103469D01*
X259985326Y-42103469D02*
X259651993Y-42103469D01*
X259651993Y-42103469D02*
X259556755Y-42151088D01*
X259556755Y-42151088D02*
X259509136Y-42198707D01*
X259509136Y-42198707D02*
X259461517Y-42293945D01*
X259461517Y-42293945D02*
X259461517Y-42389183D01*
X259461517Y-42389183D02*
X259509136Y-42484421D01*
X259509136Y-42484421D02*
X259556755Y-42532040D01*
X259556755Y-42532040D02*
X259651993Y-42579659D01*
X259651993Y-42579659D02*
X259985326Y-42579659D01*
X258794850Y-42103469D02*
X258604374Y-42103469D01*
X258604374Y-42103469D02*
X258509136Y-42151088D01*
X258509136Y-42151088D02*
X258413898Y-42246326D01*
X258413898Y-42246326D02*
X258366279Y-42436802D01*
X258366279Y-42436802D02*
X258366279Y-42770135D01*
X258366279Y-42770135D02*
X258413898Y-42960611D01*
X258413898Y-42960611D02*
X258509136Y-43055850D01*
X258509136Y-43055850D02*
X258604374Y-43103469D01*
X258604374Y-43103469D02*
X258794850Y-43103469D01*
X258794850Y-43103469D02*
X258890088Y-43055850D01*
X258890088Y-43055850D02*
X258985326Y-42960611D01*
X258985326Y-42960611D02*
X259032945Y-42770135D01*
X259032945Y-42770135D02*
X259032945Y-42436802D01*
X259032945Y-42436802D02*
X258985326Y-42246326D01*
X258985326Y-42246326D02*
X258890088Y-42151088D01*
X258890088Y-42151088D02*
X258794850Y-42103469D01*
X257747231Y-42103469D02*
X257556755Y-42103469D01*
X257556755Y-42103469D02*
X257461517Y-42151088D01*
X257461517Y-42151088D02*
X257366279Y-42246326D01*
X257366279Y-42246326D02*
X257318660Y-42436802D01*
X257318660Y-42436802D02*
X257318660Y-42770135D01*
X257318660Y-42770135D02*
X257366279Y-42960611D01*
X257366279Y-42960611D02*
X257461517Y-43055850D01*
X257461517Y-43055850D02*
X257556755Y-43103469D01*
X257556755Y-43103469D02*
X257747231Y-43103469D01*
X257747231Y-43103469D02*
X257842469Y-43055850D01*
X257842469Y-43055850D02*
X257937707Y-42960611D01*
X257937707Y-42960611D02*
X257985326Y-42770135D01*
X257985326Y-42770135D02*
X257985326Y-42436802D01*
X257985326Y-42436802D02*
X257937707Y-42246326D01*
X257937707Y-42246326D02*
X257842469Y-42151088D01*
X257842469Y-42151088D02*
X257747231Y-42103469D01*
X257032945Y-42103469D02*
X256461517Y-42103469D01*
X256747231Y-43103469D02*
X256747231Y-42103469D01*
D11*
X233563500Y-25758962D02*
X233611119Y-25901819D01*
X233611119Y-25901819D02*
X233611119Y-26139914D01*
X233611119Y-26139914D02*
X233563500Y-26235152D01*
X233563500Y-26235152D02*
X233515880Y-26282771D01*
X233515880Y-26282771D02*
X233420642Y-26330390D01*
X233420642Y-26330390D02*
X233325404Y-26330390D01*
X233325404Y-26330390D02*
X233230166Y-26282771D01*
X233230166Y-26282771D02*
X233182547Y-26235152D01*
X233182547Y-26235152D02*
X233134928Y-26139914D01*
X233134928Y-26139914D02*
X233087309Y-25949438D01*
X233087309Y-25949438D02*
X233039690Y-25854200D01*
X233039690Y-25854200D02*
X232992071Y-25806581D01*
X232992071Y-25806581D02*
X232896833Y-25758962D01*
X232896833Y-25758962D02*
X232801595Y-25758962D01*
X232801595Y-25758962D02*
X232706357Y-25806581D01*
X232706357Y-25806581D02*
X232658738Y-25854200D01*
X232658738Y-25854200D02*
X232611119Y-25949438D01*
X232611119Y-25949438D02*
X232611119Y-26187533D01*
X232611119Y-26187533D02*
X232658738Y-26330390D01*
X232611119Y-26663724D02*
X233611119Y-26901819D01*
X233611119Y-26901819D02*
X232896833Y-27092295D01*
X232896833Y-27092295D02*
X233611119Y-27282771D01*
X233611119Y-27282771D02*
X232611119Y-27520867D01*
X233611119Y-27901819D02*
X232611119Y-27901819D01*
X232611119Y-27901819D02*
X232611119Y-28139914D01*
X232611119Y-28139914D02*
X232658738Y-28282771D01*
X232658738Y-28282771D02*
X232753976Y-28378009D01*
X232753976Y-28378009D02*
X232849214Y-28425628D01*
X232849214Y-28425628D02*
X233039690Y-28473247D01*
X233039690Y-28473247D02*
X233182547Y-28473247D01*
X233182547Y-28473247D02*
X233373023Y-28425628D01*
X233373023Y-28425628D02*
X233468261Y-28378009D01*
X233468261Y-28378009D02*
X233563500Y-28282771D01*
X233563500Y-28282771D02*
X233611119Y-28139914D01*
X233611119Y-28139914D02*
X233611119Y-27901819D01*
X233611119Y-28901819D02*
X232611119Y-28901819D01*
X232611119Y-29568485D02*
X232611119Y-29758961D01*
X232611119Y-29758961D02*
X232658738Y-29854199D01*
X232658738Y-29854199D02*
X232753976Y-29949437D01*
X232753976Y-29949437D02*
X232944452Y-29997056D01*
X232944452Y-29997056D02*
X233277785Y-29997056D01*
X233277785Y-29997056D02*
X233468261Y-29949437D01*
X233468261Y-29949437D02*
X233563500Y-29854199D01*
X233563500Y-29854199D02*
X233611119Y-29758961D01*
X233611119Y-29758961D02*
X233611119Y-29568485D01*
X233611119Y-29568485D02*
X233563500Y-29473247D01*
X233563500Y-29473247D02*
X233468261Y-29378009D01*
X233468261Y-29378009D02*
X233277785Y-29330390D01*
X233277785Y-29330390D02*
X232944452Y-29330390D01*
X232944452Y-29330390D02*
X232753976Y-29378009D01*
X232753976Y-29378009D02*
X232658738Y-29473247D01*
X232658738Y-29473247D02*
X232611119Y-29568485D01*
X235553500Y-25748962D02*
X235601119Y-25891819D01*
X235601119Y-25891819D02*
X235601119Y-26129914D01*
X235601119Y-26129914D02*
X235553500Y-26225152D01*
X235553500Y-26225152D02*
X235505880Y-26272771D01*
X235505880Y-26272771D02*
X235410642Y-26320390D01*
X235410642Y-26320390D02*
X235315404Y-26320390D01*
X235315404Y-26320390D02*
X235220166Y-26272771D01*
X235220166Y-26272771D02*
X235172547Y-26225152D01*
X235172547Y-26225152D02*
X235124928Y-26129914D01*
X235124928Y-26129914D02*
X235077309Y-25939438D01*
X235077309Y-25939438D02*
X235029690Y-25844200D01*
X235029690Y-25844200D02*
X234982071Y-25796581D01*
X234982071Y-25796581D02*
X234886833Y-25748962D01*
X234886833Y-25748962D02*
X234791595Y-25748962D01*
X234791595Y-25748962D02*
X234696357Y-25796581D01*
X234696357Y-25796581D02*
X234648738Y-25844200D01*
X234648738Y-25844200D02*
X234601119Y-25939438D01*
X234601119Y-25939438D02*
X234601119Y-26177533D01*
X234601119Y-26177533D02*
X234648738Y-26320390D01*
X234601119Y-26653724D02*
X235601119Y-26891819D01*
X235601119Y-26891819D02*
X234886833Y-27082295D01*
X234886833Y-27082295D02*
X235601119Y-27272771D01*
X235601119Y-27272771D02*
X234601119Y-27510867D01*
X235505880Y-28463247D02*
X235553500Y-28415628D01*
X235553500Y-28415628D02*
X235601119Y-28272771D01*
X235601119Y-28272771D02*
X235601119Y-28177533D01*
X235601119Y-28177533D02*
X235553500Y-28034676D01*
X235553500Y-28034676D02*
X235458261Y-27939438D01*
X235458261Y-27939438D02*
X235363023Y-27891819D01*
X235363023Y-27891819D02*
X235172547Y-27844200D01*
X235172547Y-27844200D02*
X235029690Y-27844200D01*
X235029690Y-27844200D02*
X234839214Y-27891819D01*
X234839214Y-27891819D02*
X234743976Y-27939438D01*
X234743976Y-27939438D02*
X234648738Y-28034676D01*
X234648738Y-28034676D02*
X234601119Y-28177533D01*
X234601119Y-28177533D02*
X234601119Y-28272771D01*
X234601119Y-28272771D02*
X234648738Y-28415628D01*
X234648738Y-28415628D02*
X234696357Y-28463247D01*
X235601119Y-29368009D02*
X235601119Y-28891819D01*
X235601119Y-28891819D02*
X234601119Y-28891819D01*
X235601119Y-29701343D02*
X234601119Y-29701343D01*
X235601119Y-30272771D02*
X235029690Y-29844200D01*
X234601119Y-30272771D02*
X235172547Y-29701343D01*
D10*
X90920714Y-74743469D02*
X91111190Y-74743469D01*
X91111190Y-74743469D02*
X91206428Y-74791088D01*
X91206428Y-74791088D02*
X91254047Y-74838707D01*
X91254047Y-74838707D02*
X91349285Y-74981564D01*
X91349285Y-74981564D02*
X91396904Y-75172040D01*
X91396904Y-75172040D02*
X91396904Y-75552992D01*
X91396904Y-75552992D02*
X91349285Y-75648230D01*
X91349285Y-75648230D02*
X91301666Y-75695850D01*
X91301666Y-75695850D02*
X91206428Y-75743469D01*
X91206428Y-75743469D02*
X91015952Y-75743469D01*
X91015952Y-75743469D02*
X90920714Y-75695850D01*
X90920714Y-75695850D02*
X90873095Y-75648230D01*
X90873095Y-75648230D02*
X90825476Y-75552992D01*
X90825476Y-75552992D02*
X90825476Y-75314897D01*
X90825476Y-75314897D02*
X90873095Y-75219659D01*
X90873095Y-75219659D02*
X90920714Y-75172040D01*
X90920714Y-75172040D02*
X91015952Y-75124421D01*
X91015952Y-75124421D02*
X91206428Y-75124421D01*
X91206428Y-75124421D02*
X91301666Y-75172040D01*
X91301666Y-75172040D02*
X91349285Y-75219659D01*
X91349285Y-75219659D02*
X91396904Y-75314897D01*
X90444523Y-74838707D02*
X90396904Y-74791088D01*
X90396904Y-74791088D02*
X90301666Y-74743469D01*
X90301666Y-74743469D02*
X90063571Y-74743469D01*
X90063571Y-74743469D02*
X89968333Y-74791088D01*
X89968333Y-74791088D02*
X89920714Y-74838707D01*
X89920714Y-74838707D02*
X89873095Y-74933945D01*
X89873095Y-74933945D02*
X89873095Y-75029183D01*
X89873095Y-75029183D02*
X89920714Y-75172040D01*
X89920714Y-75172040D02*
X90492142Y-75743469D01*
X90492142Y-75743469D02*
X89873095Y-75743469D01*
X88968333Y-74743469D02*
X89444523Y-74743469D01*
X89444523Y-74743469D02*
X89492142Y-75219659D01*
X89492142Y-75219659D02*
X89444523Y-75172040D01*
X89444523Y-75172040D02*
X89349285Y-75124421D01*
X89349285Y-75124421D02*
X89111190Y-75124421D01*
X89111190Y-75124421D02*
X89015952Y-75172040D01*
X89015952Y-75172040D02*
X88968333Y-75219659D01*
X88968333Y-75219659D02*
X88920714Y-75314897D01*
X88920714Y-75314897D02*
X88920714Y-75552992D01*
X88920714Y-75552992D02*
X88968333Y-75648230D01*
X88968333Y-75648230D02*
X89015952Y-75695850D01*
X89015952Y-75695850D02*
X89111190Y-75743469D01*
X89111190Y-75743469D02*
X89349285Y-75743469D01*
X89349285Y-75743469D02*
X89444523Y-75695850D01*
X89444523Y-75695850D02*
X89492142Y-75648230D01*
X88492142Y-74743469D02*
X88492142Y-75552992D01*
X88492142Y-75552992D02*
X88444523Y-75648230D01*
X88444523Y-75648230D02*
X88396904Y-75695850D01*
X88396904Y-75695850D02*
X88301666Y-75743469D01*
X88301666Y-75743469D02*
X88111190Y-75743469D01*
X88111190Y-75743469D02*
X88015952Y-75695850D01*
X88015952Y-75695850D02*
X87968333Y-75648230D01*
X87968333Y-75648230D02*
X87920714Y-75552992D01*
X87920714Y-75552992D02*
X87920714Y-74743469D01*
X173521594Y-90582976D02*
X173521594Y-91202023D01*
X173521594Y-91202023D02*
X173902546Y-90868690D01*
X173902546Y-90868690D02*
X173902546Y-91011547D01*
X173902546Y-91011547D02*
X173950165Y-91106785D01*
X173950165Y-91106785D02*
X173997784Y-91154404D01*
X173997784Y-91154404D02*
X174093022Y-91202023D01*
X174093022Y-91202023D02*
X174331117Y-91202023D01*
X174331117Y-91202023D02*
X174426355Y-91154404D01*
X174426355Y-91154404D02*
X174473975Y-91106785D01*
X174473975Y-91106785D02*
X174521594Y-91011547D01*
X174521594Y-91011547D02*
X174521594Y-90725833D01*
X174521594Y-90725833D02*
X174473975Y-90630595D01*
X174473975Y-90630595D02*
X174426355Y-90582976D01*
X173521594Y-91821071D02*
X173521594Y-91916309D01*
X173521594Y-91916309D02*
X173569213Y-92011547D01*
X173569213Y-92011547D02*
X173616832Y-92059166D01*
X173616832Y-92059166D02*
X173712070Y-92106785D01*
X173712070Y-92106785D02*
X173902546Y-92154404D01*
X173902546Y-92154404D02*
X174140641Y-92154404D01*
X174140641Y-92154404D02*
X174331117Y-92106785D01*
X174331117Y-92106785D02*
X174426355Y-92059166D01*
X174426355Y-92059166D02*
X174473975Y-92011547D01*
X174473975Y-92011547D02*
X174521594Y-91916309D01*
X174521594Y-91916309D02*
X174521594Y-91821071D01*
X174521594Y-91821071D02*
X174473975Y-91725833D01*
X174473975Y-91725833D02*
X174426355Y-91678214D01*
X174426355Y-91678214D02*
X174331117Y-91630595D01*
X174331117Y-91630595D02*
X174140641Y-91582976D01*
X174140641Y-91582976D02*
X173902546Y-91582976D01*
X173902546Y-91582976D02*
X173712070Y-91630595D01*
X173712070Y-91630595D02*
X173616832Y-91678214D01*
X173616832Y-91678214D02*
X173569213Y-91725833D01*
X173569213Y-91725833D02*
X173521594Y-91821071D01*
X173521594Y-92773452D02*
X173521594Y-92868690D01*
X173521594Y-92868690D02*
X173569213Y-92963928D01*
X173569213Y-92963928D02*
X173616832Y-93011547D01*
X173616832Y-93011547D02*
X173712070Y-93059166D01*
X173712070Y-93059166D02*
X173902546Y-93106785D01*
X173902546Y-93106785D02*
X174140641Y-93106785D01*
X174140641Y-93106785D02*
X174331117Y-93059166D01*
X174331117Y-93059166D02*
X174426355Y-93011547D01*
X174426355Y-93011547D02*
X174473975Y-92963928D01*
X174473975Y-92963928D02*
X174521594Y-92868690D01*
X174521594Y-92868690D02*
X174521594Y-92773452D01*
X174521594Y-92773452D02*
X174473975Y-92678214D01*
X174473975Y-92678214D02*
X174426355Y-92630595D01*
X174426355Y-92630595D02*
X174331117Y-92582976D01*
X174331117Y-92582976D02*
X174140641Y-92535357D01*
X174140641Y-92535357D02*
X173902546Y-92535357D01*
X173902546Y-92535357D02*
X173712070Y-92582976D01*
X173712070Y-92582976D02*
X173616832Y-92630595D01*
X173616832Y-92630595D02*
X173569213Y-92678214D01*
X173569213Y-92678214D02*
X173521594Y-92773452D01*
X173521594Y-93535357D02*
X174331117Y-93535357D01*
X174331117Y-93535357D02*
X174426355Y-93582976D01*
X174426355Y-93582976D02*
X174473975Y-93630595D01*
X174473975Y-93630595D02*
X174521594Y-93725833D01*
X174521594Y-93725833D02*
X174521594Y-93916309D01*
X174521594Y-93916309D02*
X174473975Y-94011547D01*
X174473975Y-94011547D02*
X174426355Y-94059166D01*
X174426355Y-94059166D02*
X174331117Y-94106785D01*
X174331117Y-94106785D02*
X173521594Y-94106785D01*
X190900714Y-73063525D02*
X191091190Y-73063525D01*
X191091190Y-73063525D02*
X191186428Y-73111144D01*
X191186428Y-73111144D02*
X191234047Y-73158763D01*
X191234047Y-73158763D02*
X191329285Y-73301620D01*
X191329285Y-73301620D02*
X191376904Y-73492096D01*
X191376904Y-73492096D02*
X191376904Y-73873048D01*
X191376904Y-73873048D02*
X191329285Y-73968286D01*
X191329285Y-73968286D02*
X191281666Y-74015906D01*
X191281666Y-74015906D02*
X191186428Y-74063525D01*
X191186428Y-74063525D02*
X190995952Y-74063525D01*
X190995952Y-74063525D02*
X190900714Y-74015906D01*
X190900714Y-74015906D02*
X190853095Y-73968286D01*
X190853095Y-73968286D02*
X190805476Y-73873048D01*
X190805476Y-73873048D02*
X190805476Y-73634953D01*
X190805476Y-73634953D02*
X190853095Y-73539715D01*
X190853095Y-73539715D02*
X190900714Y-73492096D01*
X190900714Y-73492096D02*
X190995952Y-73444477D01*
X190995952Y-73444477D02*
X191186428Y-73444477D01*
X191186428Y-73444477D02*
X191281666Y-73492096D01*
X191281666Y-73492096D02*
X191329285Y-73539715D01*
X191329285Y-73539715D02*
X191376904Y-73634953D01*
X190424523Y-73158763D02*
X190376904Y-73111144D01*
X190376904Y-73111144D02*
X190281666Y-73063525D01*
X190281666Y-73063525D02*
X190043571Y-73063525D01*
X190043571Y-73063525D02*
X189948333Y-73111144D01*
X189948333Y-73111144D02*
X189900714Y-73158763D01*
X189900714Y-73158763D02*
X189853095Y-73254001D01*
X189853095Y-73254001D02*
X189853095Y-73349239D01*
X189853095Y-73349239D02*
X189900714Y-73492096D01*
X189900714Y-73492096D02*
X190472142Y-74063525D01*
X190472142Y-74063525D02*
X189853095Y-74063525D01*
X188948333Y-73063525D02*
X189424523Y-73063525D01*
X189424523Y-73063525D02*
X189472142Y-73539715D01*
X189472142Y-73539715D02*
X189424523Y-73492096D01*
X189424523Y-73492096D02*
X189329285Y-73444477D01*
X189329285Y-73444477D02*
X189091190Y-73444477D01*
X189091190Y-73444477D02*
X188995952Y-73492096D01*
X188995952Y-73492096D02*
X188948333Y-73539715D01*
X188948333Y-73539715D02*
X188900714Y-73634953D01*
X188900714Y-73634953D02*
X188900714Y-73873048D01*
X188900714Y-73873048D02*
X188948333Y-73968286D01*
X188948333Y-73968286D02*
X188995952Y-74015906D01*
X188995952Y-74015906D02*
X189091190Y-74063525D01*
X189091190Y-74063525D02*
X189329285Y-74063525D01*
X189329285Y-74063525D02*
X189424523Y-74015906D01*
X189424523Y-74015906D02*
X189472142Y-73968286D01*
X188472142Y-73063525D02*
X188472142Y-73873048D01*
X188472142Y-73873048D02*
X188424523Y-73968286D01*
X188424523Y-73968286D02*
X188376904Y-74015906D01*
X188376904Y-74015906D02*
X188281666Y-74063525D01*
X188281666Y-74063525D02*
X188091190Y-74063525D01*
X188091190Y-74063525D02*
X187995952Y-74015906D01*
X187995952Y-74015906D02*
X187948333Y-73968286D01*
X187948333Y-73968286D02*
X187900714Y-73873048D01*
X187900714Y-73873048D02*
X187900714Y-73063525D01*
X191424523Y-74673469D02*
X190805476Y-74673469D01*
X190805476Y-74673469D02*
X191138809Y-75054421D01*
X191138809Y-75054421D02*
X190995952Y-75054421D01*
X190995952Y-75054421D02*
X190900714Y-75102040D01*
X190900714Y-75102040D02*
X190853095Y-75149659D01*
X190853095Y-75149659D02*
X190805476Y-75244897D01*
X190805476Y-75244897D02*
X190805476Y-75482992D01*
X190805476Y-75482992D02*
X190853095Y-75578230D01*
X190853095Y-75578230D02*
X190900714Y-75625850D01*
X190900714Y-75625850D02*
X190995952Y-75673469D01*
X190995952Y-75673469D02*
X191281666Y-75673469D01*
X191281666Y-75673469D02*
X191376904Y-75625850D01*
X191376904Y-75625850D02*
X191424523Y-75578230D01*
X190186428Y-74673469D02*
X190091190Y-74673469D01*
X190091190Y-74673469D02*
X189995952Y-74721088D01*
X189995952Y-74721088D02*
X189948333Y-74768707D01*
X189948333Y-74768707D02*
X189900714Y-74863945D01*
X189900714Y-74863945D02*
X189853095Y-75054421D01*
X189853095Y-75054421D02*
X189853095Y-75292516D01*
X189853095Y-75292516D02*
X189900714Y-75482992D01*
X189900714Y-75482992D02*
X189948333Y-75578230D01*
X189948333Y-75578230D02*
X189995952Y-75625850D01*
X189995952Y-75625850D02*
X190091190Y-75673469D01*
X190091190Y-75673469D02*
X190186428Y-75673469D01*
X190186428Y-75673469D02*
X190281666Y-75625850D01*
X190281666Y-75625850D02*
X190329285Y-75578230D01*
X190329285Y-75578230D02*
X190376904Y-75482992D01*
X190376904Y-75482992D02*
X190424523Y-75292516D01*
X190424523Y-75292516D02*
X190424523Y-75054421D01*
X190424523Y-75054421D02*
X190376904Y-74863945D01*
X190376904Y-74863945D02*
X190329285Y-74768707D01*
X190329285Y-74768707D02*
X190281666Y-74721088D01*
X190281666Y-74721088D02*
X190186428Y-74673469D01*
X189234047Y-74673469D02*
X189138809Y-74673469D01*
X189138809Y-74673469D02*
X189043571Y-74721088D01*
X189043571Y-74721088D02*
X188995952Y-74768707D01*
X188995952Y-74768707D02*
X188948333Y-74863945D01*
X188948333Y-74863945D02*
X188900714Y-75054421D01*
X188900714Y-75054421D02*
X188900714Y-75292516D01*
X188900714Y-75292516D02*
X188948333Y-75482992D01*
X188948333Y-75482992D02*
X188995952Y-75578230D01*
X188995952Y-75578230D02*
X189043571Y-75625850D01*
X189043571Y-75625850D02*
X189138809Y-75673469D01*
X189138809Y-75673469D02*
X189234047Y-75673469D01*
X189234047Y-75673469D02*
X189329285Y-75625850D01*
X189329285Y-75625850D02*
X189376904Y-75578230D01*
X189376904Y-75578230D02*
X189424523Y-75482992D01*
X189424523Y-75482992D02*
X189472142Y-75292516D01*
X189472142Y-75292516D02*
X189472142Y-75054421D01*
X189472142Y-75054421D02*
X189424523Y-74863945D01*
X189424523Y-74863945D02*
X189376904Y-74768707D01*
X189376904Y-74768707D02*
X189329285Y-74721088D01*
X189329285Y-74721088D02*
X189234047Y-74673469D01*
X188472142Y-74673469D02*
X188472142Y-75482992D01*
X188472142Y-75482992D02*
X188424523Y-75578230D01*
X188424523Y-75578230D02*
X188376904Y-75625850D01*
X188376904Y-75625850D02*
X188281666Y-75673469D01*
X188281666Y-75673469D02*
X188091190Y-75673469D01*
X188091190Y-75673469D02*
X187995952Y-75625850D01*
X187995952Y-75625850D02*
X187948333Y-75578230D01*
X187948333Y-75578230D02*
X187900714Y-75482992D01*
X187900714Y-75482992D02*
X187900714Y-74673469D01*
X110513707Y-90233720D02*
X110466088Y-90281339D01*
X110466088Y-90281339D02*
X110418469Y-90376577D01*
X110418469Y-90376577D02*
X110418469Y-90614672D01*
X110418469Y-90614672D02*
X110466088Y-90709910D01*
X110466088Y-90709910D02*
X110513707Y-90757529D01*
X110513707Y-90757529D02*
X110608945Y-90805148D01*
X110608945Y-90805148D02*
X110704183Y-90805148D01*
X110704183Y-90805148D02*
X110847040Y-90757529D01*
X110847040Y-90757529D02*
X111418469Y-90186101D01*
X111418469Y-90186101D02*
X111418469Y-90805148D01*
X110418469Y-91138482D02*
X110418469Y-91805148D01*
X110418469Y-91805148D02*
X111418469Y-91376577D01*
X110418469Y-92662291D02*
X110418469Y-92186101D01*
X110418469Y-92186101D02*
X110894659Y-92138482D01*
X110894659Y-92138482D02*
X110847040Y-92186101D01*
X110847040Y-92186101D02*
X110799421Y-92281339D01*
X110799421Y-92281339D02*
X110799421Y-92519434D01*
X110799421Y-92519434D02*
X110847040Y-92614672D01*
X110847040Y-92614672D02*
X110894659Y-92662291D01*
X110894659Y-92662291D02*
X110989897Y-92709910D01*
X110989897Y-92709910D02*
X111227992Y-92709910D01*
X111227992Y-92709910D02*
X111323230Y-92662291D01*
X111323230Y-92662291D02*
X111370850Y-92614672D01*
X111370850Y-92614672D02*
X111418469Y-92519434D01*
X111418469Y-92519434D02*
X111418469Y-92281339D01*
X111418469Y-92281339D02*
X111370850Y-92186101D01*
X111370850Y-92186101D02*
X111323230Y-92138482D01*
X110418469Y-93138482D02*
X111227992Y-93138482D01*
X111227992Y-93138482D02*
X111323230Y-93186101D01*
X111323230Y-93186101D02*
X111370850Y-93233720D01*
X111370850Y-93233720D02*
X111418469Y-93328958D01*
X111418469Y-93328958D02*
X111418469Y-93519434D01*
X111418469Y-93519434D02*
X111370850Y-93614672D01*
X111370850Y-93614672D02*
X111323230Y-93662291D01*
X111323230Y-93662291D02*
X111227992Y-93709910D01*
X111227992Y-93709910D02*
X110418469Y-93709910D01*
X100786904Y-74918707D02*
X100739285Y-74871088D01*
X100739285Y-74871088D02*
X100644047Y-74823469D01*
X100644047Y-74823469D02*
X100405952Y-74823469D01*
X100405952Y-74823469D02*
X100310714Y-74871088D01*
X100310714Y-74871088D02*
X100263095Y-74918707D01*
X100263095Y-74918707D02*
X100215476Y-75013945D01*
X100215476Y-75013945D02*
X100215476Y-75109183D01*
X100215476Y-75109183D02*
X100263095Y-75252040D01*
X100263095Y-75252040D02*
X100834523Y-75823469D01*
X100834523Y-75823469D02*
X100215476Y-75823469D01*
X99882142Y-74823469D02*
X99215476Y-74823469D01*
X99215476Y-74823469D02*
X99644047Y-75823469D01*
X98358333Y-74823469D02*
X98834523Y-74823469D01*
X98834523Y-74823469D02*
X98882142Y-75299659D01*
X98882142Y-75299659D02*
X98834523Y-75252040D01*
X98834523Y-75252040D02*
X98739285Y-75204421D01*
X98739285Y-75204421D02*
X98501190Y-75204421D01*
X98501190Y-75204421D02*
X98405952Y-75252040D01*
X98405952Y-75252040D02*
X98358333Y-75299659D01*
X98358333Y-75299659D02*
X98310714Y-75394897D01*
X98310714Y-75394897D02*
X98310714Y-75632992D01*
X98310714Y-75632992D02*
X98358333Y-75728230D01*
X98358333Y-75728230D02*
X98405952Y-75775850D01*
X98405952Y-75775850D02*
X98501190Y-75823469D01*
X98501190Y-75823469D02*
X98739285Y-75823469D01*
X98739285Y-75823469D02*
X98834523Y-75775850D01*
X98834523Y-75775850D02*
X98882142Y-75728230D01*
X97882142Y-74823469D02*
X97882142Y-75632992D01*
X97882142Y-75632992D02*
X97834523Y-75728230D01*
X97834523Y-75728230D02*
X97786904Y-75775850D01*
X97786904Y-75775850D02*
X97691666Y-75823469D01*
X97691666Y-75823469D02*
X97501190Y-75823469D01*
X97501190Y-75823469D02*
X97405952Y-75775850D01*
X97405952Y-75775850D02*
X97358333Y-75728230D01*
X97358333Y-75728230D02*
X97310714Y-75632992D01*
X97310714Y-75632992D02*
X97310714Y-74823469D01*
D11*
X238668738Y-26320390D02*
X238621119Y-26225152D01*
X238621119Y-26225152D02*
X238621119Y-26082295D01*
X238621119Y-26082295D02*
X238668738Y-25939438D01*
X238668738Y-25939438D02*
X238763976Y-25844200D01*
X238763976Y-25844200D02*
X238859214Y-25796581D01*
X238859214Y-25796581D02*
X239049690Y-25748962D01*
X239049690Y-25748962D02*
X239192547Y-25748962D01*
X239192547Y-25748962D02*
X239383023Y-25796581D01*
X239383023Y-25796581D02*
X239478261Y-25844200D01*
X239478261Y-25844200D02*
X239573500Y-25939438D01*
X239573500Y-25939438D02*
X239621119Y-26082295D01*
X239621119Y-26082295D02*
X239621119Y-26177533D01*
X239621119Y-26177533D02*
X239573500Y-26320390D01*
X239573500Y-26320390D02*
X239525880Y-26368009D01*
X239525880Y-26368009D02*
X239192547Y-26368009D01*
X239192547Y-26368009D02*
X239192547Y-26177533D01*
X239621119Y-26796581D02*
X238621119Y-26796581D01*
X238621119Y-26796581D02*
X239621119Y-27368009D01*
X239621119Y-27368009D02*
X238621119Y-27368009D01*
X239621119Y-27844200D02*
X238621119Y-27844200D01*
X238621119Y-27844200D02*
X238621119Y-28082295D01*
X238621119Y-28082295D02*
X238668738Y-28225152D01*
X238668738Y-28225152D02*
X238763976Y-28320390D01*
X238763976Y-28320390D02*
X238859214Y-28368009D01*
X238859214Y-28368009D02*
X239049690Y-28415628D01*
X239049690Y-28415628D02*
X239192547Y-28415628D01*
X239192547Y-28415628D02*
X239383023Y-28368009D01*
X239383023Y-28368009D02*
X239478261Y-28320390D01*
X239478261Y-28320390D02*
X239573500Y-28225152D01*
X239573500Y-28225152D02*
X239621119Y-28082295D01*
X239621119Y-28082295D02*
X239621119Y-27844200D01*
D10*
X158138707Y-90630595D02*
X158091088Y-90678214D01*
X158091088Y-90678214D02*
X158043469Y-90773452D01*
X158043469Y-90773452D02*
X158043469Y-91011547D01*
X158043469Y-91011547D02*
X158091088Y-91106785D01*
X158091088Y-91106785D02*
X158138707Y-91154404D01*
X158138707Y-91154404D02*
X158233945Y-91202023D01*
X158233945Y-91202023D02*
X158329183Y-91202023D01*
X158329183Y-91202023D02*
X158472040Y-91154404D01*
X158472040Y-91154404D02*
X159043469Y-90582976D01*
X159043469Y-90582976D02*
X159043469Y-91202023D01*
X158138707Y-91582976D02*
X158091088Y-91630595D01*
X158091088Y-91630595D02*
X158043469Y-91725833D01*
X158043469Y-91725833D02*
X158043469Y-91963928D01*
X158043469Y-91963928D02*
X158091088Y-92059166D01*
X158091088Y-92059166D02*
X158138707Y-92106785D01*
X158138707Y-92106785D02*
X158233945Y-92154404D01*
X158233945Y-92154404D02*
X158329183Y-92154404D01*
X158329183Y-92154404D02*
X158472040Y-92106785D01*
X158472040Y-92106785D02*
X159043469Y-91535357D01*
X159043469Y-91535357D02*
X159043469Y-92154404D01*
X158043469Y-93059166D02*
X158043469Y-92582976D01*
X158043469Y-92582976D02*
X158519659Y-92535357D01*
X158519659Y-92535357D02*
X158472040Y-92582976D01*
X158472040Y-92582976D02*
X158424421Y-92678214D01*
X158424421Y-92678214D02*
X158424421Y-92916309D01*
X158424421Y-92916309D02*
X158472040Y-93011547D01*
X158472040Y-93011547D02*
X158519659Y-93059166D01*
X158519659Y-93059166D02*
X158614897Y-93106785D01*
X158614897Y-93106785D02*
X158852992Y-93106785D01*
X158852992Y-93106785D02*
X158948230Y-93059166D01*
X158948230Y-93059166D02*
X158995850Y-93011547D01*
X158995850Y-93011547D02*
X159043469Y-92916309D01*
X159043469Y-92916309D02*
X159043469Y-92678214D01*
X159043469Y-92678214D02*
X158995850Y-92582976D01*
X158995850Y-92582976D02*
X158948230Y-92535357D01*
X158043469Y-93535357D02*
X158852992Y-93535357D01*
X158852992Y-93535357D02*
X158948230Y-93582976D01*
X158948230Y-93582976D02*
X158995850Y-93630595D01*
X158995850Y-93630595D02*
X159043469Y-93725833D01*
X159043469Y-93725833D02*
X159043469Y-93916309D01*
X159043469Y-93916309D02*
X158995850Y-94011547D01*
X158995850Y-94011547D02*
X158948230Y-94059166D01*
X158948230Y-94059166D02*
X158852992Y-94106785D01*
X158852992Y-94106785D02*
X158043469Y-94106785D01*
D11*
X236641119Y-25701343D02*
X236641119Y-26320390D01*
X236641119Y-26320390D02*
X237022071Y-25987057D01*
X237022071Y-25987057D02*
X237022071Y-26129914D01*
X237022071Y-26129914D02*
X237069690Y-26225152D01*
X237069690Y-26225152D02*
X237117309Y-26272771D01*
X237117309Y-26272771D02*
X237212547Y-26320390D01*
X237212547Y-26320390D02*
X237450642Y-26320390D01*
X237450642Y-26320390D02*
X237545880Y-26272771D01*
X237545880Y-26272771D02*
X237593500Y-26225152D01*
X237593500Y-26225152D02*
X237641119Y-26129914D01*
X237641119Y-26129914D02*
X237641119Y-25844200D01*
X237641119Y-25844200D02*
X237593500Y-25748962D01*
X237593500Y-25748962D02*
X237545880Y-25701343D01*
X236641119Y-26606105D02*
X237641119Y-26939438D01*
X237641119Y-26939438D02*
X236641119Y-27272771D01*
X236641119Y-27510867D02*
X236641119Y-28129914D01*
X236641119Y-28129914D02*
X237022071Y-27796581D01*
X237022071Y-27796581D02*
X237022071Y-27939438D01*
X237022071Y-27939438D02*
X237069690Y-28034676D01*
X237069690Y-28034676D02*
X237117309Y-28082295D01*
X237117309Y-28082295D02*
X237212547Y-28129914D01*
X237212547Y-28129914D02*
X237450642Y-28129914D01*
X237450642Y-28129914D02*
X237545880Y-28082295D01*
X237545880Y-28082295D02*
X237593500Y-28034676D01*
X237593500Y-28034676D02*
X237641119Y-27939438D01*
X237641119Y-27939438D02*
X237641119Y-27653724D01*
X237641119Y-27653724D02*
X237593500Y-27558486D01*
X237593500Y-27558486D02*
X237545880Y-27510867D01*
D10*
X134164523Y-74813469D02*
X133545476Y-74813469D01*
X133545476Y-74813469D02*
X133878809Y-75194421D01*
X133878809Y-75194421D02*
X133735952Y-75194421D01*
X133735952Y-75194421D02*
X133640714Y-75242040D01*
X133640714Y-75242040D02*
X133593095Y-75289659D01*
X133593095Y-75289659D02*
X133545476Y-75384897D01*
X133545476Y-75384897D02*
X133545476Y-75622992D01*
X133545476Y-75622992D02*
X133593095Y-75718230D01*
X133593095Y-75718230D02*
X133640714Y-75765850D01*
X133640714Y-75765850D02*
X133735952Y-75813469D01*
X133735952Y-75813469D02*
X134021666Y-75813469D01*
X134021666Y-75813469D02*
X134116904Y-75765850D01*
X134116904Y-75765850D02*
X134164523Y-75718230D01*
X132926428Y-74813469D02*
X132831190Y-74813469D01*
X132831190Y-74813469D02*
X132735952Y-74861088D01*
X132735952Y-74861088D02*
X132688333Y-74908707D01*
X132688333Y-74908707D02*
X132640714Y-75003945D01*
X132640714Y-75003945D02*
X132593095Y-75194421D01*
X132593095Y-75194421D02*
X132593095Y-75432516D01*
X132593095Y-75432516D02*
X132640714Y-75622992D01*
X132640714Y-75622992D02*
X132688333Y-75718230D01*
X132688333Y-75718230D02*
X132735952Y-75765850D01*
X132735952Y-75765850D02*
X132831190Y-75813469D01*
X132831190Y-75813469D02*
X132926428Y-75813469D01*
X132926428Y-75813469D02*
X133021666Y-75765850D01*
X133021666Y-75765850D02*
X133069285Y-75718230D01*
X133069285Y-75718230D02*
X133116904Y-75622992D01*
X133116904Y-75622992D02*
X133164523Y-75432516D01*
X133164523Y-75432516D02*
X133164523Y-75194421D01*
X133164523Y-75194421D02*
X133116904Y-75003945D01*
X133116904Y-75003945D02*
X133069285Y-74908707D01*
X133069285Y-74908707D02*
X133021666Y-74861088D01*
X133021666Y-74861088D02*
X132926428Y-74813469D01*
X131974047Y-74813469D02*
X131878809Y-74813469D01*
X131878809Y-74813469D02*
X131783571Y-74861088D01*
X131783571Y-74861088D02*
X131735952Y-74908707D01*
X131735952Y-74908707D02*
X131688333Y-75003945D01*
X131688333Y-75003945D02*
X131640714Y-75194421D01*
X131640714Y-75194421D02*
X131640714Y-75432516D01*
X131640714Y-75432516D02*
X131688333Y-75622992D01*
X131688333Y-75622992D02*
X131735952Y-75718230D01*
X131735952Y-75718230D02*
X131783571Y-75765850D01*
X131783571Y-75765850D02*
X131878809Y-75813469D01*
X131878809Y-75813469D02*
X131974047Y-75813469D01*
X131974047Y-75813469D02*
X132069285Y-75765850D01*
X132069285Y-75765850D02*
X132116904Y-75718230D01*
X132116904Y-75718230D02*
X132164523Y-75622992D01*
X132164523Y-75622992D02*
X132212142Y-75432516D01*
X132212142Y-75432516D02*
X132212142Y-75194421D01*
X132212142Y-75194421D02*
X132164523Y-75003945D01*
X132164523Y-75003945D02*
X132116904Y-74908707D01*
X132116904Y-74908707D02*
X132069285Y-74861088D01*
X132069285Y-74861088D02*
X131974047Y-74813469D01*
X131212142Y-74813469D02*
X131212142Y-75622992D01*
X131212142Y-75622992D02*
X131164523Y-75718230D01*
X131164523Y-75718230D02*
X131116904Y-75765850D01*
X131116904Y-75765850D02*
X131021666Y-75813469D01*
X131021666Y-75813469D02*
X130831190Y-75813469D01*
X130831190Y-75813469D02*
X130735952Y-75765850D01*
X130735952Y-75765850D02*
X130688333Y-75718230D01*
X130688333Y-75718230D02*
X130640714Y-75622992D01*
X130640714Y-75622992D02*
X130640714Y-74813469D01*
X153294523Y-74813469D02*
X152675476Y-74813469D01*
X152675476Y-74813469D02*
X153008809Y-75194421D01*
X153008809Y-75194421D02*
X152865952Y-75194421D01*
X152865952Y-75194421D02*
X152770714Y-75242040D01*
X152770714Y-75242040D02*
X152723095Y-75289659D01*
X152723095Y-75289659D02*
X152675476Y-75384897D01*
X152675476Y-75384897D02*
X152675476Y-75622992D01*
X152675476Y-75622992D02*
X152723095Y-75718230D01*
X152723095Y-75718230D02*
X152770714Y-75765850D01*
X152770714Y-75765850D02*
X152865952Y-75813469D01*
X152865952Y-75813469D02*
X153151666Y-75813469D01*
X153151666Y-75813469D02*
X153246904Y-75765850D01*
X153246904Y-75765850D02*
X153294523Y-75718230D01*
X152056428Y-74813469D02*
X151961190Y-74813469D01*
X151961190Y-74813469D02*
X151865952Y-74861088D01*
X151865952Y-74861088D02*
X151818333Y-74908707D01*
X151818333Y-74908707D02*
X151770714Y-75003945D01*
X151770714Y-75003945D02*
X151723095Y-75194421D01*
X151723095Y-75194421D02*
X151723095Y-75432516D01*
X151723095Y-75432516D02*
X151770714Y-75622992D01*
X151770714Y-75622992D02*
X151818333Y-75718230D01*
X151818333Y-75718230D02*
X151865952Y-75765850D01*
X151865952Y-75765850D02*
X151961190Y-75813469D01*
X151961190Y-75813469D02*
X152056428Y-75813469D01*
X152056428Y-75813469D02*
X152151666Y-75765850D01*
X152151666Y-75765850D02*
X152199285Y-75718230D01*
X152199285Y-75718230D02*
X152246904Y-75622992D01*
X152246904Y-75622992D02*
X152294523Y-75432516D01*
X152294523Y-75432516D02*
X152294523Y-75194421D01*
X152294523Y-75194421D02*
X152246904Y-75003945D01*
X152246904Y-75003945D02*
X152199285Y-74908707D01*
X152199285Y-74908707D02*
X152151666Y-74861088D01*
X152151666Y-74861088D02*
X152056428Y-74813469D01*
X151104047Y-74813469D02*
X151008809Y-74813469D01*
X151008809Y-74813469D02*
X150913571Y-74861088D01*
X150913571Y-74861088D02*
X150865952Y-74908707D01*
X150865952Y-74908707D02*
X150818333Y-75003945D01*
X150818333Y-75003945D02*
X150770714Y-75194421D01*
X150770714Y-75194421D02*
X150770714Y-75432516D01*
X150770714Y-75432516D02*
X150818333Y-75622992D01*
X150818333Y-75622992D02*
X150865952Y-75718230D01*
X150865952Y-75718230D02*
X150913571Y-75765850D01*
X150913571Y-75765850D02*
X151008809Y-75813469D01*
X151008809Y-75813469D02*
X151104047Y-75813469D01*
X151104047Y-75813469D02*
X151199285Y-75765850D01*
X151199285Y-75765850D02*
X151246904Y-75718230D01*
X151246904Y-75718230D02*
X151294523Y-75622992D01*
X151294523Y-75622992D02*
X151342142Y-75432516D01*
X151342142Y-75432516D02*
X151342142Y-75194421D01*
X151342142Y-75194421D02*
X151294523Y-75003945D01*
X151294523Y-75003945D02*
X151246904Y-74908707D01*
X151246904Y-74908707D02*
X151199285Y-74861088D01*
X151199285Y-74861088D02*
X151104047Y-74813469D01*
X150342142Y-74813469D02*
X150342142Y-75622992D01*
X150342142Y-75622992D02*
X150294523Y-75718230D01*
X150294523Y-75718230D02*
X150246904Y-75765850D01*
X150246904Y-75765850D02*
X150151666Y-75813469D01*
X150151666Y-75813469D02*
X149961190Y-75813469D01*
X149961190Y-75813469D02*
X149865952Y-75765850D01*
X149865952Y-75765850D02*
X149818333Y-75718230D01*
X149818333Y-75718230D02*
X149770714Y-75622992D01*
X149770714Y-75622992D02*
X149770714Y-74813469D01*
D12*
X184952319Y-68556339D02*
X183952319Y-68556339D01*
X183952319Y-68556339D02*
X183952319Y-68794434D01*
X183952319Y-68794434D02*
X183999938Y-68937291D01*
X183999938Y-68937291D02*
X184095176Y-69032529D01*
X184095176Y-69032529D02*
X184190414Y-69080148D01*
X184190414Y-69080148D02*
X184380890Y-69127767D01*
X184380890Y-69127767D02*
X184523747Y-69127767D01*
X184523747Y-69127767D02*
X184714223Y-69080148D01*
X184714223Y-69080148D02*
X184809461Y-69032529D01*
X184809461Y-69032529D02*
X184904700Y-68937291D01*
X184904700Y-68937291D02*
X184952319Y-68794434D01*
X184952319Y-68794434D02*
X184952319Y-68556339D01*
X183952319Y-69461101D02*
X183952319Y-70080148D01*
X183952319Y-70080148D02*
X184333271Y-69746815D01*
X184333271Y-69746815D02*
X184333271Y-69889672D01*
X184333271Y-69889672D02*
X184380890Y-69984910D01*
X184380890Y-69984910D02*
X184428509Y-70032529D01*
X184428509Y-70032529D02*
X184523747Y-70080148D01*
X184523747Y-70080148D02*
X184761842Y-70080148D01*
X184761842Y-70080148D02*
X184857080Y-70032529D01*
X184857080Y-70032529D02*
X184904700Y-69984910D01*
X184904700Y-69984910D02*
X184952319Y-69889672D01*
X184952319Y-69889672D02*
X184952319Y-69603958D01*
X184952319Y-69603958D02*
X184904700Y-69508720D01*
X184904700Y-69508720D02*
X184857080Y-69461101D01*
X184047557Y-70461101D02*
X183999938Y-70508720D01*
X183999938Y-70508720D02*
X183952319Y-70603958D01*
X183952319Y-70603958D02*
X183952319Y-70842053D01*
X183952319Y-70842053D02*
X183999938Y-70937291D01*
X183999938Y-70937291D02*
X184047557Y-70984910D01*
X184047557Y-70984910D02*
X184142795Y-71032529D01*
X184142795Y-71032529D02*
X184238033Y-71032529D01*
X184238033Y-71032529D02*
X184380890Y-70984910D01*
X184380890Y-70984910D02*
X184952319Y-70413482D01*
X184952319Y-70413482D02*
X184952319Y-71032529D01*
X108752319Y-68556339D02*
X107752319Y-68556339D01*
X107752319Y-68556339D02*
X107752319Y-68794434D01*
X107752319Y-68794434D02*
X107799938Y-68937291D01*
X107799938Y-68937291D02*
X107895176Y-69032529D01*
X107895176Y-69032529D02*
X107990414Y-69080148D01*
X107990414Y-69080148D02*
X108180890Y-69127767D01*
X108180890Y-69127767D02*
X108323747Y-69127767D01*
X108323747Y-69127767D02*
X108514223Y-69080148D01*
X108514223Y-69080148D02*
X108609461Y-69032529D01*
X108609461Y-69032529D02*
X108704700Y-68937291D01*
X108704700Y-68937291D02*
X108752319Y-68794434D01*
X108752319Y-68794434D02*
X108752319Y-68556339D01*
X107847557Y-69508720D02*
X107799938Y-69556339D01*
X107799938Y-69556339D02*
X107752319Y-69651577D01*
X107752319Y-69651577D02*
X107752319Y-69889672D01*
X107752319Y-69889672D02*
X107799938Y-69984910D01*
X107799938Y-69984910D02*
X107847557Y-70032529D01*
X107847557Y-70032529D02*
X107942795Y-70080148D01*
X107942795Y-70080148D02*
X108038033Y-70080148D01*
X108038033Y-70080148D02*
X108180890Y-70032529D01*
X108180890Y-70032529D02*
X108752319Y-69461101D01*
X108752319Y-69461101D02*
X108752319Y-70080148D01*
X108180890Y-70651577D02*
X108133271Y-70556339D01*
X108133271Y-70556339D02*
X108085652Y-70508720D01*
X108085652Y-70508720D02*
X107990414Y-70461101D01*
X107990414Y-70461101D02*
X107942795Y-70461101D01*
X107942795Y-70461101D02*
X107847557Y-70508720D01*
X107847557Y-70508720D02*
X107799938Y-70556339D01*
X107799938Y-70556339D02*
X107752319Y-70651577D01*
X107752319Y-70651577D02*
X107752319Y-70842053D01*
X107752319Y-70842053D02*
X107799938Y-70937291D01*
X107799938Y-70937291D02*
X107847557Y-70984910D01*
X107847557Y-70984910D02*
X107942795Y-71032529D01*
X107942795Y-71032529D02*
X107990414Y-71032529D01*
X107990414Y-71032529D02*
X108085652Y-70984910D01*
X108085652Y-70984910D02*
X108133271Y-70937291D01*
X108133271Y-70937291D02*
X108180890Y-70842053D01*
X108180890Y-70842053D02*
X108180890Y-70651577D01*
X108180890Y-70651577D02*
X108228509Y-70556339D01*
X108228509Y-70556339D02*
X108276128Y-70508720D01*
X108276128Y-70508720D02*
X108371366Y-70461101D01*
X108371366Y-70461101D02*
X108561842Y-70461101D01*
X108561842Y-70461101D02*
X108657080Y-70508720D01*
X108657080Y-70508720D02*
X108704700Y-70556339D01*
X108704700Y-70556339D02*
X108752319Y-70651577D01*
X108752319Y-70651577D02*
X108752319Y-70842053D01*
X108752319Y-70842053D02*
X108704700Y-70937291D01*
X108704700Y-70937291D02*
X108657080Y-70984910D01*
X108657080Y-70984910D02*
X108561842Y-71032529D01*
X108561842Y-71032529D02*
X108371366Y-71032529D01*
X108371366Y-71032529D02*
X108276128Y-70984910D01*
X108276128Y-70984910D02*
X108228509Y-70937291D01*
X108228509Y-70937291D02*
X108180890Y-70842053D01*
X223052319Y-68556339D02*
X222052319Y-68556339D01*
X222052319Y-68556339D02*
X222052319Y-68794434D01*
X222052319Y-68794434D02*
X222099938Y-68937291D01*
X222099938Y-68937291D02*
X222195176Y-69032529D01*
X222195176Y-69032529D02*
X222290414Y-69080148D01*
X222290414Y-69080148D02*
X222480890Y-69127767D01*
X222480890Y-69127767D02*
X222623747Y-69127767D01*
X222623747Y-69127767D02*
X222814223Y-69080148D01*
X222814223Y-69080148D02*
X222909461Y-69032529D01*
X222909461Y-69032529D02*
X223004700Y-68937291D01*
X223004700Y-68937291D02*
X223052319Y-68794434D01*
X223052319Y-68794434D02*
X223052319Y-68556339D01*
X222052319Y-69461101D02*
X222052319Y-70080148D01*
X222052319Y-70080148D02*
X222433271Y-69746815D01*
X222433271Y-69746815D02*
X222433271Y-69889672D01*
X222433271Y-69889672D02*
X222480890Y-69984910D01*
X222480890Y-69984910D02*
X222528509Y-70032529D01*
X222528509Y-70032529D02*
X222623747Y-70080148D01*
X222623747Y-70080148D02*
X222861842Y-70080148D01*
X222861842Y-70080148D02*
X222957080Y-70032529D01*
X222957080Y-70032529D02*
X223004700Y-69984910D01*
X223004700Y-69984910D02*
X223052319Y-69889672D01*
X223052319Y-69889672D02*
X223052319Y-69603958D01*
X223052319Y-69603958D02*
X223004700Y-69508720D01*
X223004700Y-69508720D02*
X222957080Y-69461101D01*
X222385652Y-70937291D02*
X223052319Y-70937291D01*
X222004700Y-70699196D02*
X222718985Y-70461101D01*
X222718985Y-70461101D02*
X222718985Y-71080148D01*
X118277319Y-49506339D02*
X117277319Y-49506339D01*
X117277319Y-49506339D02*
X117277319Y-49744434D01*
X117277319Y-49744434D02*
X117324938Y-49887291D01*
X117324938Y-49887291D02*
X117420176Y-49982529D01*
X117420176Y-49982529D02*
X117515414Y-50030148D01*
X117515414Y-50030148D02*
X117705890Y-50077767D01*
X117705890Y-50077767D02*
X117848747Y-50077767D01*
X117848747Y-50077767D02*
X118039223Y-50030148D01*
X118039223Y-50030148D02*
X118134461Y-49982529D01*
X118134461Y-49982529D02*
X118229700Y-49887291D01*
X118229700Y-49887291D02*
X118277319Y-49744434D01*
X118277319Y-49744434D02*
X118277319Y-49506339D01*
X118277319Y-51030148D02*
X118277319Y-50458720D01*
X118277319Y-50744434D02*
X117277319Y-50744434D01*
X117277319Y-50744434D02*
X117420176Y-50649196D01*
X117420176Y-50649196D02*
X117515414Y-50553958D01*
X117515414Y-50553958D02*
X117563033Y-50458720D01*
X117277319Y-51363482D02*
X117277319Y-52030148D01*
X117277319Y-52030148D02*
X118277319Y-51601577D01*
X194477319Y-49506339D02*
X193477319Y-49506339D01*
X193477319Y-49506339D02*
X193477319Y-49744434D01*
X193477319Y-49744434D02*
X193524938Y-49887291D01*
X193524938Y-49887291D02*
X193620176Y-49982529D01*
X193620176Y-49982529D02*
X193715414Y-50030148D01*
X193715414Y-50030148D02*
X193905890Y-50077767D01*
X193905890Y-50077767D02*
X194048747Y-50077767D01*
X194048747Y-50077767D02*
X194239223Y-50030148D01*
X194239223Y-50030148D02*
X194334461Y-49982529D01*
X194334461Y-49982529D02*
X194429700Y-49887291D01*
X194429700Y-49887291D02*
X194477319Y-49744434D01*
X194477319Y-49744434D02*
X194477319Y-49506339D01*
X193572557Y-50458720D02*
X193524938Y-50506339D01*
X193524938Y-50506339D02*
X193477319Y-50601577D01*
X193477319Y-50601577D02*
X193477319Y-50839672D01*
X193477319Y-50839672D02*
X193524938Y-50934910D01*
X193524938Y-50934910D02*
X193572557Y-50982529D01*
X193572557Y-50982529D02*
X193667795Y-51030148D01*
X193667795Y-51030148D02*
X193763033Y-51030148D01*
X193763033Y-51030148D02*
X193905890Y-50982529D01*
X193905890Y-50982529D02*
X194477319Y-50411101D01*
X194477319Y-50411101D02*
X194477319Y-51030148D01*
X194477319Y-51982529D02*
X194477319Y-51411101D01*
X194477319Y-51696815D02*
X193477319Y-51696815D01*
X193477319Y-51696815D02*
X193620176Y-51601577D01*
X193620176Y-51601577D02*
X193715414Y-51506339D01*
X193715414Y-51506339D02*
X193763033Y-51411101D01*
X242102319Y-87606339D02*
X241102319Y-87606339D01*
X241102319Y-87606339D02*
X241102319Y-87844434D01*
X241102319Y-87844434D02*
X241149938Y-87987291D01*
X241149938Y-87987291D02*
X241245176Y-88082529D01*
X241245176Y-88082529D02*
X241340414Y-88130148D01*
X241340414Y-88130148D02*
X241530890Y-88177767D01*
X241530890Y-88177767D02*
X241673747Y-88177767D01*
X241673747Y-88177767D02*
X241864223Y-88130148D01*
X241864223Y-88130148D02*
X241959461Y-88082529D01*
X241959461Y-88082529D02*
X242054700Y-87987291D01*
X242054700Y-87987291D02*
X242102319Y-87844434D01*
X242102319Y-87844434D02*
X242102319Y-87606339D01*
X241435652Y-89034910D02*
X242102319Y-89034910D01*
X241054700Y-88796815D02*
X241768985Y-88558720D01*
X241768985Y-88558720D02*
X241768985Y-89177767D01*
X241197557Y-89511101D02*
X241149938Y-89558720D01*
X241149938Y-89558720D02*
X241102319Y-89653958D01*
X241102319Y-89653958D02*
X241102319Y-89892053D01*
X241102319Y-89892053D02*
X241149938Y-89987291D01*
X241149938Y-89987291D02*
X241197557Y-90034910D01*
X241197557Y-90034910D02*
X241292795Y-90082529D01*
X241292795Y-90082529D02*
X241388033Y-90082529D01*
X241388033Y-90082529D02*
X241530890Y-90034910D01*
X241530890Y-90034910D02*
X242102319Y-89463482D01*
X242102319Y-89463482D02*
X242102319Y-90082529D01*
X127802319Y-68556339D02*
X126802319Y-68556339D01*
X126802319Y-68556339D02*
X126802319Y-68794434D01*
X126802319Y-68794434D02*
X126849938Y-68937291D01*
X126849938Y-68937291D02*
X126945176Y-69032529D01*
X126945176Y-69032529D02*
X127040414Y-69080148D01*
X127040414Y-69080148D02*
X127230890Y-69127767D01*
X127230890Y-69127767D02*
X127373747Y-69127767D01*
X127373747Y-69127767D02*
X127564223Y-69080148D01*
X127564223Y-69080148D02*
X127659461Y-69032529D01*
X127659461Y-69032529D02*
X127754700Y-68937291D01*
X127754700Y-68937291D02*
X127802319Y-68794434D01*
X127802319Y-68794434D02*
X127802319Y-68556339D01*
X126897557Y-69508720D02*
X126849938Y-69556339D01*
X126849938Y-69556339D02*
X126802319Y-69651577D01*
X126802319Y-69651577D02*
X126802319Y-69889672D01*
X126802319Y-69889672D02*
X126849938Y-69984910D01*
X126849938Y-69984910D02*
X126897557Y-70032529D01*
X126897557Y-70032529D02*
X126992795Y-70080148D01*
X126992795Y-70080148D02*
X127088033Y-70080148D01*
X127088033Y-70080148D02*
X127230890Y-70032529D01*
X127230890Y-70032529D02*
X127802319Y-69461101D01*
X127802319Y-69461101D02*
X127802319Y-70080148D01*
X127802319Y-70556339D02*
X127802319Y-70746815D01*
X127802319Y-70746815D02*
X127754700Y-70842053D01*
X127754700Y-70842053D02*
X127707080Y-70889672D01*
X127707080Y-70889672D02*
X127564223Y-70984910D01*
X127564223Y-70984910D02*
X127373747Y-71032529D01*
X127373747Y-71032529D02*
X126992795Y-71032529D01*
X126992795Y-71032529D02*
X126897557Y-70984910D01*
X126897557Y-70984910D02*
X126849938Y-70937291D01*
X126849938Y-70937291D02*
X126802319Y-70842053D01*
X126802319Y-70842053D02*
X126802319Y-70651577D01*
X126802319Y-70651577D02*
X126849938Y-70556339D01*
X126849938Y-70556339D02*
X126897557Y-70508720D01*
X126897557Y-70508720D02*
X126992795Y-70461101D01*
X126992795Y-70461101D02*
X127230890Y-70461101D01*
X127230890Y-70461101D02*
X127326128Y-70508720D01*
X127326128Y-70508720D02*
X127373747Y-70556339D01*
X127373747Y-70556339D02*
X127421366Y-70651577D01*
X127421366Y-70651577D02*
X127421366Y-70842053D01*
X127421366Y-70842053D02*
X127373747Y-70937291D01*
X127373747Y-70937291D02*
X127326128Y-70984910D01*
X127326128Y-70984910D02*
X127230890Y-71032529D01*
X89702319Y-68556339D02*
X88702319Y-68556339D01*
X88702319Y-68556339D02*
X88702319Y-68794434D01*
X88702319Y-68794434D02*
X88749938Y-68937291D01*
X88749938Y-68937291D02*
X88845176Y-69032529D01*
X88845176Y-69032529D02*
X88940414Y-69080148D01*
X88940414Y-69080148D02*
X89130890Y-69127767D01*
X89130890Y-69127767D02*
X89273747Y-69127767D01*
X89273747Y-69127767D02*
X89464223Y-69080148D01*
X89464223Y-69080148D02*
X89559461Y-69032529D01*
X89559461Y-69032529D02*
X89654700Y-68937291D01*
X89654700Y-68937291D02*
X89702319Y-68794434D01*
X89702319Y-68794434D02*
X89702319Y-68556339D01*
X88797557Y-69508720D02*
X88749938Y-69556339D01*
X88749938Y-69556339D02*
X88702319Y-69651577D01*
X88702319Y-69651577D02*
X88702319Y-69889672D01*
X88702319Y-69889672D02*
X88749938Y-69984910D01*
X88749938Y-69984910D02*
X88797557Y-70032529D01*
X88797557Y-70032529D02*
X88892795Y-70080148D01*
X88892795Y-70080148D02*
X88988033Y-70080148D01*
X88988033Y-70080148D02*
X89130890Y-70032529D01*
X89130890Y-70032529D02*
X89702319Y-69461101D01*
X89702319Y-69461101D02*
X89702319Y-70080148D01*
X88702319Y-70413482D02*
X88702319Y-71080148D01*
X88702319Y-71080148D02*
X89702319Y-70651577D01*
X204002319Y-68556339D02*
X203002319Y-68556339D01*
X203002319Y-68556339D02*
X203002319Y-68794434D01*
X203002319Y-68794434D02*
X203049938Y-68937291D01*
X203049938Y-68937291D02*
X203145176Y-69032529D01*
X203145176Y-69032529D02*
X203240414Y-69080148D01*
X203240414Y-69080148D02*
X203430890Y-69127767D01*
X203430890Y-69127767D02*
X203573747Y-69127767D01*
X203573747Y-69127767D02*
X203764223Y-69080148D01*
X203764223Y-69080148D02*
X203859461Y-69032529D01*
X203859461Y-69032529D02*
X203954700Y-68937291D01*
X203954700Y-68937291D02*
X204002319Y-68794434D01*
X204002319Y-68794434D02*
X204002319Y-68556339D01*
X203002319Y-69461101D02*
X203002319Y-70080148D01*
X203002319Y-70080148D02*
X203383271Y-69746815D01*
X203383271Y-69746815D02*
X203383271Y-69889672D01*
X203383271Y-69889672D02*
X203430890Y-69984910D01*
X203430890Y-69984910D02*
X203478509Y-70032529D01*
X203478509Y-70032529D02*
X203573747Y-70080148D01*
X203573747Y-70080148D02*
X203811842Y-70080148D01*
X203811842Y-70080148D02*
X203907080Y-70032529D01*
X203907080Y-70032529D02*
X203954700Y-69984910D01*
X203954700Y-69984910D02*
X204002319Y-69889672D01*
X204002319Y-69889672D02*
X204002319Y-69603958D01*
X204002319Y-69603958D02*
X203954700Y-69508720D01*
X203954700Y-69508720D02*
X203907080Y-69461101D01*
X203002319Y-70413482D02*
X203002319Y-71032529D01*
X203002319Y-71032529D02*
X203383271Y-70699196D01*
X203383271Y-70699196D02*
X203383271Y-70842053D01*
X203383271Y-70842053D02*
X203430890Y-70937291D01*
X203430890Y-70937291D02*
X203478509Y-70984910D01*
X203478509Y-70984910D02*
X203573747Y-71032529D01*
X203573747Y-71032529D02*
X203811842Y-71032529D01*
X203811842Y-71032529D02*
X203907080Y-70984910D01*
X203907080Y-70984910D02*
X203954700Y-70937291D01*
X203954700Y-70937291D02*
X204002319Y-70842053D01*
X204002319Y-70842053D02*
X204002319Y-70556339D01*
X204002319Y-70556339D02*
X203954700Y-70461101D01*
X203954700Y-70461101D02*
X203907080Y-70413482D01*
X137327319Y-49506339D02*
X136327319Y-49506339D01*
X136327319Y-49506339D02*
X136327319Y-49744434D01*
X136327319Y-49744434D02*
X136374938Y-49887291D01*
X136374938Y-49887291D02*
X136470176Y-49982529D01*
X136470176Y-49982529D02*
X136565414Y-50030148D01*
X136565414Y-50030148D02*
X136755890Y-50077767D01*
X136755890Y-50077767D02*
X136898747Y-50077767D01*
X136898747Y-50077767D02*
X137089223Y-50030148D01*
X137089223Y-50030148D02*
X137184461Y-49982529D01*
X137184461Y-49982529D02*
X137279700Y-49887291D01*
X137279700Y-49887291D02*
X137327319Y-49744434D01*
X137327319Y-49744434D02*
X137327319Y-49506339D01*
X137327319Y-51030148D02*
X137327319Y-50458720D01*
X137327319Y-50744434D02*
X136327319Y-50744434D01*
X136327319Y-50744434D02*
X136470176Y-50649196D01*
X136470176Y-50649196D02*
X136565414Y-50553958D01*
X136565414Y-50553958D02*
X136613033Y-50458720D01*
X136755890Y-51601577D02*
X136708271Y-51506339D01*
X136708271Y-51506339D02*
X136660652Y-51458720D01*
X136660652Y-51458720D02*
X136565414Y-51411101D01*
X136565414Y-51411101D02*
X136517795Y-51411101D01*
X136517795Y-51411101D02*
X136422557Y-51458720D01*
X136422557Y-51458720D02*
X136374938Y-51506339D01*
X136374938Y-51506339D02*
X136327319Y-51601577D01*
X136327319Y-51601577D02*
X136327319Y-51792053D01*
X136327319Y-51792053D02*
X136374938Y-51887291D01*
X136374938Y-51887291D02*
X136422557Y-51934910D01*
X136422557Y-51934910D02*
X136517795Y-51982529D01*
X136517795Y-51982529D02*
X136565414Y-51982529D01*
X136565414Y-51982529D02*
X136660652Y-51934910D01*
X136660652Y-51934910D02*
X136708271Y-51887291D01*
X136708271Y-51887291D02*
X136755890Y-51792053D01*
X136755890Y-51792053D02*
X136755890Y-51601577D01*
X136755890Y-51601577D02*
X136803509Y-51506339D01*
X136803509Y-51506339D02*
X136851128Y-51458720D01*
X136851128Y-51458720D02*
X136946366Y-51411101D01*
X136946366Y-51411101D02*
X137136842Y-51411101D01*
X137136842Y-51411101D02*
X137232080Y-51458720D01*
X137232080Y-51458720D02*
X137279700Y-51506339D01*
X137279700Y-51506339D02*
X137327319Y-51601577D01*
X137327319Y-51601577D02*
X137327319Y-51792053D01*
X137327319Y-51792053D02*
X137279700Y-51887291D01*
X137279700Y-51887291D02*
X137232080Y-51934910D01*
X137232080Y-51934910D02*
X137136842Y-51982529D01*
X137136842Y-51982529D02*
X136946366Y-51982529D01*
X136946366Y-51982529D02*
X136851128Y-51934910D01*
X136851128Y-51934910D02*
X136803509Y-51887291D01*
X136803509Y-51887291D02*
X136755890Y-51792053D01*
X219488955Y-40299583D02*
X219536575Y-40251964D01*
X219536575Y-40251964D02*
X219584194Y-40109107D01*
X219584194Y-40109107D02*
X219584194Y-40013869D01*
X219584194Y-40013869D02*
X219536575Y-39871012D01*
X219536575Y-39871012D02*
X219441336Y-39775774D01*
X219441336Y-39775774D02*
X219346098Y-39728155D01*
X219346098Y-39728155D02*
X219155622Y-39680536D01*
X219155622Y-39680536D02*
X219012765Y-39680536D01*
X219012765Y-39680536D02*
X218822289Y-39728155D01*
X218822289Y-39728155D02*
X218727051Y-39775774D01*
X218727051Y-39775774D02*
X218631813Y-39871012D01*
X218631813Y-39871012D02*
X218584194Y-40013869D01*
X218584194Y-40013869D02*
X218584194Y-40109107D01*
X218584194Y-40109107D02*
X218631813Y-40251964D01*
X218631813Y-40251964D02*
X218679432Y-40299583D01*
X218584194Y-41156726D02*
X218584194Y-40966250D01*
X218584194Y-40966250D02*
X218631813Y-40871012D01*
X218631813Y-40871012D02*
X218679432Y-40823393D01*
X218679432Y-40823393D02*
X218822289Y-40728155D01*
X218822289Y-40728155D02*
X219012765Y-40680536D01*
X219012765Y-40680536D02*
X219393717Y-40680536D01*
X219393717Y-40680536D02*
X219488955Y-40728155D01*
X219488955Y-40728155D02*
X219536575Y-40775774D01*
X219536575Y-40775774D02*
X219584194Y-40871012D01*
X219584194Y-40871012D02*
X219584194Y-41061488D01*
X219584194Y-41061488D02*
X219536575Y-41156726D01*
X219536575Y-41156726D02*
X219488955Y-41204345D01*
X219488955Y-41204345D02*
X219393717Y-41251964D01*
X219393717Y-41251964D02*
X219155622Y-41251964D01*
X219155622Y-41251964D02*
X219060384Y-41204345D01*
X219060384Y-41204345D02*
X219012765Y-41156726D01*
X219012765Y-41156726D02*
X218965146Y-41061488D01*
X218965146Y-41061488D02*
X218965146Y-40871012D01*
X218965146Y-40871012D02*
X219012765Y-40775774D01*
X219012765Y-40775774D02*
X219060384Y-40728155D01*
X219060384Y-40728155D02*
X219155622Y-40680536D01*
X257852200Y-36042917D02*
X257899819Y-36185774D01*
X257899819Y-36185774D02*
X257899819Y-36423869D01*
X257899819Y-36423869D02*
X257852200Y-36519107D01*
X257852200Y-36519107D02*
X257804580Y-36566726D01*
X257804580Y-36566726D02*
X257709342Y-36614345D01*
X257709342Y-36614345D02*
X257614104Y-36614345D01*
X257614104Y-36614345D02*
X257518866Y-36566726D01*
X257518866Y-36566726D02*
X257471247Y-36519107D01*
X257471247Y-36519107D02*
X257423628Y-36423869D01*
X257423628Y-36423869D02*
X257376009Y-36233393D01*
X257376009Y-36233393D02*
X257328390Y-36138155D01*
X257328390Y-36138155D02*
X257280771Y-36090536D01*
X257280771Y-36090536D02*
X257185533Y-36042917D01*
X257185533Y-36042917D02*
X257090295Y-36042917D01*
X257090295Y-36042917D02*
X256995057Y-36090536D01*
X256995057Y-36090536D02*
X256947438Y-36138155D01*
X256947438Y-36138155D02*
X256899819Y-36233393D01*
X256899819Y-36233393D02*
X256899819Y-36471488D01*
X256899819Y-36471488D02*
X256947438Y-36614345D01*
X256899819Y-36947679D02*
X257899819Y-37185774D01*
X257899819Y-37185774D02*
X257185533Y-37376250D01*
X257185533Y-37376250D02*
X257899819Y-37566726D01*
X257899819Y-37566726D02*
X256899819Y-37804822D01*
X257899819Y-38709583D02*
X257899819Y-38138155D01*
X257899819Y-38423869D02*
X256899819Y-38423869D01*
X256899819Y-38423869D02*
X257042676Y-38328631D01*
X257042676Y-38328631D02*
X257137914Y-38233393D01*
X257137914Y-38233393D02*
X257185533Y-38138155D01*
X232577319Y-49506339D02*
X231577319Y-49506339D01*
X231577319Y-49506339D02*
X231577319Y-49744434D01*
X231577319Y-49744434D02*
X231624938Y-49887291D01*
X231624938Y-49887291D02*
X231720176Y-49982529D01*
X231720176Y-49982529D02*
X231815414Y-50030148D01*
X231815414Y-50030148D02*
X232005890Y-50077767D01*
X232005890Y-50077767D02*
X232148747Y-50077767D01*
X232148747Y-50077767D02*
X232339223Y-50030148D01*
X232339223Y-50030148D02*
X232434461Y-49982529D01*
X232434461Y-49982529D02*
X232529700Y-49887291D01*
X232529700Y-49887291D02*
X232577319Y-49744434D01*
X232577319Y-49744434D02*
X232577319Y-49506339D01*
X231672557Y-50458720D02*
X231624938Y-50506339D01*
X231624938Y-50506339D02*
X231577319Y-50601577D01*
X231577319Y-50601577D02*
X231577319Y-50839672D01*
X231577319Y-50839672D02*
X231624938Y-50934910D01*
X231624938Y-50934910D02*
X231672557Y-50982529D01*
X231672557Y-50982529D02*
X231767795Y-51030148D01*
X231767795Y-51030148D02*
X231863033Y-51030148D01*
X231863033Y-51030148D02*
X232005890Y-50982529D01*
X232005890Y-50982529D02*
X232577319Y-50411101D01*
X232577319Y-50411101D02*
X232577319Y-51030148D01*
X231577319Y-51363482D02*
X231577319Y-51982529D01*
X231577319Y-51982529D02*
X231958271Y-51649196D01*
X231958271Y-51649196D02*
X231958271Y-51792053D01*
X231958271Y-51792053D02*
X232005890Y-51887291D01*
X232005890Y-51887291D02*
X232053509Y-51934910D01*
X232053509Y-51934910D02*
X232148747Y-51982529D01*
X232148747Y-51982529D02*
X232386842Y-51982529D01*
X232386842Y-51982529D02*
X232482080Y-51934910D01*
X232482080Y-51934910D02*
X232529700Y-51887291D01*
X232529700Y-51887291D02*
X232577319Y-51792053D01*
X232577319Y-51792053D02*
X232577319Y-51506339D01*
X232577319Y-51506339D02*
X232529700Y-51411101D01*
X232529700Y-51411101D02*
X232482080Y-51363482D01*
X170664819Y-30932530D02*
X169664819Y-30932530D01*
X169664819Y-30932530D02*
X169664819Y-31170625D01*
X169664819Y-31170625D02*
X169712438Y-31313482D01*
X169712438Y-31313482D02*
X169807676Y-31408720D01*
X169807676Y-31408720D02*
X169902914Y-31456339D01*
X169902914Y-31456339D02*
X170093390Y-31503958D01*
X170093390Y-31503958D02*
X170236247Y-31503958D01*
X170236247Y-31503958D02*
X170426723Y-31456339D01*
X170426723Y-31456339D02*
X170521961Y-31408720D01*
X170521961Y-31408720D02*
X170617200Y-31313482D01*
X170617200Y-31313482D02*
X170664819Y-31170625D01*
X170664819Y-31170625D02*
X170664819Y-30932530D01*
X170093390Y-32075387D02*
X170045771Y-31980149D01*
X170045771Y-31980149D02*
X169998152Y-31932530D01*
X169998152Y-31932530D02*
X169902914Y-31884911D01*
X169902914Y-31884911D02*
X169855295Y-31884911D01*
X169855295Y-31884911D02*
X169760057Y-31932530D01*
X169760057Y-31932530D02*
X169712438Y-31980149D01*
X169712438Y-31980149D02*
X169664819Y-32075387D01*
X169664819Y-32075387D02*
X169664819Y-32265863D01*
X169664819Y-32265863D02*
X169712438Y-32361101D01*
X169712438Y-32361101D02*
X169760057Y-32408720D01*
X169760057Y-32408720D02*
X169855295Y-32456339D01*
X169855295Y-32456339D02*
X169902914Y-32456339D01*
X169902914Y-32456339D02*
X169998152Y-32408720D01*
X169998152Y-32408720D02*
X170045771Y-32361101D01*
X170045771Y-32361101D02*
X170093390Y-32265863D01*
X170093390Y-32265863D02*
X170093390Y-32075387D01*
X170093390Y-32075387D02*
X170141009Y-31980149D01*
X170141009Y-31980149D02*
X170188628Y-31932530D01*
X170188628Y-31932530D02*
X170283866Y-31884911D01*
X170283866Y-31884911D02*
X170474342Y-31884911D01*
X170474342Y-31884911D02*
X170569580Y-31932530D01*
X170569580Y-31932530D02*
X170617200Y-31980149D01*
X170617200Y-31980149D02*
X170664819Y-32075387D01*
X170664819Y-32075387D02*
X170664819Y-32265863D01*
X170664819Y-32265863D02*
X170617200Y-32361101D01*
X170617200Y-32361101D02*
X170569580Y-32408720D01*
X170569580Y-32408720D02*
X170474342Y-32456339D01*
X170474342Y-32456339D02*
X170283866Y-32456339D01*
X170283866Y-32456339D02*
X170188628Y-32408720D01*
X170188628Y-32408720D02*
X170141009Y-32361101D01*
X170141009Y-32361101D02*
X170093390Y-32265863D01*
X175427319Y-49506339D02*
X174427319Y-49506339D01*
X174427319Y-49506339D02*
X174427319Y-49744434D01*
X174427319Y-49744434D02*
X174474938Y-49887291D01*
X174474938Y-49887291D02*
X174570176Y-49982529D01*
X174570176Y-49982529D02*
X174665414Y-50030148D01*
X174665414Y-50030148D02*
X174855890Y-50077767D01*
X174855890Y-50077767D02*
X174998747Y-50077767D01*
X174998747Y-50077767D02*
X175189223Y-50030148D01*
X175189223Y-50030148D02*
X175284461Y-49982529D01*
X175284461Y-49982529D02*
X175379700Y-49887291D01*
X175379700Y-49887291D02*
X175427319Y-49744434D01*
X175427319Y-49744434D02*
X175427319Y-49506339D01*
X174522557Y-50458720D02*
X174474938Y-50506339D01*
X174474938Y-50506339D02*
X174427319Y-50601577D01*
X174427319Y-50601577D02*
X174427319Y-50839672D01*
X174427319Y-50839672D02*
X174474938Y-50934910D01*
X174474938Y-50934910D02*
X174522557Y-50982529D01*
X174522557Y-50982529D02*
X174617795Y-51030148D01*
X174617795Y-51030148D02*
X174713033Y-51030148D01*
X174713033Y-51030148D02*
X174855890Y-50982529D01*
X174855890Y-50982529D02*
X175427319Y-50411101D01*
X175427319Y-50411101D02*
X175427319Y-51030148D01*
X174427319Y-51649196D02*
X174427319Y-51744434D01*
X174427319Y-51744434D02*
X174474938Y-51839672D01*
X174474938Y-51839672D02*
X174522557Y-51887291D01*
X174522557Y-51887291D02*
X174617795Y-51934910D01*
X174617795Y-51934910D02*
X174808271Y-51982529D01*
X174808271Y-51982529D02*
X175046366Y-51982529D01*
X175046366Y-51982529D02*
X175236842Y-51934910D01*
X175236842Y-51934910D02*
X175332080Y-51887291D01*
X175332080Y-51887291D02*
X175379700Y-51839672D01*
X175379700Y-51839672D02*
X175427319Y-51744434D01*
X175427319Y-51744434D02*
X175427319Y-51649196D01*
X175427319Y-51649196D02*
X175379700Y-51553958D01*
X175379700Y-51553958D02*
X175332080Y-51506339D01*
X175332080Y-51506339D02*
X175236842Y-51458720D01*
X175236842Y-51458720D02*
X175046366Y-51411101D01*
X175046366Y-51411101D02*
X174808271Y-51411101D01*
X174808271Y-51411101D02*
X174617795Y-51458720D01*
X174617795Y-51458720D02*
X174522557Y-51506339D01*
X174522557Y-51506339D02*
X174474938Y-51553958D01*
X174474938Y-51553958D02*
X174427319Y-51649196D01*
X144471069Y-87606339D02*
X143471069Y-87606339D01*
X143471069Y-87606339D02*
X143471069Y-87844434D01*
X143471069Y-87844434D02*
X143518688Y-87987291D01*
X143518688Y-87987291D02*
X143613926Y-88082529D01*
X143613926Y-88082529D02*
X143709164Y-88130148D01*
X143709164Y-88130148D02*
X143899640Y-88177767D01*
X143899640Y-88177767D02*
X144042497Y-88177767D01*
X144042497Y-88177767D02*
X144232973Y-88130148D01*
X144232973Y-88130148D02*
X144328211Y-88082529D01*
X144328211Y-88082529D02*
X144423450Y-87987291D01*
X144423450Y-87987291D02*
X144471069Y-87844434D01*
X144471069Y-87844434D02*
X144471069Y-87606339D01*
X143804402Y-89034910D02*
X144471069Y-89034910D01*
X143423450Y-88796815D02*
X144137735Y-88558720D01*
X144137735Y-88558720D02*
X144137735Y-89177767D01*
X143471069Y-89749196D02*
X143471069Y-89844434D01*
X143471069Y-89844434D02*
X143518688Y-89939672D01*
X143518688Y-89939672D02*
X143566307Y-89987291D01*
X143566307Y-89987291D02*
X143661545Y-90034910D01*
X143661545Y-90034910D02*
X143852021Y-90082529D01*
X143852021Y-90082529D02*
X144090116Y-90082529D01*
X144090116Y-90082529D02*
X144280592Y-90034910D01*
X144280592Y-90034910D02*
X144375830Y-89987291D01*
X144375830Y-89987291D02*
X144423450Y-89939672D01*
X144423450Y-89939672D02*
X144471069Y-89844434D01*
X144471069Y-89844434D02*
X144471069Y-89749196D01*
X144471069Y-89749196D02*
X144423450Y-89653958D01*
X144423450Y-89653958D02*
X144375830Y-89606339D01*
X144375830Y-89606339D02*
X144280592Y-89558720D01*
X144280592Y-89558720D02*
X144090116Y-89511101D01*
X144090116Y-89511101D02*
X143852021Y-89511101D01*
X143852021Y-89511101D02*
X143661545Y-89558720D01*
X143661545Y-89558720D02*
X143566307Y-89606339D01*
X143566307Y-89606339D02*
X143518688Y-89653958D01*
X143518688Y-89653958D02*
X143471069Y-89749196D01*
X146852319Y-68556339D02*
X145852319Y-68556339D01*
X145852319Y-68556339D02*
X145852319Y-68794434D01*
X145852319Y-68794434D02*
X145899938Y-68937291D01*
X145899938Y-68937291D02*
X145995176Y-69032529D01*
X145995176Y-69032529D02*
X146090414Y-69080148D01*
X146090414Y-69080148D02*
X146280890Y-69127767D01*
X146280890Y-69127767D02*
X146423747Y-69127767D01*
X146423747Y-69127767D02*
X146614223Y-69080148D01*
X146614223Y-69080148D02*
X146709461Y-69032529D01*
X146709461Y-69032529D02*
X146804700Y-68937291D01*
X146804700Y-68937291D02*
X146852319Y-68794434D01*
X146852319Y-68794434D02*
X146852319Y-68556339D01*
X145852319Y-69461101D02*
X145852319Y-70080148D01*
X145852319Y-70080148D02*
X146233271Y-69746815D01*
X146233271Y-69746815D02*
X146233271Y-69889672D01*
X146233271Y-69889672D02*
X146280890Y-69984910D01*
X146280890Y-69984910D02*
X146328509Y-70032529D01*
X146328509Y-70032529D02*
X146423747Y-70080148D01*
X146423747Y-70080148D02*
X146661842Y-70080148D01*
X146661842Y-70080148D02*
X146757080Y-70032529D01*
X146757080Y-70032529D02*
X146804700Y-69984910D01*
X146804700Y-69984910D02*
X146852319Y-69889672D01*
X146852319Y-69889672D02*
X146852319Y-69603958D01*
X146852319Y-69603958D02*
X146804700Y-69508720D01*
X146804700Y-69508720D02*
X146757080Y-69461101D01*
X145852319Y-70699196D02*
X145852319Y-70794434D01*
X145852319Y-70794434D02*
X145899938Y-70889672D01*
X145899938Y-70889672D02*
X145947557Y-70937291D01*
X145947557Y-70937291D02*
X146042795Y-70984910D01*
X146042795Y-70984910D02*
X146233271Y-71032529D01*
X146233271Y-71032529D02*
X146471366Y-71032529D01*
X146471366Y-71032529D02*
X146661842Y-70984910D01*
X146661842Y-70984910D02*
X146757080Y-70937291D01*
X146757080Y-70937291D02*
X146804700Y-70889672D01*
X146804700Y-70889672D02*
X146852319Y-70794434D01*
X146852319Y-70794434D02*
X146852319Y-70699196D01*
X146852319Y-70699196D02*
X146804700Y-70603958D01*
X146804700Y-70603958D02*
X146757080Y-70556339D01*
X146757080Y-70556339D02*
X146661842Y-70508720D01*
X146661842Y-70508720D02*
X146471366Y-70461101D01*
X146471366Y-70461101D02*
X146233271Y-70461101D01*
X146233271Y-70461101D02*
X146042795Y-70508720D01*
X146042795Y-70508720D02*
X145947557Y-70556339D01*
X145947557Y-70556339D02*
X145899938Y-70603958D01*
X145899938Y-70603958D02*
X145852319Y-70699196D01*
X256389819Y-49506339D02*
X255389819Y-49506339D01*
X255389819Y-49506339D02*
X255389819Y-49744434D01*
X255389819Y-49744434D02*
X255437438Y-49887291D01*
X255437438Y-49887291D02*
X255532676Y-49982529D01*
X255532676Y-49982529D02*
X255627914Y-50030148D01*
X255627914Y-50030148D02*
X255818390Y-50077767D01*
X255818390Y-50077767D02*
X255961247Y-50077767D01*
X255961247Y-50077767D02*
X256151723Y-50030148D01*
X256151723Y-50030148D02*
X256246961Y-49982529D01*
X256246961Y-49982529D02*
X256342200Y-49887291D01*
X256342200Y-49887291D02*
X256389819Y-49744434D01*
X256389819Y-49744434D02*
X256389819Y-49506339D01*
X255485057Y-50458720D02*
X255437438Y-50506339D01*
X255437438Y-50506339D02*
X255389819Y-50601577D01*
X255389819Y-50601577D02*
X255389819Y-50839672D01*
X255389819Y-50839672D02*
X255437438Y-50934910D01*
X255437438Y-50934910D02*
X255485057Y-50982529D01*
X255485057Y-50982529D02*
X255580295Y-51030148D01*
X255580295Y-51030148D02*
X255675533Y-51030148D01*
X255675533Y-51030148D02*
X255818390Y-50982529D01*
X255818390Y-50982529D02*
X256389819Y-50411101D01*
X256389819Y-50411101D02*
X256389819Y-51030148D01*
X255723152Y-51887291D02*
X256389819Y-51887291D01*
X255342200Y-51649196D02*
X256056485Y-51411101D01*
X256056485Y-51411101D02*
X256056485Y-52030148D01*
X223052319Y-87606339D02*
X222052319Y-87606339D01*
X222052319Y-87606339D02*
X222052319Y-87844434D01*
X222052319Y-87844434D02*
X222099938Y-87987291D01*
X222099938Y-87987291D02*
X222195176Y-88082529D01*
X222195176Y-88082529D02*
X222290414Y-88130148D01*
X222290414Y-88130148D02*
X222480890Y-88177767D01*
X222480890Y-88177767D02*
X222623747Y-88177767D01*
X222623747Y-88177767D02*
X222814223Y-88130148D01*
X222814223Y-88130148D02*
X222909461Y-88082529D01*
X222909461Y-88082529D02*
X223004700Y-87987291D01*
X223004700Y-87987291D02*
X223052319Y-87844434D01*
X223052319Y-87844434D02*
X223052319Y-87606339D01*
X222385652Y-89034910D02*
X223052319Y-89034910D01*
X222004700Y-88796815D02*
X222718985Y-88558720D01*
X222718985Y-88558720D02*
X222718985Y-89177767D01*
X223052319Y-90082529D02*
X223052319Y-89511101D01*
X223052319Y-89796815D02*
X222052319Y-89796815D01*
X222052319Y-89796815D02*
X222195176Y-89701577D01*
X222195176Y-89701577D02*
X222290414Y-89606339D01*
X222290414Y-89606339D02*
X222338033Y-89511101D01*
X132564819Y-30932530D02*
X131564819Y-30932530D01*
X131564819Y-30932530D02*
X131564819Y-31170625D01*
X131564819Y-31170625D02*
X131612438Y-31313482D01*
X131612438Y-31313482D02*
X131707676Y-31408720D01*
X131707676Y-31408720D02*
X131802914Y-31456339D01*
X131802914Y-31456339D02*
X131993390Y-31503958D01*
X131993390Y-31503958D02*
X132136247Y-31503958D01*
X132136247Y-31503958D02*
X132326723Y-31456339D01*
X132326723Y-31456339D02*
X132421961Y-31408720D01*
X132421961Y-31408720D02*
X132517200Y-31313482D01*
X132517200Y-31313482D02*
X132564819Y-31170625D01*
X132564819Y-31170625D02*
X132564819Y-30932530D01*
X131564819Y-32361101D02*
X131564819Y-32170625D01*
X131564819Y-32170625D02*
X131612438Y-32075387D01*
X131612438Y-32075387D02*
X131660057Y-32027768D01*
X131660057Y-32027768D02*
X131802914Y-31932530D01*
X131802914Y-31932530D02*
X131993390Y-31884911D01*
X131993390Y-31884911D02*
X132374342Y-31884911D01*
X132374342Y-31884911D02*
X132469580Y-31932530D01*
X132469580Y-31932530D02*
X132517200Y-31980149D01*
X132517200Y-31980149D02*
X132564819Y-32075387D01*
X132564819Y-32075387D02*
X132564819Y-32265863D01*
X132564819Y-32265863D02*
X132517200Y-32361101D01*
X132517200Y-32361101D02*
X132469580Y-32408720D01*
X132469580Y-32408720D02*
X132374342Y-32456339D01*
X132374342Y-32456339D02*
X132136247Y-32456339D01*
X132136247Y-32456339D02*
X132041009Y-32408720D01*
X132041009Y-32408720D02*
X131993390Y-32361101D01*
X131993390Y-32361101D02*
X131945771Y-32265863D01*
X131945771Y-32265863D02*
X131945771Y-32075387D01*
X131945771Y-32075387D02*
X131993390Y-31980149D01*
X131993390Y-31980149D02*
X132041009Y-31932530D01*
X132041009Y-31932530D02*
X132136247Y-31884911D01*
X242102319Y-68556339D02*
X241102319Y-68556339D01*
X241102319Y-68556339D02*
X241102319Y-68794434D01*
X241102319Y-68794434D02*
X241149938Y-68937291D01*
X241149938Y-68937291D02*
X241245176Y-69032529D01*
X241245176Y-69032529D02*
X241340414Y-69080148D01*
X241340414Y-69080148D02*
X241530890Y-69127767D01*
X241530890Y-69127767D02*
X241673747Y-69127767D01*
X241673747Y-69127767D02*
X241864223Y-69080148D01*
X241864223Y-69080148D02*
X241959461Y-69032529D01*
X241959461Y-69032529D02*
X242054700Y-68937291D01*
X242054700Y-68937291D02*
X242102319Y-68794434D01*
X242102319Y-68794434D02*
X242102319Y-68556339D01*
X241102319Y-69461101D02*
X241102319Y-70080148D01*
X241102319Y-70080148D02*
X241483271Y-69746815D01*
X241483271Y-69746815D02*
X241483271Y-69889672D01*
X241483271Y-69889672D02*
X241530890Y-69984910D01*
X241530890Y-69984910D02*
X241578509Y-70032529D01*
X241578509Y-70032529D02*
X241673747Y-70080148D01*
X241673747Y-70080148D02*
X241911842Y-70080148D01*
X241911842Y-70080148D02*
X242007080Y-70032529D01*
X242007080Y-70032529D02*
X242054700Y-69984910D01*
X242054700Y-69984910D02*
X242102319Y-69889672D01*
X242102319Y-69889672D02*
X242102319Y-69603958D01*
X242102319Y-69603958D02*
X242054700Y-69508720D01*
X242054700Y-69508720D02*
X242007080Y-69461101D01*
X241102319Y-70984910D02*
X241102319Y-70508720D01*
X241102319Y-70508720D02*
X241578509Y-70461101D01*
X241578509Y-70461101D02*
X241530890Y-70508720D01*
X241530890Y-70508720D02*
X241483271Y-70603958D01*
X241483271Y-70603958D02*
X241483271Y-70842053D01*
X241483271Y-70842053D02*
X241530890Y-70937291D01*
X241530890Y-70937291D02*
X241578509Y-70984910D01*
X241578509Y-70984910D02*
X241673747Y-71032529D01*
X241673747Y-71032529D02*
X241911842Y-71032529D01*
X241911842Y-71032529D02*
X242007080Y-70984910D01*
X242007080Y-70984910D02*
X242054700Y-70937291D01*
X242054700Y-70937291D02*
X242102319Y-70842053D01*
X242102319Y-70842053D02*
X242102319Y-70603958D01*
X242102319Y-70603958D02*
X242054700Y-70508720D01*
X242054700Y-70508720D02*
X242007080Y-70461101D01*
X247394580Y-40599583D02*
X247442200Y-40551964D01*
X247442200Y-40551964D02*
X247489819Y-40409107D01*
X247489819Y-40409107D02*
X247489819Y-40313869D01*
X247489819Y-40313869D02*
X247442200Y-40171012D01*
X247442200Y-40171012D02*
X247346961Y-40075774D01*
X247346961Y-40075774D02*
X247251723Y-40028155D01*
X247251723Y-40028155D02*
X247061247Y-39980536D01*
X247061247Y-39980536D02*
X246918390Y-39980536D01*
X246918390Y-39980536D02*
X246727914Y-40028155D01*
X246727914Y-40028155D02*
X246632676Y-40075774D01*
X246632676Y-40075774D02*
X246537438Y-40171012D01*
X246537438Y-40171012D02*
X246489819Y-40313869D01*
X246489819Y-40313869D02*
X246489819Y-40409107D01*
X246489819Y-40409107D02*
X246537438Y-40551964D01*
X246537438Y-40551964D02*
X246585057Y-40599583D01*
X247489819Y-41075774D02*
X247489819Y-41266250D01*
X247489819Y-41266250D02*
X247442200Y-41361488D01*
X247442200Y-41361488D02*
X247394580Y-41409107D01*
X247394580Y-41409107D02*
X247251723Y-41504345D01*
X247251723Y-41504345D02*
X247061247Y-41551964D01*
X247061247Y-41551964D02*
X246680295Y-41551964D01*
X246680295Y-41551964D02*
X246585057Y-41504345D01*
X246585057Y-41504345D02*
X246537438Y-41456726D01*
X246537438Y-41456726D02*
X246489819Y-41361488D01*
X246489819Y-41361488D02*
X246489819Y-41171012D01*
X246489819Y-41171012D02*
X246537438Y-41075774D01*
X246537438Y-41075774D02*
X246585057Y-41028155D01*
X246585057Y-41028155D02*
X246680295Y-40980536D01*
X246680295Y-40980536D02*
X246918390Y-40980536D01*
X246918390Y-40980536D02*
X247013628Y-41028155D01*
X247013628Y-41028155D02*
X247061247Y-41075774D01*
X247061247Y-41075774D02*
X247108866Y-41171012D01*
X247108866Y-41171012D02*
X247108866Y-41361488D01*
X247108866Y-41361488D02*
X247061247Y-41456726D01*
X247061247Y-41456726D02*
X247013628Y-41504345D01*
X247013628Y-41504345D02*
X246918390Y-41551964D01*
X194477319Y-87606339D02*
X193477319Y-87606339D01*
X193477319Y-87606339D02*
X193477319Y-87844434D01*
X193477319Y-87844434D02*
X193524938Y-87987291D01*
X193524938Y-87987291D02*
X193620176Y-88082529D01*
X193620176Y-88082529D02*
X193715414Y-88130148D01*
X193715414Y-88130148D02*
X193905890Y-88177767D01*
X193905890Y-88177767D02*
X194048747Y-88177767D01*
X194048747Y-88177767D02*
X194239223Y-88130148D01*
X194239223Y-88130148D02*
X194334461Y-88082529D01*
X194334461Y-88082529D02*
X194429700Y-87987291D01*
X194429700Y-87987291D02*
X194477319Y-87844434D01*
X194477319Y-87844434D02*
X194477319Y-87606339D01*
X193810652Y-89034910D02*
X194477319Y-89034910D01*
X193429700Y-88796815D02*
X194143985Y-88558720D01*
X194143985Y-88558720D02*
X194143985Y-89177767D01*
X193905890Y-89701577D02*
X193858271Y-89606339D01*
X193858271Y-89606339D02*
X193810652Y-89558720D01*
X193810652Y-89558720D02*
X193715414Y-89511101D01*
X193715414Y-89511101D02*
X193667795Y-89511101D01*
X193667795Y-89511101D02*
X193572557Y-89558720D01*
X193572557Y-89558720D02*
X193524938Y-89606339D01*
X193524938Y-89606339D02*
X193477319Y-89701577D01*
X193477319Y-89701577D02*
X193477319Y-89892053D01*
X193477319Y-89892053D02*
X193524938Y-89987291D01*
X193524938Y-89987291D02*
X193572557Y-90034910D01*
X193572557Y-90034910D02*
X193667795Y-90082529D01*
X193667795Y-90082529D02*
X193715414Y-90082529D01*
X193715414Y-90082529D02*
X193810652Y-90034910D01*
X193810652Y-90034910D02*
X193858271Y-89987291D01*
X193858271Y-89987291D02*
X193905890Y-89892053D01*
X193905890Y-89892053D02*
X193905890Y-89701577D01*
X193905890Y-89701577D02*
X193953509Y-89606339D01*
X193953509Y-89606339D02*
X194001128Y-89558720D01*
X194001128Y-89558720D02*
X194096366Y-89511101D01*
X194096366Y-89511101D02*
X194286842Y-89511101D01*
X194286842Y-89511101D02*
X194382080Y-89558720D01*
X194382080Y-89558720D02*
X194429700Y-89606339D01*
X194429700Y-89606339D02*
X194477319Y-89701577D01*
X194477319Y-89701577D02*
X194477319Y-89892053D01*
X194477319Y-89892053D02*
X194429700Y-89987291D01*
X194429700Y-89987291D02*
X194382080Y-90034910D01*
X194382080Y-90034910D02*
X194286842Y-90082529D01*
X194286842Y-90082529D02*
X194096366Y-90082529D01*
X194096366Y-90082529D02*
X194001128Y-90034910D01*
X194001128Y-90034910D02*
X193953509Y-89987291D01*
X193953509Y-89987291D02*
X193905890Y-89892053D01*
X165902319Y-68556339D02*
X164902319Y-68556339D01*
X164902319Y-68556339D02*
X164902319Y-68794434D01*
X164902319Y-68794434D02*
X164949938Y-68937291D01*
X164949938Y-68937291D02*
X165045176Y-69032529D01*
X165045176Y-69032529D02*
X165140414Y-69080148D01*
X165140414Y-69080148D02*
X165330890Y-69127767D01*
X165330890Y-69127767D02*
X165473747Y-69127767D01*
X165473747Y-69127767D02*
X165664223Y-69080148D01*
X165664223Y-69080148D02*
X165759461Y-69032529D01*
X165759461Y-69032529D02*
X165854700Y-68937291D01*
X165854700Y-68937291D02*
X165902319Y-68794434D01*
X165902319Y-68794434D02*
X165902319Y-68556339D01*
X164902319Y-69461101D02*
X164902319Y-70080148D01*
X164902319Y-70080148D02*
X165283271Y-69746815D01*
X165283271Y-69746815D02*
X165283271Y-69889672D01*
X165283271Y-69889672D02*
X165330890Y-69984910D01*
X165330890Y-69984910D02*
X165378509Y-70032529D01*
X165378509Y-70032529D02*
X165473747Y-70080148D01*
X165473747Y-70080148D02*
X165711842Y-70080148D01*
X165711842Y-70080148D02*
X165807080Y-70032529D01*
X165807080Y-70032529D02*
X165854700Y-69984910D01*
X165854700Y-69984910D02*
X165902319Y-69889672D01*
X165902319Y-69889672D02*
X165902319Y-69603958D01*
X165902319Y-69603958D02*
X165854700Y-69508720D01*
X165854700Y-69508720D02*
X165807080Y-69461101D01*
X165902319Y-71032529D02*
X165902319Y-70461101D01*
X165902319Y-70746815D02*
X164902319Y-70746815D01*
X164902319Y-70746815D02*
X165045176Y-70651577D01*
X165045176Y-70651577D02*
X165140414Y-70556339D01*
X165140414Y-70556339D02*
X165188033Y-70461101D01*
X80177319Y-49506339D02*
X79177319Y-49506339D01*
X79177319Y-49506339D02*
X79177319Y-49744434D01*
X79177319Y-49744434D02*
X79224938Y-49887291D01*
X79224938Y-49887291D02*
X79320176Y-49982529D01*
X79320176Y-49982529D02*
X79415414Y-50030148D01*
X79415414Y-50030148D02*
X79605890Y-50077767D01*
X79605890Y-50077767D02*
X79748747Y-50077767D01*
X79748747Y-50077767D02*
X79939223Y-50030148D01*
X79939223Y-50030148D02*
X80034461Y-49982529D01*
X80034461Y-49982529D02*
X80129700Y-49887291D01*
X80129700Y-49887291D02*
X80177319Y-49744434D01*
X80177319Y-49744434D02*
X80177319Y-49506339D01*
X80177319Y-51030148D02*
X80177319Y-50458720D01*
X80177319Y-50744434D02*
X79177319Y-50744434D01*
X79177319Y-50744434D02*
X79320176Y-50649196D01*
X79320176Y-50649196D02*
X79415414Y-50553958D01*
X79415414Y-50553958D02*
X79463033Y-50458720D01*
X79177319Y-51934910D02*
X79177319Y-51458720D01*
X79177319Y-51458720D02*
X79653509Y-51411101D01*
X79653509Y-51411101D02*
X79605890Y-51458720D01*
X79605890Y-51458720D02*
X79558271Y-51553958D01*
X79558271Y-51553958D02*
X79558271Y-51792053D01*
X79558271Y-51792053D02*
X79605890Y-51887291D01*
X79605890Y-51887291D02*
X79653509Y-51934910D01*
X79653509Y-51934910D02*
X79748747Y-51982529D01*
X79748747Y-51982529D02*
X79986842Y-51982529D01*
X79986842Y-51982529D02*
X80082080Y-51934910D01*
X80082080Y-51934910D02*
X80129700Y-51887291D01*
X80129700Y-51887291D02*
X80177319Y-51792053D01*
X80177319Y-51792053D02*
X80177319Y-51553958D01*
X80177319Y-51553958D02*
X80129700Y-51458720D01*
X80129700Y-51458720D02*
X80082080Y-51411101D01*
X39696069Y-49506339D02*
X38696069Y-49506339D01*
X38696069Y-49506339D02*
X38696069Y-49744434D01*
X38696069Y-49744434D02*
X38743688Y-49887291D01*
X38743688Y-49887291D02*
X38838926Y-49982529D01*
X38838926Y-49982529D02*
X38934164Y-50030148D01*
X38934164Y-50030148D02*
X39124640Y-50077767D01*
X39124640Y-50077767D02*
X39267497Y-50077767D01*
X39267497Y-50077767D02*
X39457973Y-50030148D01*
X39457973Y-50030148D02*
X39553211Y-49982529D01*
X39553211Y-49982529D02*
X39648450Y-49887291D01*
X39648450Y-49887291D02*
X39696069Y-49744434D01*
X39696069Y-49744434D02*
X39696069Y-49506339D01*
X39696069Y-51030148D02*
X39696069Y-50458720D01*
X39696069Y-50744434D02*
X38696069Y-50744434D01*
X38696069Y-50744434D02*
X38838926Y-50649196D01*
X38838926Y-50649196D02*
X38934164Y-50553958D01*
X38934164Y-50553958D02*
X38981783Y-50458720D01*
X38696069Y-51363482D02*
X38696069Y-51982529D01*
X38696069Y-51982529D02*
X39077021Y-51649196D01*
X39077021Y-51649196D02*
X39077021Y-51792053D01*
X39077021Y-51792053D02*
X39124640Y-51887291D01*
X39124640Y-51887291D02*
X39172259Y-51934910D01*
X39172259Y-51934910D02*
X39267497Y-51982529D01*
X39267497Y-51982529D02*
X39505592Y-51982529D01*
X39505592Y-51982529D02*
X39600830Y-51934910D01*
X39600830Y-51934910D02*
X39648450Y-51887291D01*
X39648450Y-51887291D02*
X39696069Y-51792053D01*
X39696069Y-51792053D02*
X39696069Y-51506339D01*
X39696069Y-51506339D02*
X39648450Y-51411101D01*
X39648450Y-51411101D02*
X39600830Y-51363482D01*
X254008569Y-30456339D02*
X253008569Y-30456339D01*
X253008569Y-30456339D02*
X253008569Y-30694434D01*
X253008569Y-30694434D02*
X253056188Y-30837291D01*
X253056188Y-30837291D02*
X253151426Y-30932529D01*
X253151426Y-30932529D02*
X253246664Y-30980148D01*
X253246664Y-30980148D02*
X253437140Y-31027767D01*
X253437140Y-31027767D02*
X253579997Y-31027767D01*
X253579997Y-31027767D02*
X253770473Y-30980148D01*
X253770473Y-30980148D02*
X253865711Y-30932529D01*
X253865711Y-30932529D02*
X253960950Y-30837291D01*
X253960950Y-30837291D02*
X254008569Y-30694434D01*
X254008569Y-30694434D02*
X254008569Y-30456339D01*
X254008569Y-31980148D02*
X254008569Y-31408720D01*
X254008569Y-31694434D02*
X253008569Y-31694434D01*
X253008569Y-31694434D02*
X253151426Y-31599196D01*
X253151426Y-31599196D02*
X253246664Y-31503958D01*
X253246664Y-31503958D02*
X253294283Y-31408720D01*
X253103807Y-32361101D02*
X253056188Y-32408720D01*
X253056188Y-32408720D02*
X253008569Y-32503958D01*
X253008569Y-32503958D02*
X253008569Y-32742053D01*
X253008569Y-32742053D02*
X253056188Y-32837291D01*
X253056188Y-32837291D02*
X253103807Y-32884910D01*
X253103807Y-32884910D02*
X253199045Y-32932529D01*
X253199045Y-32932529D02*
X253294283Y-32932529D01*
X253294283Y-32932529D02*
X253437140Y-32884910D01*
X253437140Y-32884910D02*
X254008569Y-32313482D01*
X254008569Y-32313482D02*
X254008569Y-32932529D01*
X44458569Y-68556339D02*
X43458569Y-68556339D01*
X43458569Y-68556339D02*
X43458569Y-68794434D01*
X43458569Y-68794434D02*
X43506188Y-68937291D01*
X43506188Y-68937291D02*
X43601426Y-69032529D01*
X43601426Y-69032529D02*
X43696664Y-69080148D01*
X43696664Y-69080148D02*
X43887140Y-69127767D01*
X43887140Y-69127767D02*
X44029997Y-69127767D01*
X44029997Y-69127767D02*
X44220473Y-69080148D01*
X44220473Y-69080148D02*
X44315711Y-69032529D01*
X44315711Y-69032529D02*
X44410950Y-68937291D01*
X44410950Y-68937291D02*
X44458569Y-68794434D01*
X44458569Y-68794434D02*
X44458569Y-68556339D01*
X43553807Y-69508720D02*
X43506188Y-69556339D01*
X43506188Y-69556339D02*
X43458569Y-69651577D01*
X43458569Y-69651577D02*
X43458569Y-69889672D01*
X43458569Y-69889672D02*
X43506188Y-69984910D01*
X43506188Y-69984910D02*
X43553807Y-70032529D01*
X43553807Y-70032529D02*
X43649045Y-70080148D01*
X43649045Y-70080148D02*
X43744283Y-70080148D01*
X43744283Y-70080148D02*
X43887140Y-70032529D01*
X43887140Y-70032529D02*
X44458569Y-69461101D01*
X44458569Y-69461101D02*
X44458569Y-70080148D01*
X43458569Y-70984910D02*
X43458569Y-70508720D01*
X43458569Y-70508720D02*
X43934759Y-70461101D01*
X43934759Y-70461101D02*
X43887140Y-70508720D01*
X43887140Y-70508720D02*
X43839521Y-70603958D01*
X43839521Y-70603958D02*
X43839521Y-70842053D01*
X43839521Y-70842053D02*
X43887140Y-70937291D01*
X43887140Y-70937291D02*
X43934759Y-70984910D01*
X43934759Y-70984910D02*
X44029997Y-71032529D01*
X44029997Y-71032529D02*
X44268092Y-71032529D01*
X44268092Y-71032529D02*
X44363330Y-70984910D01*
X44363330Y-70984910D02*
X44410950Y-70937291D01*
X44410950Y-70937291D02*
X44458569Y-70842053D01*
X44458569Y-70842053D02*
X44458569Y-70603958D01*
X44458569Y-70603958D02*
X44410950Y-70508720D01*
X44410950Y-70508720D02*
X44363330Y-70461101D01*
X156377319Y-49506339D02*
X155377319Y-49506339D01*
X155377319Y-49506339D02*
X155377319Y-49744434D01*
X155377319Y-49744434D02*
X155424938Y-49887291D01*
X155424938Y-49887291D02*
X155520176Y-49982529D01*
X155520176Y-49982529D02*
X155615414Y-50030148D01*
X155615414Y-50030148D02*
X155805890Y-50077767D01*
X155805890Y-50077767D02*
X155948747Y-50077767D01*
X155948747Y-50077767D02*
X156139223Y-50030148D01*
X156139223Y-50030148D02*
X156234461Y-49982529D01*
X156234461Y-49982529D02*
X156329700Y-49887291D01*
X156329700Y-49887291D02*
X156377319Y-49744434D01*
X156377319Y-49744434D02*
X156377319Y-49506339D01*
X156377319Y-51030148D02*
X156377319Y-50458720D01*
X156377319Y-50744434D02*
X155377319Y-50744434D01*
X155377319Y-50744434D02*
X155520176Y-50649196D01*
X155520176Y-50649196D02*
X155615414Y-50553958D01*
X155615414Y-50553958D02*
X155663033Y-50458720D01*
X156377319Y-51506339D02*
X156377319Y-51696815D01*
X156377319Y-51696815D02*
X156329700Y-51792053D01*
X156329700Y-51792053D02*
X156282080Y-51839672D01*
X156282080Y-51839672D02*
X156139223Y-51934910D01*
X156139223Y-51934910D02*
X155948747Y-51982529D01*
X155948747Y-51982529D02*
X155567795Y-51982529D01*
X155567795Y-51982529D02*
X155472557Y-51934910D01*
X155472557Y-51934910D02*
X155424938Y-51887291D01*
X155424938Y-51887291D02*
X155377319Y-51792053D01*
X155377319Y-51792053D02*
X155377319Y-51601577D01*
X155377319Y-51601577D02*
X155424938Y-51506339D01*
X155424938Y-51506339D02*
X155472557Y-51458720D01*
X155472557Y-51458720D02*
X155567795Y-51411101D01*
X155567795Y-51411101D02*
X155805890Y-51411101D01*
X155805890Y-51411101D02*
X155901128Y-51458720D01*
X155901128Y-51458720D02*
X155948747Y-51506339D01*
X155948747Y-51506339D02*
X155996366Y-51601577D01*
X155996366Y-51601577D02*
X155996366Y-51792053D01*
X155996366Y-51792053D02*
X155948747Y-51887291D01*
X155948747Y-51887291D02*
X155901128Y-51934910D01*
X155901128Y-51934910D02*
X155805890Y-51982529D01*
X99227319Y-49506339D02*
X98227319Y-49506339D01*
X98227319Y-49506339D02*
X98227319Y-49744434D01*
X98227319Y-49744434D02*
X98274938Y-49887291D01*
X98274938Y-49887291D02*
X98370176Y-49982529D01*
X98370176Y-49982529D02*
X98465414Y-50030148D01*
X98465414Y-50030148D02*
X98655890Y-50077767D01*
X98655890Y-50077767D02*
X98798747Y-50077767D01*
X98798747Y-50077767D02*
X98989223Y-50030148D01*
X98989223Y-50030148D02*
X99084461Y-49982529D01*
X99084461Y-49982529D02*
X99179700Y-49887291D01*
X99179700Y-49887291D02*
X99227319Y-49744434D01*
X99227319Y-49744434D02*
X99227319Y-49506339D01*
X99227319Y-51030148D02*
X99227319Y-50458720D01*
X99227319Y-50744434D02*
X98227319Y-50744434D01*
X98227319Y-50744434D02*
X98370176Y-50649196D01*
X98370176Y-50649196D02*
X98465414Y-50553958D01*
X98465414Y-50553958D02*
X98513033Y-50458720D01*
X98227319Y-51887291D02*
X98227319Y-51696815D01*
X98227319Y-51696815D02*
X98274938Y-51601577D01*
X98274938Y-51601577D02*
X98322557Y-51553958D01*
X98322557Y-51553958D02*
X98465414Y-51458720D01*
X98465414Y-51458720D02*
X98655890Y-51411101D01*
X98655890Y-51411101D02*
X99036842Y-51411101D01*
X99036842Y-51411101D02*
X99132080Y-51458720D01*
X99132080Y-51458720D02*
X99179700Y-51506339D01*
X99179700Y-51506339D02*
X99227319Y-51601577D01*
X99227319Y-51601577D02*
X99227319Y-51792053D01*
X99227319Y-51792053D02*
X99179700Y-51887291D01*
X99179700Y-51887291D02*
X99132080Y-51934910D01*
X99132080Y-51934910D02*
X99036842Y-51982529D01*
X99036842Y-51982529D02*
X98798747Y-51982529D01*
X98798747Y-51982529D02*
X98703509Y-51934910D01*
X98703509Y-51934910D02*
X98655890Y-51887291D01*
X98655890Y-51887291D02*
X98608271Y-51792053D01*
X98608271Y-51792053D02*
X98608271Y-51601577D01*
X98608271Y-51601577D02*
X98655890Y-51506339D01*
X98655890Y-51506339D02*
X98703509Y-51458720D01*
X98703509Y-51458720D02*
X98798747Y-51411101D01*
X227762080Y-40133333D02*
X227809700Y-40085714D01*
X227809700Y-40085714D02*
X227857319Y-39942857D01*
X227857319Y-39942857D02*
X227857319Y-39847619D01*
X227857319Y-39847619D02*
X227809700Y-39704762D01*
X227809700Y-39704762D02*
X227714461Y-39609524D01*
X227714461Y-39609524D02*
X227619223Y-39561905D01*
X227619223Y-39561905D02*
X227428747Y-39514286D01*
X227428747Y-39514286D02*
X227285890Y-39514286D01*
X227285890Y-39514286D02*
X227095414Y-39561905D01*
X227095414Y-39561905D02*
X227000176Y-39609524D01*
X227000176Y-39609524D02*
X226904938Y-39704762D01*
X226904938Y-39704762D02*
X226857319Y-39847619D01*
X226857319Y-39847619D02*
X226857319Y-39942857D01*
X226857319Y-39942857D02*
X226904938Y-40085714D01*
X226904938Y-40085714D02*
X226952557Y-40133333D01*
X226857319Y-40466667D02*
X226857319Y-41133333D01*
X226857319Y-41133333D02*
X227857319Y-40704762D01*
X223829404Y-37041069D02*
X223829404Y-37850592D01*
X223829404Y-37850592D02*
X223781785Y-37945830D01*
X223781785Y-37945830D02*
X223734166Y-37993450D01*
X223734166Y-37993450D02*
X223638928Y-38041069D01*
X223638928Y-38041069D02*
X223448452Y-38041069D01*
X223448452Y-38041069D02*
X223353214Y-37993450D01*
X223353214Y-37993450D02*
X223305595Y-37945830D01*
X223305595Y-37945830D02*
X223257976Y-37850592D01*
X223257976Y-37850592D02*
X223257976Y-37041069D01*
X222829404Y-37136307D02*
X222781785Y-37088688D01*
X222781785Y-37088688D02*
X222686547Y-37041069D01*
X222686547Y-37041069D02*
X222448452Y-37041069D01*
X222448452Y-37041069D02*
X222353214Y-37088688D01*
X222353214Y-37088688D02*
X222305595Y-37136307D01*
X222305595Y-37136307D02*
X222257976Y-37231545D01*
X222257976Y-37231545D02*
X222257976Y-37326783D01*
X222257976Y-37326783D02*
X222305595Y-37469640D01*
X222305595Y-37469640D02*
X222877023Y-38041069D01*
X222877023Y-38041069D02*
X222257976Y-38041069D01*
X56364819Y-30932530D02*
X55364819Y-30932530D01*
X55364819Y-30932530D02*
X55364819Y-31170625D01*
X55364819Y-31170625D02*
X55412438Y-31313482D01*
X55412438Y-31313482D02*
X55507676Y-31408720D01*
X55507676Y-31408720D02*
X55602914Y-31456339D01*
X55602914Y-31456339D02*
X55793390Y-31503958D01*
X55793390Y-31503958D02*
X55936247Y-31503958D01*
X55936247Y-31503958D02*
X56126723Y-31456339D01*
X56126723Y-31456339D02*
X56221961Y-31408720D01*
X56221961Y-31408720D02*
X56317200Y-31313482D01*
X56317200Y-31313482D02*
X56364819Y-31170625D01*
X56364819Y-31170625D02*
X56364819Y-30932530D01*
X55460057Y-31884911D02*
X55412438Y-31932530D01*
X55412438Y-31932530D02*
X55364819Y-32027768D01*
X55364819Y-32027768D02*
X55364819Y-32265863D01*
X55364819Y-32265863D02*
X55412438Y-32361101D01*
X55412438Y-32361101D02*
X55460057Y-32408720D01*
X55460057Y-32408720D02*
X55555295Y-32456339D01*
X55555295Y-32456339D02*
X55650533Y-32456339D01*
X55650533Y-32456339D02*
X55793390Y-32408720D01*
X55793390Y-32408720D02*
X56364819Y-31837292D01*
X56364819Y-31837292D02*
X56364819Y-32456339D01*
X151614819Y-30932530D02*
X150614819Y-30932530D01*
X150614819Y-30932530D02*
X150614819Y-31170625D01*
X150614819Y-31170625D02*
X150662438Y-31313482D01*
X150662438Y-31313482D02*
X150757676Y-31408720D01*
X150757676Y-31408720D02*
X150852914Y-31456339D01*
X150852914Y-31456339D02*
X151043390Y-31503958D01*
X151043390Y-31503958D02*
X151186247Y-31503958D01*
X151186247Y-31503958D02*
X151376723Y-31456339D01*
X151376723Y-31456339D02*
X151471961Y-31408720D01*
X151471961Y-31408720D02*
X151567200Y-31313482D01*
X151567200Y-31313482D02*
X151614819Y-31170625D01*
X151614819Y-31170625D02*
X151614819Y-30932530D01*
X150614819Y-31837292D02*
X150614819Y-32503958D01*
X150614819Y-32503958D02*
X151614819Y-32075387D01*
X262499819Y-33929583D02*
X262023628Y-33596250D01*
X262499819Y-33358155D02*
X261499819Y-33358155D01*
X261499819Y-33358155D02*
X261499819Y-33739107D01*
X261499819Y-33739107D02*
X261547438Y-33834345D01*
X261547438Y-33834345D02*
X261595057Y-33881964D01*
X261595057Y-33881964D02*
X261690295Y-33929583D01*
X261690295Y-33929583D02*
X261833152Y-33929583D01*
X261833152Y-33929583D02*
X261928390Y-33881964D01*
X261928390Y-33881964D02*
X261976009Y-33834345D01*
X261976009Y-33834345D02*
X262023628Y-33739107D01*
X262023628Y-33739107D02*
X262023628Y-33358155D01*
X262499819Y-34881964D02*
X262499819Y-34310536D01*
X262499819Y-34596250D02*
X261499819Y-34596250D01*
X261499819Y-34596250D02*
X261642676Y-34501012D01*
X261642676Y-34501012D02*
X261737914Y-34405774D01*
X261737914Y-34405774D02*
X261785533Y-34310536D01*
X261152319Y-87606339D02*
X260152319Y-87606339D01*
X260152319Y-87606339D02*
X260152319Y-87844434D01*
X260152319Y-87844434D02*
X260199938Y-87987291D01*
X260199938Y-87987291D02*
X260295176Y-88082529D01*
X260295176Y-88082529D02*
X260390414Y-88130148D01*
X260390414Y-88130148D02*
X260580890Y-88177767D01*
X260580890Y-88177767D02*
X260723747Y-88177767D01*
X260723747Y-88177767D02*
X260914223Y-88130148D01*
X260914223Y-88130148D02*
X261009461Y-88082529D01*
X261009461Y-88082529D02*
X261104700Y-87987291D01*
X261104700Y-87987291D02*
X261152319Y-87844434D01*
X261152319Y-87844434D02*
X261152319Y-87606339D01*
X260485652Y-89034910D02*
X261152319Y-89034910D01*
X260104700Y-88796815D02*
X260818985Y-88558720D01*
X260818985Y-88558720D02*
X260818985Y-89177767D01*
X260152319Y-89463482D02*
X260152319Y-90082529D01*
X260152319Y-90082529D02*
X260533271Y-89749196D01*
X260533271Y-89749196D02*
X260533271Y-89892053D01*
X260533271Y-89892053D02*
X260580890Y-89987291D01*
X260580890Y-89987291D02*
X260628509Y-90034910D01*
X260628509Y-90034910D02*
X260723747Y-90082529D01*
X260723747Y-90082529D02*
X260961842Y-90082529D01*
X260961842Y-90082529D02*
X261057080Y-90034910D01*
X261057080Y-90034910D02*
X261104700Y-89987291D01*
X261104700Y-89987291D02*
X261152319Y-89892053D01*
X261152319Y-89892053D02*
X261152319Y-89606339D01*
X261152319Y-89606339D02*
X261104700Y-89511101D01*
X261104700Y-89511101D02*
X261057080Y-89463482D01*
X163521069Y-87606339D02*
X162521069Y-87606339D01*
X162521069Y-87606339D02*
X162521069Y-87844434D01*
X162521069Y-87844434D02*
X162568688Y-87987291D01*
X162568688Y-87987291D02*
X162663926Y-88082529D01*
X162663926Y-88082529D02*
X162759164Y-88130148D01*
X162759164Y-88130148D02*
X162949640Y-88177767D01*
X162949640Y-88177767D02*
X163092497Y-88177767D01*
X163092497Y-88177767D02*
X163282973Y-88130148D01*
X163282973Y-88130148D02*
X163378211Y-88082529D01*
X163378211Y-88082529D02*
X163473450Y-87987291D01*
X163473450Y-87987291D02*
X163521069Y-87844434D01*
X163521069Y-87844434D02*
X163521069Y-87606339D01*
X162854402Y-89034910D02*
X163521069Y-89034910D01*
X162473450Y-88796815D02*
X163187735Y-88558720D01*
X163187735Y-88558720D02*
X163187735Y-89177767D01*
X162521069Y-89463482D02*
X162521069Y-90130148D01*
X162521069Y-90130148D02*
X163521069Y-89701577D01*
X233531666Y-35283330D02*
X233579285Y-35330950D01*
X233579285Y-35330950D02*
X233722142Y-35378569D01*
X233722142Y-35378569D02*
X233817380Y-35378569D01*
X233817380Y-35378569D02*
X233960237Y-35330950D01*
X233960237Y-35330950D02*
X234055475Y-35235711D01*
X234055475Y-35235711D02*
X234103094Y-35140473D01*
X234103094Y-35140473D02*
X234150713Y-34949997D01*
X234150713Y-34949997D02*
X234150713Y-34807140D01*
X234150713Y-34807140D02*
X234103094Y-34616664D01*
X234103094Y-34616664D02*
X234055475Y-34521426D01*
X234055475Y-34521426D02*
X233960237Y-34426188D01*
X233960237Y-34426188D02*
X233817380Y-34378569D01*
X233817380Y-34378569D02*
X233722142Y-34378569D01*
X233722142Y-34378569D02*
X233579285Y-34426188D01*
X233579285Y-34426188D02*
X233531666Y-34473807D01*
X232579285Y-35378569D02*
X233150713Y-35378569D01*
X232864999Y-35378569D02*
X232864999Y-34378569D01*
X232864999Y-34378569D02*
X232960237Y-34521426D01*
X232960237Y-34521426D02*
X233055475Y-34616664D01*
X233055475Y-34616664D02*
X233150713Y-34664283D01*
X244511666Y-42785830D02*
X244559285Y-42833450D01*
X244559285Y-42833450D02*
X244702142Y-42881069D01*
X244702142Y-42881069D02*
X244797380Y-42881069D01*
X244797380Y-42881069D02*
X244940237Y-42833450D01*
X244940237Y-42833450D02*
X245035475Y-42738211D01*
X245035475Y-42738211D02*
X245083094Y-42642973D01*
X245083094Y-42642973D02*
X245130713Y-42452497D01*
X245130713Y-42452497D02*
X245130713Y-42309640D01*
X245130713Y-42309640D02*
X245083094Y-42119164D01*
X245083094Y-42119164D02*
X245035475Y-42023926D01*
X245035475Y-42023926D02*
X244940237Y-41928688D01*
X244940237Y-41928688D02*
X244797380Y-41881069D01*
X244797380Y-41881069D02*
X244702142Y-41881069D01*
X244702142Y-41881069D02*
X244559285Y-41928688D01*
X244559285Y-41928688D02*
X244511666Y-41976307D01*
X244178332Y-41881069D02*
X243559285Y-41881069D01*
X243559285Y-41881069D02*
X243892618Y-42262021D01*
X243892618Y-42262021D02*
X243749761Y-42262021D01*
X243749761Y-42262021D02*
X243654523Y-42309640D01*
X243654523Y-42309640D02*
X243606904Y-42357259D01*
X243606904Y-42357259D02*
X243559285Y-42452497D01*
X243559285Y-42452497D02*
X243559285Y-42690592D01*
X243559285Y-42690592D02*
X243606904Y-42785830D01*
X243606904Y-42785830D02*
X243654523Y-42833450D01*
X243654523Y-42833450D02*
X243749761Y-42881069D01*
X243749761Y-42881069D02*
X244035475Y-42881069D01*
X244035475Y-42881069D02*
X244130713Y-42833450D01*
X244130713Y-42833450D02*
X244178332Y-42785830D01*
X189714819Y-30932530D02*
X188714819Y-30932530D01*
X188714819Y-30932530D02*
X188714819Y-31170625D01*
X188714819Y-31170625D02*
X188762438Y-31313482D01*
X188762438Y-31313482D02*
X188857676Y-31408720D01*
X188857676Y-31408720D02*
X188952914Y-31456339D01*
X188952914Y-31456339D02*
X189143390Y-31503958D01*
X189143390Y-31503958D02*
X189286247Y-31503958D01*
X189286247Y-31503958D02*
X189476723Y-31456339D01*
X189476723Y-31456339D02*
X189571961Y-31408720D01*
X189571961Y-31408720D02*
X189667200Y-31313482D01*
X189667200Y-31313482D02*
X189714819Y-31170625D01*
X189714819Y-31170625D02*
X189714819Y-30932530D01*
X189714819Y-31980149D02*
X189714819Y-32170625D01*
X189714819Y-32170625D02*
X189667200Y-32265863D01*
X189667200Y-32265863D02*
X189619580Y-32313482D01*
X189619580Y-32313482D02*
X189476723Y-32408720D01*
X189476723Y-32408720D02*
X189286247Y-32456339D01*
X189286247Y-32456339D02*
X188905295Y-32456339D01*
X188905295Y-32456339D02*
X188810057Y-32408720D01*
X188810057Y-32408720D02*
X188762438Y-32361101D01*
X188762438Y-32361101D02*
X188714819Y-32265863D01*
X188714819Y-32265863D02*
X188714819Y-32075387D01*
X188714819Y-32075387D02*
X188762438Y-31980149D01*
X188762438Y-31980149D02*
X188810057Y-31932530D01*
X188810057Y-31932530D02*
X188905295Y-31884911D01*
X188905295Y-31884911D02*
X189143390Y-31884911D01*
X189143390Y-31884911D02*
X189238628Y-31932530D01*
X189238628Y-31932530D02*
X189286247Y-31980149D01*
X189286247Y-31980149D02*
X189333866Y-32075387D01*
X189333866Y-32075387D02*
X189333866Y-32265863D01*
X189333866Y-32265863D02*
X189286247Y-32361101D01*
X189286247Y-32361101D02*
X189238628Y-32408720D01*
X189238628Y-32408720D02*
X189143390Y-32456339D01*
X227814819Y-30456339D02*
X226814819Y-30456339D01*
X226814819Y-30456339D02*
X226814819Y-30694434D01*
X226814819Y-30694434D02*
X226862438Y-30837291D01*
X226862438Y-30837291D02*
X226957676Y-30932529D01*
X226957676Y-30932529D02*
X227052914Y-30980148D01*
X227052914Y-30980148D02*
X227243390Y-31027767D01*
X227243390Y-31027767D02*
X227386247Y-31027767D01*
X227386247Y-31027767D02*
X227576723Y-30980148D01*
X227576723Y-30980148D02*
X227671961Y-30932529D01*
X227671961Y-30932529D02*
X227767200Y-30837291D01*
X227767200Y-30837291D02*
X227814819Y-30694434D01*
X227814819Y-30694434D02*
X227814819Y-30456339D01*
X227814819Y-31980148D02*
X227814819Y-31408720D01*
X227814819Y-31694434D02*
X226814819Y-31694434D01*
X226814819Y-31694434D02*
X226957676Y-31599196D01*
X226957676Y-31599196D02*
X227052914Y-31503958D01*
X227052914Y-31503958D02*
X227100533Y-31408720D01*
X227814819Y-32932529D02*
X227814819Y-32361101D01*
X227814819Y-32646815D02*
X226814819Y-32646815D01*
X226814819Y-32646815D02*
X226957676Y-32551577D01*
X226957676Y-32551577D02*
X227052914Y-32456339D01*
X227052914Y-32456339D02*
X227100533Y-32361101D01*
X232576666Y-45920830D02*
X232624285Y-45968450D01*
X232624285Y-45968450D02*
X232767142Y-46016069D01*
X232767142Y-46016069D02*
X232862380Y-46016069D01*
X232862380Y-46016069D02*
X233005237Y-45968450D01*
X233005237Y-45968450D02*
X233100475Y-45873211D01*
X233100475Y-45873211D02*
X233148094Y-45777973D01*
X233148094Y-45777973D02*
X233195713Y-45587497D01*
X233195713Y-45587497D02*
X233195713Y-45444640D01*
X233195713Y-45444640D02*
X233148094Y-45254164D01*
X233148094Y-45254164D02*
X233100475Y-45158926D01*
X233100475Y-45158926D02*
X233005237Y-45063688D01*
X233005237Y-45063688D02*
X232862380Y-45016069D01*
X232862380Y-45016069D02*
X232767142Y-45016069D01*
X232767142Y-45016069D02*
X232624285Y-45063688D01*
X232624285Y-45063688D02*
X232576666Y-45111307D01*
X231719523Y-45349402D02*
X231719523Y-46016069D01*
X231957618Y-44968450D02*
X232195713Y-45682735D01*
X232195713Y-45682735D02*
X231576666Y-45682735D01*
X62317944Y-87606339D02*
X61317944Y-87606339D01*
X61317944Y-87606339D02*
X61317944Y-87844434D01*
X61317944Y-87844434D02*
X61365563Y-87987291D01*
X61365563Y-87987291D02*
X61460801Y-88082529D01*
X61460801Y-88082529D02*
X61556039Y-88130148D01*
X61556039Y-88130148D02*
X61746515Y-88177767D01*
X61746515Y-88177767D02*
X61889372Y-88177767D01*
X61889372Y-88177767D02*
X62079848Y-88130148D01*
X62079848Y-88130148D02*
X62175086Y-88082529D01*
X62175086Y-88082529D02*
X62270325Y-87987291D01*
X62270325Y-87987291D02*
X62317944Y-87844434D01*
X62317944Y-87844434D02*
X62317944Y-87606339D01*
X61317944Y-88511101D02*
X61317944Y-89130148D01*
X61317944Y-89130148D02*
X61698896Y-88796815D01*
X61698896Y-88796815D02*
X61698896Y-88939672D01*
X61698896Y-88939672D02*
X61746515Y-89034910D01*
X61746515Y-89034910D02*
X61794134Y-89082529D01*
X61794134Y-89082529D02*
X61889372Y-89130148D01*
X61889372Y-89130148D02*
X62127467Y-89130148D01*
X62127467Y-89130148D02*
X62222705Y-89082529D01*
X62222705Y-89082529D02*
X62270325Y-89034910D01*
X62270325Y-89034910D02*
X62317944Y-88939672D01*
X62317944Y-88939672D02*
X62317944Y-88653958D01*
X62317944Y-88653958D02*
X62270325Y-88558720D01*
X62270325Y-88558720D02*
X62222705Y-88511101D01*
X61746515Y-89701577D02*
X61698896Y-89606339D01*
X61698896Y-89606339D02*
X61651277Y-89558720D01*
X61651277Y-89558720D02*
X61556039Y-89511101D01*
X61556039Y-89511101D02*
X61508420Y-89511101D01*
X61508420Y-89511101D02*
X61413182Y-89558720D01*
X61413182Y-89558720D02*
X61365563Y-89606339D01*
X61365563Y-89606339D02*
X61317944Y-89701577D01*
X61317944Y-89701577D02*
X61317944Y-89892053D01*
X61317944Y-89892053D02*
X61365563Y-89987291D01*
X61365563Y-89987291D02*
X61413182Y-90034910D01*
X61413182Y-90034910D02*
X61508420Y-90082529D01*
X61508420Y-90082529D02*
X61556039Y-90082529D01*
X61556039Y-90082529D02*
X61651277Y-90034910D01*
X61651277Y-90034910D02*
X61698896Y-89987291D01*
X61698896Y-89987291D02*
X61746515Y-89892053D01*
X61746515Y-89892053D02*
X61746515Y-89701577D01*
X61746515Y-89701577D02*
X61794134Y-89606339D01*
X61794134Y-89606339D02*
X61841753Y-89558720D01*
X61841753Y-89558720D02*
X61936991Y-89511101D01*
X61936991Y-89511101D02*
X62127467Y-89511101D01*
X62127467Y-89511101D02*
X62222705Y-89558720D01*
X62222705Y-89558720D02*
X62270325Y-89606339D01*
X62270325Y-89606339D02*
X62317944Y-89701577D01*
X62317944Y-89701577D02*
X62317944Y-89892053D01*
X62317944Y-89892053D02*
X62270325Y-89987291D01*
X62270325Y-89987291D02*
X62222705Y-90034910D01*
X62222705Y-90034910D02*
X62127467Y-90082529D01*
X62127467Y-90082529D02*
X61936991Y-90082529D01*
X61936991Y-90082529D02*
X61841753Y-90034910D01*
X61841753Y-90034910D02*
X61794134Y-89987291D01*
X61794134Y-89987291D02*
X61746515Y-89892053D01*
X261152319Y-68556339D02*
X260152319Y-68556339D01*
X260152319Y-68556339D02*
X260152319Y-68794434D01*
X260152319Y-68794434D02*
X260199938Y-68937291D01*
X260199938Y-68937291D02*
X260295176Y-69032529D01*
X260295176Y-69032529D02*
X260390414Y-69080148D01*
X260390414Y-69080148D02*
X260580890Y-69127767D01*
X260580890Y-69127767D02*
X260723747Y-69127767D01*
X260723747Y-69127767D02*
X260914223Y-69080148D01*
X260914223Y-69080148D02*
X261009461Y-69032529D01*
X261009461Y-69032529D02*
X261104700Y-68937291D01*
X261104700Y-68937291D02*
X261152319Y-68794434D01*
X261152319Y-68794434D02*
X261152319Y-68556339D01*
X260152319Y-69461101D02*
X260152319Y-70080148D01*
X260152319Y-70080148D02*
X260533271Y-69746815D01*
X260533271Y-69746815D02*
X260533271Y-69889672D01*
X260533271Y-69889672D02*
X260580890Y-69984910D01*
X260580890Y-69984910D02*
X260628509Y-70032529D01*
X260628509Y-70032529D02*
X260723747Y-70080148D01*
X260723747Y-70080148D02*
X260961842Y-70080148D01*
X260961842Y-70080148D02*
X261057080Y-70032529D01*
X261057080Y-70032529D02*
X261104700Y-69984910D01*
X261104700Y-69984910D02*
X261152319Y-69889672D01*
X261152319Y-69889672D02*
X261152319Y-69603958D01*
X261152319Y-69603958D02*
X261104700Y-69508720D01*
X261104700Y-69508720D02*
X261057080Y-69461101D01*
X260152319Y-70937291D02*
X260152319Y-70746815D01*
X260152319Y-70746815D02*
X260199938Y-70651577D01*
X260199938Y-70651577D02*
X260247557Y-70603958D01*
X260247557Y-70603958D02*
X260390414Y-70508720D01*
X260390414Y-70508720D02*
X260580890Y-70461101D01*
X260580890Y-70461101D02*
X260961842Y-70461101D01*
X260961842Y-70461101D02*
X261057080Y-70508720D01*
X261057080Y-70508720D02*
X261104700Y-70556339D01*
X261104700Y-70556339D02*
X261152319Y-70651577D01*
X261152319Y-70651577D02*
X261152319Y-70842053D01*
X261152319Y-70842053D02*
X261104700Y-70937291D01*
X261104700Y-70937291D02*
X261057080Y-70984910D01*
X261057080Y-70984910D02*
X260961842Y-71032529D01*
X260961842Y-71032529D02*
X260723747Y-71032529D01*
X260723747Y-71032529D02*
X260628509Y-70984910D01*
X260628509Y-70984910D02*
X260580890Y-70937291D01*
X260580890Y-70937291D02*
X260533271Y-70842053D01*
X260533271Y-70842053D02*
X260533271Y-70651577D01*
X260533271Y-70651577D02*
X260580890Y-70556339D01*
X260580890Y-70556339D02*
X260628509Y-70508720D01*
X260628509Y-70508720D02*
X260723747Y-70461101D01*
X80177319Y-87606339D02*
X79177319Y-87606339D01*
X79177319Y-87606339D02*
X79177319Y-87844434D01*
X79177319Y-87844434D02*
X79224938Y-87987291D01*
X79224938Y-87987291D02*
X79320176Y-88082529D01*
X79320176Y-88082529D02*
X79415414Y-88130148D01*
X79415414Y-88130148D02*
X79605890Y-88177767D01*
X79605890Y-88177767D02*
X79748747Y-88177767D01*
X79748747Y-88177767D02*
X79939223Y-88130148D01*
X79939223Y-88130148D02*
X80034461Y-88082529D01*
X80034461Y-88082529D02*
X80129700Y-87987291D01*
X80129700Y-87987291D02*
X80177319Y-87844434D01*
X80177319Y-87844434D02*
X80177319Y-87606339D01*
X79177319Y-88511101D02*
X79177319Y-89130148D01*
X79177319Y-89130148D02*
X79558271Y-88796815D01*
X79558271Y-88796815D02*
X79558271Y-88939672D01*
X79558271Y-88939672D02*
X79605890Y-89034910D01*
X79605890Y-89034910D02*
X79653509Y-89082529D01*
X79653509Y-89082529D02*
X79748747Y-89130148D01*
X79748747Y-89130148D02*
X79986842Y-89130148D01*
X79986842Y-89130148D02*
X80082080Y-89082529D01*
X80082080Y-89082529D02*
X80129700Y-89034910D01*
X80129700Y-89034910D02*
X80177319Y-88939672D01*
X80177319Y-88939672D02*
X80177319Y-88653958D01*
X80177319Y-88653958D02*
X80129700Y-88558720D01*
X80129700Y-88558720D02*
X80082080Y-88511101D01*
X80177319Y-89606339D02*
X80177319Y-89796815D01*
X80177319Y-89796815D02*
X80129700Y-89892053D01*
X80129700Y-89892053D02*
X80082080Y-89939672D01*
X80082080Y-89939672D02*
X79939223Y-90034910D01*
X79939223Y-90034910D02*
X79748747Y-90082529D01*
X79748747Y-90082529D02*
X79367795Y-90082529D01*
X79367795Y-90082529D02*
X79272557Y-90034910D01*
X79272557Y-90034910D02*
X79224938Y-89987291D01*
X79224938Y-89987291D02*
X79177319Y-89892053D01*
X79177319Y-89892053D02*
X79177319Y-89701577D01*
X79177319Y-89701577D02*
X79224938Y-89606339D01*
X79224938Y-89606339D02*
X79272557Y-89558720D01*
X79272557Y-89558720D02*
X79367795Y-89511101D01*
X79367795Y-89511101D02*
X79605890Y-89511101D01*
X79605890Y-89511101D02*
X79701128Y-89558720D01*
X79701128Y-89558720D02*
X79748747Y-89606339D01*
X79748747Y-89606339D02*
X79796366Y-89701577D01*
X79796366Y-89701577D02*
X79796366Y-89892053D01*
X79796366Y-89892053D02*
X79748747Y-89987291D01*
X79748747Y-89987291D02*
X79701128Y-90034910D01*
X79701128Y-90034910D02*
X79605890Y-90082529D01*
X75414819Y-30932530D02*
X74414819Y-30932530D01*
X74414819Y-30932530D02*
X74414819Y-31170625D01*
X74414819Y-31170625D02*
X74462438Y-31313482D01*
X74462438Y-31313482D02*
X74557676Y-31408720D01*
X74557676Y-31408720D02*
X74652914Y-31456339D01*
X74652914Y-31456339D02*
X74843390Y-31503958D01*
X74843390Y-31503958D02*
X74986247Y-31503958D01*
X74986247Y-31503958D02*
X75176723Y-31456339D01*
X75176723Y-31456339D02*
X75271961Y-31408720D01*
X75271961Y-31408720D02*
X75367200Y-31313482D01*
X75367200Y-31313482D02*
X75414819Y-31170625D01*
X75414819Y-31170625D02*
X75414819Y-30932530D01*
X74414819Y-31837292D02*
X74414819Y-32456339D01*
X74414819Y-32456339D02*
X74795771Y-32123006D01*
X74795771Y-32123006D02*
X74795771Y-32265863D01*
X74795771Y-32265863D02*
X74843390Y-32361101D01*
X74843390Y-32361101D02*
X74891009Y-32408720D01*
X74891009Y-32408720D02*
X74986247Y-32456339D01*
X74986247Y-32456339D02*
X75224342Y-32456339D01*
X75224342Y-32456339D02*
X75319580Y-32408720D01*
X75319580Y-32408720D02*
X75367200Y-32361101D01*
X75367200Y-32361101D02*
X75414819Y-32265863D01*
X75414819Y-32265863D02*
X75414819Y-31980149D01*
X75414819Y-31980149D02*
X75367200Y-31884911D01*
X75367200Y-31884911D02*
X75319580Y-31837292D01*
X70652319Y-68556339D02*
X69652319Y-68556339D01*
X69652319Y-68556339D02*
X69652319Y-68794434D01*
X69652319Y-68794434D02*
X69699938Y-68937291D01*
X69699938Y-68937291D02*
X69795176Y-69032529D01*
X69795176Y-69032529D02*
X69890414Y-69080148D01*
X69890414Y-69080148D02*
X70080890Y-69127767D01*
X70080890Y-69127767D02*
X70223747Y-69127767D01*
X70223747Y-69127767D02*
X70414223Y-69080148D01*
X70414223Y-69080148D02*
X70509461Y-69032529D01*
X70509461Y-69032529D02*
X70604700Y-68937291D01*
X70604700Y-68937291D02*
X70652319Y-68794434D01*
X70652319Y-68794434D02*
X70652319Y-68556339D01*
X69747557Y-69508720D02*
X69699938Y-69556339D01*
X69699938Y-69556339D02*
X69652319Y-69651577D01*
X69652319Y-69651577D02*
X69652319Y-69889672D01*
X69652319Y-69889672D02*
X69699938Y-69984910D01*
X69699938Y-69984910D02*
X69747557Y-70032529D01*
X69747557Y-70032529D02*
X69842795Y-70080148D01*
X69842795Y-70080148D02*
X69938033Y-70080148D01*
X69938033Y-70080148D02*
X70080890Y-70032529D01*
X70080890Y-70032529D02*
X70652319Y-69461101D01*
X70652319Y-69461101D02*
X70652319Y-70080148D01*
X69652319Y-70937291D02*
X69652319Y-70746815D01*
X69652319Y-70746815D02*
X69699938Y-70651577D01*
X69699938Y-70651577D02*
X69747557Y-70603958D01*
X69747557Y-70603958D02*
X69890414Y-70508720D01*
X69890414Y-70508720D02*
X70080890Y-70461101D01*
X70080890Y-70461101D02*
X70461842Y-70461101D01*
X70461842Y-70461101D02*
X70557080Y-70508720D01*
X70557080Y-70508720D02*
X70604700Y-70556339D01*
X70604700Y-70556339D02*
X70652319Y-70651577D01*
X70652319Y-70651577D02*
X70652319Y-70842053D01*
X70652319Y-70842053D02*
X70604700Y-70937291D01*
X70604700Y-70937291D02*
X70557080Y-70984910D01*
X70557080Y-70984910D02*
X70461842Y-71032529D01*
X70461842Y-71032529D02*
X70223747Y-71032529D01*
X70223747Y-71032529D02*
X70128509Y-70984910D01*
X70128509Y-70984910D02*
X70080890Y-70937291D01*
X70080890Y-70937291D02*
X70033271Y-70842053D01*
X70033271Y-70842053D02*
X70033271Y-70651577D01*
X70033271Y-70651577D02*
X70080890Y-70556339D01*
X70080890Y-70556339D02*
X70128509Y-70508720D01*
X70128509Y-70508720D02*
X70223747Y-70461101D01*
X244914166Y-37983330D02*
X244961785Y-38030950D01*
X244961785Y-38030950D02*
X245104642Y-38078569D01*
X245104642Y-38078569D02*
X245199880Y-38078569D01*
X245199880Y-38078569D02*
X245342737Y-38030950D01*
X245342737Y-38030950D02*
X245437975Y-37935711D01*
X245437975Y-37935711D02*
X245485594Y-37840473D01*
X245485594Y-37840473D02*
X245533213Y-37649997D01*
X245533213Y-37649997D02*
X245533213Y-37507140D01*
X245533213Y-37507140D02*
X245485594Y-37316664D01*
X245485594Y-37316664D02*
X245437975Y-37221426D01*
X245437975Y-37221426D02*
X245342737Y-37126188D01*
X245342737Y-37126188D02*
X245199880Y-37078569D01*
X245199880Y-37078569D02*
X245104642Y-37078569D01*
X245104642Y-37078569D02*
X244961785Y-37126188D01*
X244961785Y-37126188D02*
X244914166Y-37173807D01*
X244342737Y-37507140D02*
X244437975Y-37459521D01*
X244437975Y-37459521D02*
X244485594Y-37411902D01*
X244485594Y-37411902D02*
X244533213Y-37316664D01*
X244533213Y-37316664D02*
X244533213Y-37269045D01*
X244533213Y-37269045D02*
X244485594Y-37173807D01*
X244485594Y-37173807D02*
X244437975Y-37126188D01*
X244437975Y-37126188D02*
X244342737Y-37078569D01*
X244342737Y-37078569D02*
X244152261Y-37078569D01*
X244152261Y-37078569D02*
X244057023Y-37126188D01*
X244057023Y-37126188D02*
X244009404Y-37173807D01*
X244009404Y-37173807D02*
X243961785Y-37269045D01*
X243961785Y-37269045D02*
X243961785Y-37316664D01*
X243961785Y-37316664D02*
X244009404Y-37411902D01*
X244009404Y-37411902D02*
X244057023Y-37459521D01*
X244057023Y-37459521D02*
X244152261Y-37507140D01*
X244152261Y-37507140D02*
X244342737Y-37507140D01*
X244342737Y-37507140D02*
X244437975Y-37554759D01*
X244437975Y-37554759D02*
X244485594Y-37602378D01*
X244485594Y-37602378D02*
X244533213Y-37697616D01*
X244533213Y-37697616D02*
X244533213Y-37888092D01*
X244533213Y-37888092D02*
X244485594Y-37983330D01*
X244485594Y-37983330D02*
X244437975Y-38030950D01*
X244437975Y-38030950D02*
X244342737Y-38078569D01*
X244342737Y-38078569D02*
X244152261Y-38078569D01*
X244152261Y-38078569D02*
X244057023Y-38030950D01*
X244057023Y-38030950D02*
X244009404Y-37983330D01*
X244009404Y-37983330D02*
X243961785Y-37888092D01*
X243961785Y-37888092D02*
X243961785Y-37697616D01*
X243961785Y-37697616D02*
X244009404Y-37602378D01*
X244009404Y-37602378D02*
X244057023Y-37554759D01*
X244057023Y-37554759D02*
X244152261Y-37507140D01*
X94464819Y-30932530D02*
X93464819Y-30932530D01*
X93464819Y-30932530D02*
X93464819Y-31170625D01*
X93464819Y-31170625D02*
X93512438Y-31313482D01*
X93512438Y-31313482D02*
X93607676Y-31408720D01*
X93607676Y-31408720D02*
X93702914Y-31456339D01*
X93702914Y-31456339D02*
X93893390Y-31503958D01*
X93893390Y-31503958D02*
X94036247Y-31503958D01*
X94036247Y-31503958D02*
X94226723Y-31456339D01*
X94226723Y-31456339D02*
X94321961Y-31408720D01*
X94321961Y-31408720D02*
X94417200Y-31313482D01*
X94417200Y-31313482D02*
X94464819Y-31170625D01*
X94464819Y-31170625D02*
X94464819Y-30932530D01*
X93798152Y-32361101D02*
X94464819Y-32361101D01*
X93417200Y-32123006D02*
X94131485Y-31884911D01*
X94131485Y-31884911D02*
X94131485Y-32503958D01*
X37314819Y-30932530D02*
X36314819Y-30932530D01*
X36314819Y-30932530D02*
X36314819Y-31170625D01*
X36314819Y-31170625D02*
X36362438Y-31313482D01*
X36362438Y-31313482D02*
X36457676Y-31408720D01*
X36457676Y-31408720D02*
X36552914Y-31456339D01*
X36552914Y-31456339D02*
X36743390Y-31503958D01*
X36743390Y-31503958D02*
X36886247Y-31503958D01*
X36886247Y-31503958D02*
X37076723Y-31456339D01*
X37076723Y-31456339D02*
X37171961Y-31408720D01*
X37171961Y-31408720D02*
X37267200Y-31313482D01*
X37267200Y-31313482D02*
X37314819Y-31170625D01*
X37314819Y-31170625D02*
X37314819Y-30932530D01*
X37314819Y-32456339D02*
X37314819Y-31884911D01*
X37314819Y-32170625D02*
X36314819Y-32170625D01*
X36314819Y-32170625D02*
X36457676Y-32075387D01*
X36457676Y-32075387D02*
X36552914Y-31980149D01*
X36552914Y-31980149D02*
X36600533Y-31884911D01*
X238924404Y-33401069D02*
X238924404Y-34210592D01*
X238924404Y-34210592D02*
X238876785Y-34305830D01*
X238876785Y-34305830D02*
X238829166Y-34353450D01*
X238829166Y-34353450D02*
X238733928Y-34401069D01*
X238733928Y-34401069D02*
X238543452Y-34401069D01*
X238543452Y-34401069D02*
X238448214Y-34353450D01*
X238448214Y-34353450D02*
X238400595Y-34305830D01*
X238400595Y-34305830D02*
X238352976Y-34210592D01*
X238352976Y-34210592D02*
X238352976Y-33401069D01*
X237352976Y-34401069D02*
X237924404Y-34401069D01*
X237638690Y-34401069D02*
X237638690Y-33401069D01*
X237638690Y-33401069D02*
X237733928Y-33543926D01*
X237733928Y-33543926D02*
X237829166Y-33639164D01*
X237829166Y-33639164D02*
X237924404Y-33686783D01*
X216689819Y-37087291D02*
X217404104Y-37087291D01*
X217404104Y-37087291D02*
X217546961Y-37039672D01*
X217546961Y-37039672D02*
X217642200Y-36944434D01*
X217642200Y-36944434D02*
X217689819Y-36801577D01*
X217689819Y-36801577D02*
X217689819Y-36706339D01*
X217689819Y-38087291D02*
X217689819Y-37515863D01*
X217689819Y-37801577D02*
X216689819Y-37801577D01*
X216689819Y-37801577D02*
X216832676Y-37706339D01*
X216832676Y-37706339D02*
X216927914Y-37611101D01*
X216927914Y-37611101D02*
X216975533Y-37515863D01*
X37314819Y-87606339D02*
X36314819Y-87606339D01*
X36314819Y-87606339D02*
X36314819Y-87844434D01*
X36314819Y-87844434D02*
X36362438Y-87987291D01*
X36362438Y-87987291D02*
X36457676Y-88082529D01*
X36457676Y-88082529D02*
X36552914Y-88130148D01*
X36552914Y-88130148D02*
X36743390Y-88177767D01*
X36743390Y-88177767D02*
X36886247Y-88177767D01*
X36886247Y-88177767D02*
X37076723Y-88130148D01*
X37076723Y-88130148D02*
X37171961Y-88082529D01*
X37171961Y-88082529D02*
X37267200Y-87987291D01*
X37267200Y-87987291D02*
X37314819Y-87844434D01*
X37314819Y-87844434D02*
X37314819Y-87606339D01*
X36314819Y-88511101D02*
X36314819Y-89130148D01*
X36314819Y-89130148D02*
X36695771Y-88796815D01*
X36695771Y-88796815D02*
X36695771Y-88939672D01*
X36695771Y-88939672D02*
X36743390Y-89034910D01*
X36743390Y-89034910D02*
X36791009Y-89082529D01*
X36791009Y-89082529D02*
X36886247Y-89130148D01*
X36886247Y-89130148D02*
X37124342Y-89130148D01*
X37124342Y-89130148D02*
X37219580Y-89082529D01*
X37219580Y-89082529D02*
X37267200Y-89034910D01*
X37267200Y-89034910D02*
X37314819Y-88939672D01*
X37314819Y-88939672D02*
X37314819Y-88653958D01*
X37314819Y-88653958D02*
X37267200Y-88558720D01*
X37267200Y-88558720D02*
X37219580Y-88511101D01*
X36314819Y-89463482D02*
X36314819Y-90130148D01*
X36314819Y-90130148D02*
X37314819Y-89701577D01*
X229992291Y-39857080D02*
X230039910Y-39904700D01*
X230039910Y-39904700D02*
X230182767Y-39952319D01*
X230182767Y-39952319D02*
X230278005Y-39952319D01*
X230278005Y-39952319D02*
X230420862Y-39904700D01*
X230420862Y-39904700D02*
X230516100Y-39809461D01*
X230516100Y-39809461D02*
X230563719Y-39714223D01*
X230563719Y-39714223D02*
X230611338Y-39523747D01*
X230611338Y-39523747D02*
X230611338Y-39380890D01*
X230611338Y-39380890D02*
X230563719Y-39190414D01*
X230563719Y-39190414D02*
X230516100Y-39095176D01*
X230516100Y-39095176D02*
X230420862Y-38999938D01*
X230420862Y-38999938D02*
X230278005Y-38952319D01*
X230278005Y-38952319D02*
X230182767Y-38952319D01*
X230182767Y-38952319D02*
X230039910Y-38999938D01*
X230039910Y-38999938D02*
X229992291Y-39047557D01*
X229087529Y-38952319D02*
X229563719Y-38952319D01*
X229563719Y-38952319D02*
X229611338Y-39428509D01*
X229611338Y-39428509D02*
X229563719Y-39380890D01*
X229563719Y-39380890D02*
X229468481Y-39333271D01*
X229468481Y-39333271D02*
X229230386Y-39333271D01*
X229230386Y-39333271D02*
X229135148Y-39380890D01*
X229135148Y-39380890D02*
X229087529Y-39428509D01*
X229087529Y-39428509D02*
X229039910Y-39523747D01*
X229039910Y-39523747D02*
X229039910Y-39761842D01*
X229039910Y-39761842D02*
X229087529Y-39857080D01*
X229087529Y-39857080D02*
X229135148Y-39904700D01*
X229135148Y-39904700D02*
X229230386Y-39952319D01*
X229230386Y-39952319D02*
X229468481Y-39952319D01*
X229468481Y-39952319D02*
X229563719Y-39904700D01*
X229563719Y-39904700D02*
X229611338Y-39857080D01*
X213527319Y-49506339D02*
X212527319Y-49506339D01*
X212527319Y-49506339D02*
X212527319Y-49744434D01*
X212527319Y-49744434D02*
X212574938Y-49887291D01*
X212574938Y-49887291D02*
X212670176Y-49982529D01*
X212670176Y-49982529D02*
X212765414Y-50030148D01*
X212765414Y-50030148D02*
X212955890Y-50077767D01*
X212955890Y-50077767D02*
X213098747Y-50077767D01*
X213098747Y-50077767D02*
X213289223Y-50030148D01*
X213289223Y-50030148D02*
X213384461Y-49982529D01*
X213384461Y-49982529D02*
X213479700Y-49887291D01*
X213479700Y-49887291D02*
X213527319Y-49744434D01*
X213527319Y-49744434D02*
X213527319Y-49506339D01*
X212622557Y-50458720D02*
X212574938Y-50506339D01*
X212574938Y-50506339D02*
X212527319Y-50601577D01*
X212527319Y-50601577D02*
X212527319Y-50839672D01*
X212527319Y-50839672D02*
X212574938Y-50934910D01*
X212574938Y-50934910D02*
X212622557Y-50982529D01*
X212622557Y-50982529D02*
X212717795Y-51030148D01*
X212717795Y-51030148D02*
X212813033Y-51030148D01*
X212813033Y-51030148D02*
X212955890Y-50982529D01*
X212955890Y-50982529D02*
X213527319Y-50411101D01*
X213527319Y-50411101D02*
X213527319Y-51030148D01*
X212622557Y-51411101D02*
X212574938Y-51458720D01*
X212574938Y-51458720D02*
X212527319Y-51553958D01*
X212527319Y-51553958D02*
X212527319Y-51792053D01*
X212527319Y-51792053D02*
X212574938Y-51887291D01*
X212574938Y-51887291D02*
X212622557Y-51934910D01*
X212622557Y-51934910D02*
X212717795Y-51982529D01*
X212717795Y-51982529D02*
X212813033Y-51982529D01*
X212813033Y-51982529D02*
X212955890Y-51934910D01*
X212955890Y-51934910D02*
X213527319Y-51363482D01*
X213527319Y-51363482D02*
X213527319Y-51982529D01*
X121849194Y-87606339D02*
X120849194Y-87606339D01*
X120849194Y-87606339D02*
X120849194Y-87844434D01*
X120849194Y-87844434D02*
X120896813Y-87987291D01*
X120896813Y-87987291D02*
X120992051Y-88082529D01*
X120992051Y-88082529D02*
X121087289Y-88130148D01*
X121087289Y-88130148D02*
X121277765Y-88177767D01*
X121277765Y-88177767D02*
X121420622Y-88177767D01*
X121420622Y-88177767D02*
X121611098Y-88130148D01*
X121611098Y-88130148D02*
X121706336Y-88082529D01*
X121706336Y-88082529D02*
X121801575Y-87987291D01*
X121801575Y-87987291D02*
X121849194Y-87844434D01*
X121849194Y-87844434D02*
X121849194Y-87606339D01*
X121182527Y-89034910D02*
X121849194Y-89034910D01*
X120801575Y-88796815D02*
X121515860Y-88558720D01*
X121515860Y-88558720D02*
X121515860Y-89177767D01*
X120849194Y-89987291D02*
X120849194Y-89796815D01*
X120849194Y-89796815D02*
X120896813Y-89701577D01*
X120896813Y-89701577D02*
X120944432Y-89653958D01*
X120944432Y-89653958D02*
X121087289Y-89558720D01*
X121087289Y-89558720D02*
X121277765Y-89511101D01*
X121277765Y-89511101D02*
X121658717Y-89511101D01*
X121658717Y-89511101D02*
X121753955Y-89558720D01*
X121753955Y-89558720D02*
X121801575Y-89606339D01*
X121801575Y-89606339D02*
X121849194Y-89701577D01*
X121849194Y-89701577D02*
X121849194Y-89892053D01*
X121849194Y-89892053D02*
X121801575Y-89987291D01*
X121801575Y-89987291D02*
X121753955Y-90034910D01*
X121753955Y-90034910D02*
X121658717Y-90082529D01*
X121658717Y-90082529D02*
X121420622Y-90082529D01*
X121420622Y-90082529D02*
X121325384Y-90034910D01*
X121325384Y-90034910D02*
X121277765Y-89987291D01*
X121277765Y-89987291D02*
X121230146Y-89892053D01*
X121230146Y-89892053D02*
X121230146Y-89701577D01*
X121230146Y-89701577D02*
X121277765Y-89606339D01*
X121277765Y-89606339D02*
X121325384Y-89558720D01*
X121325384Y-89558720D02*
X121420622Y-89511101D01*
X113514819Y-30932530D02*
X112514819Y-30932530D01*
X112514819Y-30932530D02*
X112514819Y-31170625D01*
X112514819Y-31170625D02*
X112562438Y-31313482D01*
X112562438Y-31313482D02*
X112657676Y-31408720D01*
X112657676Y-31408720D02*
X112752914Y-31456339D01*
X112752914Y-31456339D02*
X112943390Y-31503958D01*
X112943390Y-31503958D02*
X113086247Y-31503958D01*
X113086247Y-31503958D02*
X113276723Y-31456339D01*
X113276723Y-31456339D02*
X113371961Y-31408720D01*
X113371961Y-31408720D02*
X113467200Y-31313482D01*
X113467200Y-31313482D02*
X113514819Y-31170625D01*
X113514819Y-31170625D02*
X113514819Y-30932530D01*
X112514819Y-32408720D02*
X112514819Y-31932530D01*
X112514819Y-31932530D02*
X112991009Y-31884911D01*
X112991009Y-31884911D02*
X112943390Y-31932530D01*
X112943390Y-31932530D02*
X112895771Y-32027768D01*
X112895771Y-32027768D02*
X112895771Y-32265863D01*
X112895771Y-32265863D02*
X112943390Y-32361101D01*
X112943390Y-32361101D02*
X112991009Y-32408720D01*
X112991009Y-32408720D02*
X113086247Y-32456339D01*
X113086247Y-32456339D02*
X113324342Y-32456339D01*
X113324342Y-32456339D02*
X113419580Y-32408720D01*
X113419580Y-32408720D02*
X113467200Y-32361101D01*
X113467200Y-32361101D02*
X113514819Y-32265863D01*
X113514819Y-32265863D02*
X113514819Y-32027768D01*
X113514819Y-32027768D02*
X113467200Y-31932530D01*
X113467200Y-31932530D02*
X113419580Y-31884911D01*
X243394580Y-34169583D02*
X243442200Y-34121964D01*
X243442200Y-34121964D02*
X243489819Y-33979107D01*
X243489819Y-33979107D02*
X243489819Y-33883869D01*
X243489819Y-33883869D02*
X243442200Y-33741012D01*
X243442200Y-33741012D02*
X243346961Y-33645774D01*
X243346961Y-33645774D02*
X243251723Y-33598155D01*
X243251723Y-33598155D02*
X243061247Y-33550536D01*
X243061247Y-33550536D02*
X242918390Y-33550536D01*
X242918390Y-33550536D02*
X242727914Y-33598155D01*
X242727914Y-33598155D02*
X242632676Y-33645774D01*
X242632676Y-33645774D02*
X242537438Y-33741012D01*
X242537438Y-33741012D02*
X242489819Y-33883869D01*
X242489819Y-33883869D02*
X242489819Y-33979107D01*
X242489819Y-33979107D02*
X242537438Y-34121964D01*
X242537438Y-34121964D02*
X242585057Y-34169583D01*
X242585057Y-34550536D02*
X242537438Y-34598155D01*
X242537438Y-34598155D02*
X242489819Y-34693393D01*
X242489819Y-34693393D02*
X242489819Y-34931488D01*
X242489819Y-34931488D02*
X242537438Y-35026726D01*
X242537438Y-35026726D02*
X242585057Y-35074345D01*
X242585057Y-35074345D02*
X242680295Y-35121964D01*
X242680295Y-35121964D02*
X242775533Y-35121964D01*
X242775533Y-35121964D02*
X242918390Y-35074345D01*
X242918390Y-35074345D02*
X243489819Y-34502917D01*
X243489819Y-34502917D02*
X243489819Y-35121964D01*
X208764819Y-30456339D02*
X207764819Y-30456339D01*
X207764819Y-30456339D02*
X207764819Y-30694434D01*
X207764819Y-30694434D02*
X207812438Y-30837291D01*
X207812438Y-30837291D02*
X207907676Y-30932529D01*
X207907676Y-30932529D02*
X208002914Y-30980148D01*
X208002914Y-30980148D02*
X208193390Y-31027767D01*
X208193390Y-31027767D02*
X208336247Y-31027767D01*
X208336247Y-31027767D02*
X208526723Y-30980148D01*
X208526723Y-30980148D02*
X208621961Y-30932529D01*
X208621961Y-30932529D02*
X208717200Y-30837291D01*
X208717200Y-30837291D02*
X208764819Y-30694434D01*
X208764819Y-30694434D02*
X208764819Y-30456339D01*
X208764819Y-31980148D02*
X208764819Y-31408720D01*
X208764819Y-31694434D02*
X207764819Y-31694434D01*
X207764819Y-31694434D02*
X207907676Y-31599196D01*
X207907676Y-31599196D02*
X208002914Y-31503958D01*
X208002914Y-31503958D02*
X208050533Y-31408720D01*
X207764819Y-32599196D02*
X207764819Y-32694434D01*
X207764819Y-32694434D02*
X207812438Y-32789672D01*
X207812438Y-32789672D02*
X207860057Y-32837291D01*
X207860057Y-32837291D02*
X207955295Y-32884910D01*
X207955295Y-32884910D02*
X208145771Y-32932529D01*
X208145771Y-32932529D02*
X208383866Y-32932529D01*
X208383866Y-32932529D02*
X208574342Y-32884910D01*
X208574342Y-32884910D02*
X208669580Y-32837291D01*
X208669580Y-32837291D02*
X208717200Y-32789672D01*
X208717200Y-32789672D02*
X208764819Y-32694434D01*
X208764819Y-32694434D02*
X208764819Y-32599196D01*
X208764819Y-32599196D02*
X208717200Y-32503958D01*
X208717200Y-32503958D02*
X208669580Y-32456339D01*
X208669580Y-32456339D02*
X208574342Y-32408720D01*
X208574342Y-32408720D02*
X208383866Y-32361101D01*
X208383866Y-32361101D02*
X208145771Y-32361101D01*
X208145771Y-32361101D02*
X207955295Y-32408720D01*
X207955295Y-32408720D02*
X207860057Y-32456339D01*
X207860057Y-32456339D02*
X207812438Y-32503958D01*
X207812438Y-32503958D02*
X207764819Y-32599196D01*
X252042200Y-36072917D02*
X252089819Y-36215774D01*
X252089819Y-36215774D02*
X252089819Y-36453869D01*
X252089819Y-36453869D02*
X252042200Y-36549107D01*
X252042200Y-36549107D02*
X251994580Y-36596726D01*
X251994580Y-36596726D02*
X251899342Y-36644345D01*
X251899342Y-36644345D02*
X251804104Y-36644345D01*
X251804104Y-36644345D02*
X251708866Y-36596726D01*
X251708866Y-36596726D02*
X251661247Y-36549107D01*
X251661247Y-36549107D02*
X251613628Y-36453869D01*
X251613628Y-36453869D02*
X251566009Y-36263393D01*
X251566009Y-36263393D02*
X251518390Y-36168155D01*
X251518390Y-36168155D02*
X251470771Y-36120536D01*
X251470771Y-36120536D02*
X251375533Y-36072917D01*
X251375533Y-36072917D02*
X251280295Y-36072917D01*
X251280295Y-36072917D02*
X251185057Y-36120536D01*
X251185057Y-36120536D02*
X251137438Y-36168155D01*
X251137438Y-36168155D02*
X251089819Y-36263393D01*
X251089819Y-36263393D02*
X251089819Y-36501488D01*
X251089819Y-36501488D02*
X251137438Y-36644345D01*
X251089819Y-36977679D02*
X252089819Y-37215774D01*
X252089819Y-37215774D02*
X251375533Y-37406250D01*
X251375533Y-37406250D02*
X252089819Y-37596726D01*
X252089819Y-37596726D02*
X251089819Y-37834822D01*
X251185057Y-38168155D02*
X251137438Y-38215774D01*
X251137438Y-38215774D02*
X251089819Y-38311012D01*
X251089819Y-38311012D02*
X251089819Y-38549107D01*
X251089819Y-38549107D02*
X251137438Y-38644345D01*
X251137438Y-38644345D02*
X251185057Y-38691964D01*
X251185057Y-38691964D02*
X251280295Y-38739583D01*
X251280295Y-38739583D02*
X251375533Y-38739583D01*
X251375533Y-38739583D02*
X251518390Y-38691964D01*
X251518390Y-38691964D02*
X252089819Y-38120536D01*
X252089819Y-38120536D02*
X252089819Y-38739583D01*
X61127319Y-49506339D02*
X60127319Y-49506339D01*
X60127319Y-49506339D02*
X60127319Y-49744434D01*
X60127319Y-49744434D02*
X60174938Y-49887291D01*
X60174938Y-49887291D02*
X60270176Y-49982529D01*
X60270176Y-49982529D02*
X60365414Y-50030148D01*
X60365414Y-50030148D02*
X60555890Y-50077767D01*
X60555890Y-50077767D02*
X60698747Y-50077767D01*
X60698747Y-50077767D02*
X60889223Y-50030148D01*
X60889223Y-50030148D02*
X60984461Y-49982529D01*
X60984461Y-49982529D02*
X61079700Y-49887291D01*
X61079700Y-49887291D02*
X61127319Y-49744434D01*
X61127319Y-49744434D02*
X61127319Y-49506339D01*
X61127319Y-51030148D02*
X61127319Y-50458720D01*
X61127319Y-50744434D02*
X60127319Y-50744434D01*
X60127319Y-50744434D02*
X60270176Y-50649196D01*
X60270176Y-50649196D02*
X60365414Y-50553958D01*
X60365414Y-50553958D02*
X60413033Y-50458720D01*
X60460652Y-51887291D02*
X61127319Y-51887291D01*
X60079700Y-51649196D02*
X60793985Y-51411101D01*
X60793985Y-51411101D02*
X60793985Y-52030148D01*
D13*
%TO.C,D32*%
X182597500Y-71030625D02*
X182597500Y-69070625D01*
X182597500Y-71030625D02*
X183797500Y-71030625D01*
X183797500Y-71030625D02*
X183797500Y-69070625D01*
%TO.C,D28*%
X106397500Y-71030625D02*
X106397500Y-69070625D01*
X106397500Y-71030625D02*
X107597500Y-71030625D01*
X107597500Y-71030625D02*
X107597500Y-69070625D01*
%TO.C,D34*%
X220697500Y-71030625D02*
X220697500Y-69070625D01*
X220697500Y-71030625D02*
X221897500Y-71030625D01*
X221897500Y-71030625D02*
X221897500Y-69070625D01*
%TO.C,D17*%
X115922500Y-51980625D02*
X115922500Y-50020625D01*
X115922500Y-51980625D02*
X117122500Y-51980625D01*
X117122500Y-51980625D02*
X117122500Y-50020625D01*
%TO.C,D21*%
X192122500Y-51980625D02*
X192122500Y-50020625D01*
X192122500Y-51980625D02*
X193322500Y-51980625D01*
X193322500Y-51980625D02*
X193322500Y-50020625D01*
%TO.C,D42*%
X239747500Y-90080625D02*
X239747500Y-88120625D01*
X239747500Y-90080625D02*
X240947500Y-90080625D01*
X240947500Y-90080625D02*
X240947500Y-88120625D01*
%TO.C,D29*%
X125447500Y-71030625D02*
X125447500Y-69070625D01*
X125447500Y-71030625D02*
X126647500Y-71030625D01*
X126647500Y-71030625D02*
X126647500Y-69070625D01*
%TO.C,D27*%
X87347500Y-71030625D02*
X87347500Y-69070625D01*
X87347500Y-71030625D02*
X88547500Y-71030625D01*
X88547500Y-71030625D02*
X88547500Y-69070625D01*
%TO.C,D33*%
X201647500Y-71030625D02*
X201647500Y-69070625D01*
X201647500Y-71030625D02*
X202847500Y-71030625D01*
X202847500Y-71030625D02*
X202847500Y-69070625D01*
%TO.C,D18*%
X134972500Y-51980625D02*
X134972500Y-50020625D01*
X134972500Y-51980625D02*
X136172500Y-51980625D01*
X136172500Y-51980625D02*
X136172500Y-50020625D01*
%TO.C,C6*%
X219929375Y-40574086D02*
X219929375Y-40358414D01*
X220649375Y-40574086D02*
X220649375Y-40358414D01*
%TO.C,SW1*%
X254725000Y-38866250D02*
X254725000Y-35966250D01*
X255215000Y-35476250D02*
X254725000Y-35966250D01*
X255215000Y-39356250D02*
X254725000Y-38866250D01*
X256405000Y-34696250D02*
X258485000Y-34696250D01*
X256405000Y-40136250D02*
X258485000Y-40136250D01*
X259675000Y-35476250D02*
X260165000Y-35966250D01*
X259675000Y-39356250D02*
X260165000Y-38866250D01*
X260165000Y-38866250D02*
X260165000Y-35966250D01*
%TO.C,D23*%
X230222500Y-51980625D02*
X230222500Y-50020625D01*
X230222500Y-51980625D02*
X231422500Y-51980625D01*
X231422500Y-51980625D02*
X231422500Y-50020625D01*
%TO.C,D8*%
X168310000Y-32930625D02*
X168310000Y-30970625D01*
X168310000Y-32930625D02*
X169510000Y-32930625D01*
X169510000Y-32930625D02*
X169510000Y-30970625D01*
%TO.C,D20*%
X173072500Y-51980625D02*
X173072500Y-50020625D01*
X173072500Y-51980625D02*
X174272500Y-51980625D01*
X174272500Y-51980625D02*
X174272500Y-50020625D01*
%TO.C,D40*%
X142116250Y-90080625D02*
X142116250Y-88120625D01*
X142116250Y-90080625D02*
X143316250Y-90080625D01*
X143316250Y-90080625D02*
X143316250Y-88120625D01*
%TO.C,D30*%
X144497500Y-71030625D02*
X144497500Y-69070625D01*
X144497500Y-71030625D02*
X145697500Y-71030625D01*
X145697500Y-71030625D02*
X145697500Y-69070625D01*
%TO.C,D24*%
X254035000Y-51980625D02*
X254035000Y-50020625D01*
X254035000Y-51980625D02*
X255235000Y-51980625D01*
X255235000Y-51980625D02*
X255235000Y-50020625D01*
%TO.C,D41*%
X220697500Y-90080625D02*
X220697500Y-88120625D01*
X220697500Y-90080625D02*
X221897500Y-90080625D01*
X221897500Y-90080625D02*
X221897500Y-88120625D01*
%TO.C,D6*%
X130210000Y-32930625D02*
X130210000Y-30970625D01*
X130210000Y-32930625D02*
X131410000Y-32930625D01*
X131410000Y-32930625D02*
X131410000Y-30970625D01*
%TO.C,D35*%
X239747500Y-71030625D02*
X239747500Y-69070625D01*
X239747500Y-71030625D02*
X240947500Y-71030625D01*
X240947500Y-71030625D02*
X240947500Y-69070625D01*
%TO.C,C9*%
X247835000Y-40874086D02*
X247835000Y-40658414D01*
X248555000Y-40874086D02*
X248555000Y-40658414D01*
%TO.C,D48*%
X192122500Y-90080625D02*
X192122500Y-88120625D01*
X192122500Y-90080625D02*
X193322500Y-90080625D01*
X193322500Y-90080625D02*
X193322500Y-88120625D01*
%TO.C,D31*%
X163547500Y-71030625D02*
X163547500Y-69070625D01*
X163547500Y-71030625D02*
X164747500Y-71030625D01*
X164747500Y-71030625D02*
X164747500Y-69070625D01*
%TO.C,D15*%
X77822500Y-51980625D02*
X77822500Y-50020625D01*
X77822500Y-51980625D02*
X79022500Y-51980625D01*
X79022500Y-51980625D02*
X79022500Y-50020625D01*
%TO.C,D13*%
X37341250Y-51980625D02*
X37341250Y-50020625D01*
X37341250Y-51980625D02*
X38541250Y-51980625D01*
X38541250Y-51980625D02*
X38541250Y-50020625D01*
%TO.C,D12*%
X251653750Y-32930625D02*
X251653750Y-30970625D01*
X251653750Y-32930625D02*
X252853750Y-32930625D01*
X252853750Y-32930625D02*
X252853750Y-30970625D01*
%TO.C,D25*%
X42103750Y-71030625D02*
X42103750Y-69070625D01*
X42103750Y-71030625D02*
X43303750Y-71030625D01*
X43303750Y-71030625D02*
X43303750Y-69070625D01*
%TO.C,D19*%
X154022500Y-51980625D02*
X154022500Y-50020625D01*
X154022500Y-51980625D02*
X155222500Y-51980625D01*
X155222500Y-51980625D02*
X155222500Y-50020625D01*
%TO.C,D16*%
X96872500Y-51980625D02*
X96872500Y-50020625D01*
X96872500Y-51980625D02*
X98072500Y-51980625D01*
X98072500Y-51980625D02*
X98072500Y-50020625D01*
%TO.C,C7*%
X225882500Y-40192164D02*
X225882500Y-40407836D01*
X226602500Y-40192164D02*
X226602500Y-40407836D01*
%TO.C,U2*%
X222267500Y-38426250D02*
X223067500Y-38426250D01*
X222267500Y-41546250D02*
X223067500Y-41546250D01*
X223867500Y-38426250D02*
X223067500Y-38426250D01*
X223867500Y-41546250D02*
X223067500Y-41546250D01*
X224367500Y-38476250D02*
X224127500Y-38146250D01*
X224607500Y-38146250D01*
X224367500Y-38476250D01*
G36*
X224367500Y-38476250D02*
G01*
X224127500Y-38146250D01*
X224607500Y-38146250D01*
X224367500Y-38476250D01*
G37*
%TO.C,D2*%
X54010000Y-32930625D02*
X54010000Y-30970625D01*
X54010000Y-32930625D02*
X55210000Y-32930625D01*
X55210000Y-32930625D02*
X55210000Y-30970625D01*
%TO.C,D7*%
X149260000Y-32930625D02*
X149260000Y-30970625D01*
X149260000Y-32930625D02*
X150460000Y-32930625D01*
X150460000Y-32930625D02*
X150460000Y-30970625D01*
%TO.C,R1*%
X260495000Y-33942609D02*
X260495000Y-34249891D01*
X261255000Y-33942609D02*
X261255000Y-34249891D01*
%TO.C,D43*%
X258797500Y-90080625D02*
X258797500Y-88120625D01*
X258797500Y-90080625D02*
X259997500Y-90080625D01*
X259997500Y-90080625D02*
X259997500Y-88120625D01*
%TO.C,D47*%
X161166250Y-90080625D02*
X161166250Y-88120625D01*
X161166250Y-90080625D02*
X162366250Y-90080625D01*
X162366250Y-90080625D02*
X162366250Y-88120625D01*
%TO.C,C1*%
X233257164Y-35723750D02*
X233472836Y-35723750D01*
X233257164Y-36443750D02*
X233472836Y-36443750D01*
%TO.C,C3*%
X244452836Y-40906250D02*
X244237164Y-40906250D01*
X244452836Y-41626250D02*
X244237164Y-41626250D01*
%TO.C,D9*%
X187360000Y-32930625D02*
X187360000Y-30970625D01*
X187360000Y-32930625D02*
X188560000Y-32930625D01*
X188560000Y-32930625D02*
X188560000Y-30970625D01*
%TO.C,D11*%
X225460000Y-32930625D02*
X225460000Y-30970625D01*
X225460000Y-32930625D02*
X226660000Y-32930625D01*
X226660000Y-32930625D02*
X226660000Y-30970625D01*
%TO.C,C4*%
X233867164Y-43796250D02*
X234082836Y-43796250D01*
X233867164Y-44516250D02*
X234082836Y-44516250D01*
%TO.C,D38*%
X59963125Y-90080625D02*
X59963125Y-88120625D01*
X59963125Y-90080625D02*
X61163125Y-90080625D01*
X61163125Y-90080625D02*
X61163125Y-88120625D01*
%TO.C,D36*%
X258797500Y-71030625D02*
X258797500Y-69070625D01*
X258797500Y-71030625D02*
X259997500Y-71030625D01*
X259997500Y-71030625D02*
X259997500Y-69070625D01*
%TO.C,D39*%
X77822500Y-90080625D02*
X77822500Y-88120625D01*
X77822500Y-90080625D02*
X79022500Y-90080625D01*
X79022500Y-90080625D02*
X79022500Y-88120625D01*
%TO.C,D3*%
X73060000Y-32930625D02*
X73060000Y-30970625D01*
X73060000Y-32930625D02*
X74260000Y-32930625D01*
X74260000Y-32930625D02*
X74260000Y-30970625D01*
%TO.C,D26*%
X68297500Y-71030625D02*
X68297500Y-69070625D01*
X68297500Y-71030625D02*
X69497500Y-71030625D01*
X69497500Y-71030625D02*
X69497500Y-69070625D01*
%TO.C,C8*%
X243944086Y-35716250D02*
X243728414Y-35716250D01*
X243944086Y-36436250D02*
X243728414Y-36436250D01*
%TO.C,D4*%
X92110000Y-32930625D02*
X92110000Y-30970625D01*
X92110000Y-32930625D02*
X93310000Y-32930625D01*
X93310000Y-32930625D02*
X93310000Y-30970625D01*
%TO.C,D1*%
X34960000Y-32930625D02*
X34960000Y-30970625D01*
X34960000Y-32930625D02*
X36160000Y-32930625D01*
X36160000Y-32930625D02*
X36160000Y-30970625D01*
%TO.C,U1*%
X234552500Y-36186250D02*
X235002500Y-36186250D01*
X234552500Y-36636250D02*
X234552500Y-36186250D01*
X234552500Y-42956250D02*
X234552500Y-43406250D01*
X234552500Y-43406250D02*
X235002500Y-43406250D01*
X241772500Y-36186250D02*
X241322500Y-36186250D01*
X241772500Y-36636250D02*
X241772500Y-36186250D01*
X241772500Y-42956250D02*
X241772500Y-43406250D01*
X241772500Y-43406250D02*
X241322500Y-43406250D01*
X242362500Y-36636250D02*
X242022500Y-36166250D01*
X242702500Y-36166250D01*
X242362500Y-36636250D01*
G36*
X242362500Y-36636250D02*
G01*
X242022500Y-36166250D01*
X242702500Y-36166250D01*
X242362500Y-36636250D01*
G37*
%TO.C,J1*%
X211530000Y-35080625D02*
X211530000Y-35580625D01*
X211530000Y-35580625D02*
X212030000Y-35880625D01*
X211530000Y-39260625D02*
X211530000Y-39760625D01*
X212030000Y-35880625D02*
X212030000Y-38960625D01*
X212030000Y-38960625D02*
X211530000Y-39260625D01*
X216300000Y-34010625D02*
X212920000Y-34010625D01*
X216300000Y-35060625D02*
X216300000Y-34010625D01*
X216300000Y-39780625D02*
X216300000Y-40830625D01*
X216300000Y-40830625D02*
X212920000Y-40830625D01*
X216500000Y-40830625D02*
X216500000Y-39780625D01*
X215258108Y-39220625D02*
X214928108Y-39460625D01*
X214928108Y-38980625D01*
X215258108Y-39220625D01*
G36*
X215258108Y-39220625D02*
G01*
X214928108Y-39460625D01*
X214928108Y-38980625D01*
X215258108Y-39220625D01*
G37*
%TO.C,D37*%
X34960000Y-90080625D02*
X34960000Y-88120625D01*
X34960000Y-90080625D02*
X36160000Y-90080625D01*
X36160000Y-90080625D02*
X36160000Y-88120625D01*
%TO.C,C5*%
X230925000Y-40198414D02*
X230925000Y-40414086D01*
X231645000Y-40198414D02*
X231645000Y-40414086D01*
%TO.C,D22*%
X211172500Y-51980625D02*
X211172500Y-50020625D01*
X211172500Y-51980625D02*
X212372500Y-51980625D01*
X212372500Y-51980625D02*
X212372500Y-50020625D01*
%TO.C,D46*%
X119494375Y-90080625D02*
X119494375Y-88120625D01*
X119494375Y-90080625D02*
X120694375Y-90080625D01*
X120694375Y-90080625D02*
X120694375Y-88120625D01*
%TO.C,D5*%
X111160000Y-32930625D02*
X111160000Y-30970625D01*
X111160000Y-32930625D02*
X112360000Y-32930625D01*
X112360000Y-32930625D02*
X112360000Y-30970625D01*
%TO.C,C2*%
X241515000Y-34925914D02*
X241515000Y-35141586D01*
X242235000Y-34925914D02*
X242235000Y-35141586D01*
%TO.C,D10*%
X206410000Y-32930625D02*
X206410000Y-30970625D01*
X206410000Y-32930625D02*
X207610000Y-32930625D01*
X207610000Y-32930625D02*
X207610000Y-30970625D01*
%TO.C,SW2*%
X248915000Y-38866250D02*
X248915000Y-35966250D01*
X249405000Y-35476250D02*
X248915000Y-35966250D01*
X249405000Y-39356250D02*
X248915000Y-38866250D01*
X250595000Y-34696250D02*
X252675000Y-34696250D01*
X250595000Y-40136250D02*
X252675000Y-40136250D01*
X253865000Y-35476250D02*
X254355000Y-35966250D01*
X253865000Y-39356250D02*
X254355000Y-38866250D01*
X254355000Y-38866250D02*
X254355000Y-35966250D01*
%TO.C,D14*%
X58772500Y-51980625D02*
X58772500Y-50020625D01*
X58772500Y-51980625D02*
X59972500Y-51980625D01*
X59972500Y-51980625D02*
X59972500Y-50020625D01*
%TD*%
M02*
